<?xml version="1.0" encoding="utf-8"?>
<!-- Generator: Adobe Illustrator 17.1.0, SVG Export Plug-In . SVG Version: 6.00 Build 0)  -->
<!DOCTYPE svg PUBLIC "-//W3C//DTD SVG 1.1//EN" "http://www.w3.org/Graphics/SVG/1.1/DTD/svg11.dtd">
<svg version="1.1" xmlns="http://www.w3.org/2000/svg" xmlns:xlink="http://www.w3.org/1999/xlink" x="0px" y="0px"
	 viewBox="0 0 178.8 178.8" enable-background="new 0 0 178.8 178.8" xml:space="preserve">
<g id="圖層_2">
</g>
<g id="圖層_1">
	<g>
		<circle fill="#B5B5B6" cx="89.4" cy="89.4" r="80.9"/>
		<circle fill="#FFFFFF" cx="89.4" cy="89.4" r="89.4"/>
		<linearGradient id="SVGID_1_" gradientUnits="userSpaceOnUse" x1="89.4355" y1="176.556" x2="89.4355" y2="-2.9201">
			<stop  offset="6.282720e-02" style="stop-color:#EFEFEF"/>
			<stop  offset="0.536" style="stop-color:#F2F2F2"/>
			<stop  offset="0.949" style="stop-color:#FCFDFD"/>
			<stop  offset="1" style="stop-color:#FEFFFF"/>
		</linearGradient>
		<path fill="url(#SVGID_1_)" d="M167.8,109.5c0.4-1.8,0.8-3.5,1.2-5.4v0c0.1-0.4,0.1-0.8,0.2-1.3c0.3-1.7,0.5-3.4,0.7-5.1
			c0-0.4,0.1-0.8,0.1-1.2c0.1-1.6,0.2-3.2,0.3-4.8c0-0.4,0-0.8,0-1.1c0-0.4,0-0.8,0-1.2c0-1.1,0-2.3-0.1-3.4c0-0.4,0-0.7-0.1-1.1
			c-0.1-1.5-0.2-3-0.4-4.5c0-0.4-0.1-0.7-0.1-1.1c-0.2-1.4-0.4-2.9-0.6-4.3c-0.1-0.3-0.1-0.7-0.2-1c-0.3-1.4-0.6-2.8-0.9-4.1
			c-0.1-0.3-0.2-0.7-0.2-1c-0.4-1.3-0.7-2.7-1.2-4c-0.1-0.3-0.2-0.6-0.3-0.9c-0.4-1.3-0.9-2.6-1.4-3.9c-0.1-0.3-0.2-0.6-0.4-0.9
			c-0.5-1.3-1-2.5-1.6-3.7c-0.1-0.3-0.3-0.6-0.4-0.9c-0.6-1.2-1.2-2.4-1.8-3.6c-0.2-0.3-0.3-0.6-0.5-0.9c-0.7-1.2-1.3-2.3-2.1-3.5
			c-0.2-0.3-0.3-0.6-0.5-0.8c-0.7-1.1-1.5-2.3-2.3-3.4c-0.2-0.3-0.4-0.5-0.6-0.8c-0.8-1.1-1.6-2.2-2.5-3.2c-0.2-0.3-0.4-0.5-0.6-0.8
			c-0.9-1.1-1.8-2.1-2.7-3.1c-0.2-0.2-0.5-0.5-0.7-0.7c-1-1-1.9-2-3-3c-0.2-0.2-0.5-0.5-0.7-0.7c-1-1-2.1-1.9-3.2-2.8
			c-0.3-0.2-0.5-0.4-0.8-0.7c-1.1-0.9-2.3-1.8-3.5-2.7c-0.3-0.2-0.6-0.4-0.9-0.6c-1.2-0.9-2.5-1.7-3.8-2.5c-0.3-0.2-0.6-0.4-0.9-0.6
			c-1.3-0.8-2.7-1.6-4.1-2.3c-0.3-0.2-0.7-0.4-1-0.5c-1.5-0.7-2.9-1.5-4.4-2.1c-0.4-0.2-0.7-0.3-1.1-0.5c-1.6-0.7-3.2-1.3-4.9-1.9
			c-0.4-0.1-0.8-0.3-1.2-0.4c-1.8-0.6-3.6-1.1-5.4-1.6c-0.5-0.1-0.9-0.2-1.4-0.3c-2-0.5-4-0.9-6.1-1.2c-0.5-0.1-1-0.2-1.6-0.2
			c-2.3-0.3-4.6-0.5-7-0.6c-0.6,0-1.2-0.1-1.8-0.1c-0.7,0-1.3,0-2,0c-9.7,0-19,1.7-27.6,4.8c-0.3,0.1-0.7,0.2-1,0.4
			c-12,4.5-22.6,11.8-31.1,21.1C16.5,49.2,8.5,68.4,8.5,89.4c0,43.7,34.6,79.2,77.8,80.9c0.3,0,0.7,0,1,0c0.2,0,0.5,0,0.7,0
			c0.4,0,0.7,0,1.1,0h0.3c1,0,1.9,0,2.8-0.1c0,0,0,0,0,0c0.3,0,0.7,0,1,0c0.3,0,0.5,0,0.8,0c0.3,0,0.6,0,0.9-0.1
			c29-2,53.8-19.3,66.4-43.9c2.5-5,4.6-10.2,6.1-15.7L167.8,109.5z"/>
		<radialGradient id="SVGID_2_" cx="88.4892" cy="88.2878" r="62.0082" gradientUnits="userSpaceOnUse">
			<stop  offset="6.282720e-02" style="stop-color:#FFD622"/>
			<stop  offset="0.1136" style="stop-color:#FFDD45"/>
			<stop  offset="0.1861" style="stop-color:#FFE570"/>
			<stop  offset="0.2643" style="stop-color:#FFEC97"/>
			<stop  offset="0.3473" style="stop-color:#FFF2B7"/>
			<stop  offset="0.4363" style="stop-color:#FFF7D1"/>
			<stop  offset="0.5337" style="stop-color:#FFFAE6"/>
			<stop  offset="0.6439" style="stop-color:#FFFDF4"/>
			<stop  offset="0.7776" style="stop-color:#FFFFFC"/>
			<stop  offset="1" style="stop-color:#FFFFFF"/>
		</radialGradient>
		<circle fill="url(#SVGID_2_)" cx="88.5" cy="88.3" r="62"/>
		<linearGradient id="SVGID_3_" gradientUnits="userSpaceOnUse" x1="137.2261" y1="130.4768" x2="111.0828" y2="156.8644">
			<stop  offset="0" style="stop-color:#97D457"/>
			<stop  offset="0.384" style="stop-color:#99D258"/>
			<stop  offset="0.5551" style="stop-color:#A0CD5B"/>
			<stop  offset="0.6839" style="stop-color:#ADC361"/>
			<stop  offset="0.7915" style="stop-color:#BFB669"/>
			<stop  offset="0.8859" style="stop-color:#D6A473"/>
			<stop  offset="0.9698" style="stop-color:#F38E80"/>
			<stop  offset="1" style="stop-color:#FF8585"/>
		</linearGradient>
		<path fill="url(#SVGID_3_)" d="M129.7,150.2c-5.2,5.2-12.2,7.5-18.9,6.9c-0.6-6.8,1.7-13.7,6.9-18.9c5.2-5.2,12.2-7.5,18.9-6.9
			C137.2,138,134.9,145,129.7,150.2z"/>
		<linearGradient id="SVGID_4_" gradientUnits="userSpaceOnUse" x1="39.9746" y1="131.5093" x2="65.1403" y2="156.4306">
			<stop  offset="0" style="stop-color:#97D457"/>
			<stop  offset="0.384" style="stop-color:#99D258"/>
			<stop  offset="0.5551" style="stop-color:#A0CD5B"/>
			<stop  offset="0.6839" style="stop-color:#ADC361"/>
			<stop  offset="0.7915" style="stop-color:#BFB669"/>
			<stop  offset="0.8859" style="stop-color:#D6A473"/>
			<stop  offset="0.9698" style="stop-color:#F38E80"/>
			<stop  offset="1" style="stop-color:#FF8585"/>
		</linearGradient>
		<path fill="url(#SVGID_4_)" d="M46.7,150.2c5.2,5.2,12.2,7.5,18.9,6.9c0.6-6.8-1.7-13.7-6.9-18.9c-5.2-5.2-12.2-7.5-18.9-6.9
			C39.3,138,41.6,145,46.7,150.2z"/>
		<g>
			<linearGradient id="SVGID_5_" gradientUnits="userSpaceOnUse" x1="129.3474" y1="123.3273" x2="152.6214" y2="100.0533">
				<stop  offset="0" style="stop-color:#4A4A4A"/>
				<stop  offset="0.3353" style="stop-color:#4C4B4B"/>
				<stop  offset="0.4846" style="stop-color:#534D4D"/>
				<stop  offset="0.5971" style="stop-color:#605151"/>
				<stop  offset="0.6911" style="stop-color:#725757"/>
				<stop  offset="0.7736" style="stop-color:#895F5F"/>
				<stop  offset="0.848" style="stop-color:#A66868"/>
				<stop  offset="0.9163" style="stop-color:#C97373"/>
				<stop  offset="0.9781" style="stop-color:#EF8080"/>
				<stop  offset="1" style="stop-color:#FF8585"/>
			</linearGradient>
			<path fill="url(#SVGID_5_)" d="M124,125.7c-1.2,0-2.2-1-2.2-2.2s1-2.2,2.2-2.2c12.6,0,22.9-10.3,22.9-22.9c0-1.2,1-2.2,2.2-2.2
				c1.2,0,2.2,1,2.2,2.2C151.3,113.4,139.1,125.7,124,125.7z"/>
		</g>
		<g>
			<linearGradient id="SVGID_6_" gradientUnits="userSpaceOnUse" x1="111.9211" y1="134.3655" x2="131.0511" y2="115.2355">
				<stop  offset="0" style="stop-color:#4A4A4A"/>
				<stop  offset="0.3353" style="stop-color:#4C4B4B"/>
				<stop  offset="0.4846" style="stop-color:#534D4D"/>
				<stop  offset="0.5971" style="stop-color:#605151"/>
				<stop  offset="0.6911" style="stop-color:#725757"/>
				<stop  offset="0.7736" style="stop-color:#895F5F"/>
				<stop  offset="0.848" style="stop-color:#A66868"/>
				<stop  offset="0.9163" style="stop-color:#C97373"/>
				<stop  offset="0.9781" style="stop-color:#EF8080"/>
				<stop  offset="1" style="stop-color:#FF8585"/>
			</linearGradient>
			<path fill="url(#SVGID_6_)" d="M106.7,138c-1.2,0-2.2-1-2.2-2.2c0-1.2,1-2.2,2.2-2.2c8.9,0,16.2-7.3,16.2-16.2
				c0-1.2,1-2.2,2.2-2.2c1.2,0,2.2,1,2.2,2.2C127.3,128.8,118,138,106.7,138z"/>
		</g>
		<g>
			<linearGradient id="SVGID_7_" gradientUnits="userSpaceOnUse" x1="98.7229" y1="142.7905" x2="109.0764" y2="132.4369">
				<stop  offset="0" style="stop-color:#4A4A4A"/>
				<stop  offset="0.3353" style="stop-color:#4C4B4B"/>
				<stop  offset="0.4846" style="stop-color:#534D4D"/>
				<stop  offset="0.5971" style="stop-color:#605151"/>
				<stop  offset="0.6911" style="stop-color:#725757"/>
				<stop  offset="0.7736" style="stop-color:#895F5F"/>
				<stop  offset="0.848" style="stop-color:#A66868"/>
				<stop  offset="0.9163" style="stop-color:#C97373"/>
				<stop  offset="0.9781" style="stop-color:#EF8080"/>
				<stop  offset="1" style="stop-color:#FF8585"/>
			</linearGradient>
			<path fill="url(#SVGID_7_)" d="M97.7,144.2c-1.2,0-2.2-1-2.2-2.2c0-1.2,1-2.2,2.2-2.2c3.8,0,6.8-3.1,6.8-6.8c0-1.2,1-2.2,2.2-2.2
				c1.2,0,2.2,1,2.2,2.2C108.9,139.1,103.9,144.2,97.7,144.2z"/>
		</g>
		<g>
			<linearGradient id="SVGID_8_" gradientUnits="userSpaceOnUse" x1="122.074" y1="131.6702" x2="107.411" y2="117.0073">
				<stop  offset="0" style="stop-color:#4A4A4A"/>
				<stop  offset="0.3353" style="stop-color:#4C4B4B"/>
				<stop  offset="0.4846" style="stop-color:#534D4D"/>
				<stop  offset="0.5971" style="stop-color:#605151"/>
				<stop  offset="0.6911" style="stop-color:#725757"/>
				<stop  offset="0.7736" style="stop-color:#895F5F"/>
				<stop  offset="0.848" style="stop-color:#A66868"/>
				<stop  offset="0.9163" style="stop-color:#C97373"/>
				<stop  offset="0.9781" style="stop-color:#EF8080"/>
				<stop  offset="1" style="stop-color:#FF8585"/>
			</linearGradient>
			<path fill="url(#SVGID_8_)" d="M121.5,130.6c-8.4,0-15.1-6.8-15.1-15.1c0-1.2,1-2.2,2.2-2.2c1.2,0,2.2,1,2.2,2.2
				c0,5.9,4.8,10.8,10.8,10.8c1.2,0,2.2,1,2.2,2.2C123.7,129.6,122.7,130.6,121.5,130.6z"/>
		</g>
		<g>
			
				<linearGradient id="SVGID_9_" gradientUnits="userSpaceOnUse" x1="-905.6125" y1="123.3273" x2="-882.3381" y2="100.053" gradientTransform="matrix(-1 0 0 1 -857.9818 0)">
				<stop  offset="0" style="stop-color:#4A4A4A"/>
				<stop  offset="0.3353" style="stop-color:#4C4B4B"/>
				<stop  offset="0.4846" style="stop-color:#534D4D"/>
				<stop  offset="0.5971" style="stop-color:#605151"/>
				<stop  offset="0.6911" style="stop-color:#725757"/>
				<stop  offset="0.7736" style="stop-color:#895F5F"/>
				<stop  offset="0.848" style="stop-color:#A66868"/>
				<stop  offset="0.9163" style="stop-color:#C97373"/>
				<stop  offset="0.9781" style="stop-color:#EF8080"/>
				<stop  offset="1" style="stop-color:#FF8585"/>
			</linearGradient>
			<path fill="url(#SVGID_9_)" d="M53,125.7c1.2,0,2.2-1,2.2-2.2s-1-2.2-2.2-2.2c-12.6,0-22.9-10.3-22.9-22.9c0-1.2-1-2.2-2.2-2.2
				c-1.2,0-2.2,1-2.2,2.2C25.7,113.4,37.9,125.7,53,125.7z"/>
		</g>
		<g>
			
				<linearGradient id="SVGID_10_" gradientUnits="userSpaceOnUse" x1="-923.0383" y1="134.3655" x2="-903.9087" y2="115.2359" gradientTransform="matrix(-1 0 0 1 -857.9818 0)">
				<stop  offset="0" style="stop-color:#4A4A4A"/>
				<stop  offset="0.3353" style="stop-color:#4C4B4B"/>
				<stop  offset="0.4846" style="stop-color:#534D4D"/>
				<stop  offset="0.5971" style="stop-color:#605151"/>
				<stop  offset="0.6911" style="stop-color:#725757"/>
				<stop  offset="0.7736" style="stop-color:#895F5F"/>
				<stop  offset="0.848" style="stop-color:#A66868"/>
				<stop  offset="0.9163" style="stop-color:#C97373"/>
				<stop  offset="0.9781" style="stop-color:#EF8080"/>
				<stop  offset="1" style="stop-color:#FF8585"/>
			</linearGradient>
			<path fill="url(#SVGID_10_)" d="M70.3,138c1.2,0,2.2-1,2.2-2.2c0-1.2-1-2.2-2.2-2.2c-8.9,0-16.2-7.3-16.2-16.2
				c0-1.2-1-2.2-2.2-2.2c-1.2,0-2.2,1-2.2,2.2C49.7,128.8,58.9,138,70.3,138z"/>
		</g>
		<g>
			
				<linearGradient id="SVGID_11_" gradientUnits="userSpaceOnUse" x1="-936.2366" y1="142.7903" x2="-925.8834" y2="132.4371" gradientTransform="matrix(-1 0 0 1 -857.9818 0)">
				<stop  offset="0" style="stop-color:#4A4A4A"/>
				<stop  offset="0.3353" style="stop-color:#4C4B4B"/>
				<stop  offset="0.4846" style="stop-color:#534D4D"/>
				<stop  offset="0.5971" style="stop-color:#605151"/>
				<stop  offset="0.6911" style="stop-color:#725757"/>
				<stop  offset="0.7736" style="stop-color:#895F5F"/>
				<stop  offset="0.848" style="stop-color:#A66868"/>
				<stop  offset="0.9163" style="stop-color:#C97373"/>
				<stop  offset="0.9781" style="stop-color:#EF8080"/>
				<stop  offset="1" style="stop-color:#FF8585"/>
			</linearGradient>
			<path fill="url(#SVGID_11_)" d="M79.3,144.2c1.2,0,2.2-1,2.2-2.2c0-1.2-1-2.2-2.2-2.2c-3.8,0-6.8-3.1-6.8-6.8
				c0-1.2-1-2.2-2.2-2.2c-1.2,0-2.2,1-2.2,2.2C68.1,139.1,73.1,144.2,79.3,144.2z"/>
		</g>
		<g>
			
				<linearGradient id="SVGID_12_" gradientUnits="userSpaceOnUse" x1="-912.8854" y1="131.6704" x2="-927.5488" y2="117.0071" gradientTransform="matrix(-1 0 0 1 -857.9818 0)">
				<stop  offset="0" style="stop-color:#4A4A4A"/>
				<stop  offset="0.3353" style="stop-color:#4C4B4B"/>
				<stop  offset="0.4846" style="stop-color:#534D4D"/>
				<stop  offset="0.5971" style="stop-color:#605151"/>
				<stop  offset="0.6911" style="stop-color:#725757"/>
				<stop  offset="0.7736" style="stop-color:#895F5F"/>
				<stop  offset="0.848" style="stop-color:#A66868"/>
				<stop  offset="0.9163" style="stop-color:#C97373"/>
				<stop  offset="0.9781" style="stop-color:#EF8080"/>
				<stop  offset="1" style="stop-color:#FF8585"/>
			</linearGradient>
			<path fill="url(#SVGID_12_)" d="M55.5,130.6c8.4,0,15.1-6.8,15.1-15.1c0-1.2-1-2.2-2.2-2.2c-1.2,0-2.2,1-2.2,2.2
				c0,5.9-4.8,10.8-10.8,10.8c-1.2,0-2.2,1-2.2,2.2C53.3,129.6,54.3,130.6,55.5,130.6z"/>
		</g>
		<linearGradient id="SVGID_13_" gradientUnits="userSpaceOnUse" x1="88.489" y1="134.0429" x2="88.489" y2="172.6476">
			<stop  offset="0" style="stop-color:#97D457"/>
			<stop  offset="0.384" style="stop-color:#99D258"/>
			<stop  offset="0.5551" style="stop-color:#A0CD5B"/>
			<stop  offset="0.6839" style="stop-color:#ADC361"/>
			<stop  offset="0.7915" style="stop-color:#BFB669"/>
			<stop  offset="0.8859" style="stop-color:#D6A473"/>
			<stop  offset="0.9698" style="stop-color:#F38E80"/>
			<stop  offset="1" style="stop-color:#FF8585"/>
		</linearGradient>
		<path fill="url(#SVGID_13_)" d="M120.6,164.1c-7.9,3.3-16.5,5.4-25.5,6c-0.3,0-0.6,0-0.9,0.1c-0.3,0-0.5,0-0.8,0c-0.3,0-0.7,0-1,0
			c0,0,0,0,0,0c-0.9,0-1.9,0.1-2.8,0.1h-0.3c-0.4,0-0.7,0-1.1,0c-0.2,0-0.5,0-0.7,0c-0.3,0-0.7,0-1,0c-10.7-0.4-20.9-2.9-30.2-7.1
			c-0.6-2.7-0.1-5.4,0.3-6.5c3.1-10.3,16-18.1,31.5-18.3c0.2,0,0.4,0,0.6,0c0.2,0,0.4,0,0.6,0c15.5,0.2,28.3,8,31.5,18.3
			C121,157.9,121.5,161.1,120.6,164.1z"/>
		<g>
			<linearGradient id="SVGID_14_" gradientUnits="userSpaceOnUse" x1="79.786" y1="136.4858" x2="79.786" y2="99.7778">
				<stop  offset="0" style="stop-color:#4A4A4A"/>
				<stop  offset="0.3353" style="stop-color:#4C4B4B"/>
				<stop  offset="0.4846" style="stop-color:#534D4D"/>
				<stop  offset="0.5971" style="stop-color:#605151"/>
				<stop  offset="0.6911" style="stop-color:#725757"/>
				<stop  offset="0.7736" style="stop-color:#895F5F"/>
				<stop  offset="0.848" style="stop-color:#A66868"/>
				<stop  offset="0.9163" style="stop-color:#C97373"/>
				<stop  offset="0.9781" style="stop-color:#EF8080"/>
				<stop  offset="1" style="stop-color:#FF8585"/>
			</linearGradient>
			<path fill="url(#SVGID_14_)" d="M79.8,145.6c-1.2,0-2.2-1-2.2-2.2v-38.9c0-1.2,1-2.2,2.2-2.2c1.2,0,2.2,1,2.2,2.2v38.9
				C82,144.6,81,145.6,79.8,145.6z"/>
		</g>
		<g>
			<linearGradient id="SVGID_15_" gradientUnits="userSpaceOnUse" x1="97.1918" y1="136.4858" x2="97.1918" y2="99.7778">
				<stop  offset="0" style="stop-color:#4A4A4A"/>
				<stop  offset="0.3353" style="stop-color:#4C4B4B"/>
				<stop  offset="0.4846" style="stop-color:#534D4D"/>
				<stop  offset="0.5971" style="stop-color:#605151"/>
				<stop  offset="0.6911" style="stop-color:#725757"/>
				<stop  offset="0.7736" style="stop-color:#895F5F"/>
				<stop  offset="0.848" style="stop-color:#A66868"/>
				<stop  offset="0.9163" style="stop-color:#C97373"/>
				<stop  offset="0.9781" style="stop-color:#EF8080"/>
				<stop  offset="1" style="stop-color:#FF8585"/>
			</linearGradient>
			<path fill="url(#SVGID_15_)" d="M97.2,145.6c-1.2,0-2.2-1-2.2-2.2v-38.9c0-1.2,1-2.2,2.2-2.2c1.2,0,2.2,1,2.2,2.2v38.9
				C99.4,144.6,98.4,145.6,97.2,145.6z"/>
		</g>
		<g>
			<linearGradient id="SVGID_16_" gradientUnits="userSpaceOnUse" x1="88.4903" y1="105.945" x2="88.4903" y2="69.7546">
				<stop  offset="0" style="stop-color:#4A4A4A"/>
				<stop  offset="0.3353" style="stop-color:#4C4B4B"/>
				<stop  offset="0.4846" style="stop-color:#534D4D"/>
				<stop  offset="0.5971" style="stop-color:#605151"/>
				<stop  offset="0.6911" style="stop-color:#725757"/>
				<stop  offset="0.7736" style="stop-color:#895F5F"/>
				<stop  offset="0.848" style="stop-color:#A66868"/>
				<stop  offset="0.9163" style="stop-color:#C97373"/>
				<stop  offset="0.9781" style="stop-color:#EF8080"/>
				<stop  offset="1" style="stop-color:#FF8585"/>
			</linearGradient>
			<path fill="url(#SVGID_16_)" d="M103.8,108.5c-0.1,0-0.2,0-0.3,0c-5.3-0.8-10.4-2.8-14.9-5.8c-4.5,3-9.6,5-14.9,5.8
				c-1.2,0.2-2.3-0.6-2.5-1.8c-0.2-1.2,0.6-2.3,1.8-2.5c4.1-0.6,8.1-2.1,11.7-4.2c0,0,0,0,0,0c-6.1-4.2-12.3-8.6-12.3-17.2
				c0-5.1,4.1-9.2,9.2-9.2c2.8,0,5.3,1.3,7,3.2c1.7-2,4.2-3.2,7-3.2c5.1,0,9.2,4.1,9.2,9.2c0,8.6-6,12.7-12.3,17.2c0,0,0,0-0.1,0
				c3.6,2.1,7.6,3.6,11.7,4.2c1.2,0.2,2,1.3,1.8,2.5C105.8,107.7,104.8,108.5,103.8,108.5z M81.4,77.9c-2.7,0-4.8,2.2-4.8,4.8
				c0,6.2,4.8,9.6,10.5,13.6c0.5,0.3,0.9,0.7,1.4,1c0.5-0.3,1-0.7,1.4-1c5.8-4.1,10.4-7.3,10.4-13.5c0-2.7-2.2-4.8-4.8-4.8
				c-2.7,0-4.8,2.2-4.8,4.8c0,1.2-1,2.2-2.2,2.2c-1.2,0-2.2-1-2.2-2.2C86.3,80,84.1,77.9,81.4,77.9z"/>
		</g>
		<g>
			<linearGradient id="SVGID_17_" gradientUnits="userSpaceOnUse" x1="127.4828" y1="68.6446" x2="127.4828" y2="42.4805">
				<stop  offset="0" style="stop-color:#4A4A4A"/>
				<stop  offset="0.3353" style="stop-color:#4C4B4B"/>
				<stop  offset="0.4846" style="stop-color:#534D4D"/>
				<stop  offset="0.5971" style="stop-color:#605151"/>
				<stop  offset="0.6911" style="stop-color:#725757"/>
				<stop  offset="0.7736" style="stop-color:#895F5F"/>
				<stop  offset="0.848" style="stop-color:#A66868"/>
				<stop  offset="0.9163" style="stop-color:#C97373"/>
				<stop  offset="0.9781" style="stop-color:#EF8080"/>
				<stop  offset="1" style="stop-color:#FF8585"/>
			</linearGradient>
			<path fill="url(#SVGID_17_)" d="M117.2,67.3c-1.2,0-2.2-1-2.2-2.2c0-1.2,1-2.2,2.2-2.2c10.1,0,18.4-8.2,18.4-18.4
				c0-1.2,1-2.2,2.2-2.2c1.2,0,2.2,1,2.2,2.2C140,57.1,129.8,67.3,117.2,67.3z"/>
		</g>
		<g>
			<linearGradient id="SVGID_18_" gradientUnits="userSpaceOnUse" x1="101.2114" y1="67.9516" x2="101.2114" y2="51.7964">
				<stop  offset="0" style="stop-color:#4A4A4A"/>
				<stop  offset="0.3353" style="stop-color:#4C4B4B"/>
				<stop  offset="0.4846" style="stop-color:#534D4D"/>
				<stop  offset="0.5971" style="stop-color:#605151"/>
				<stop  offset="0.6911" style="stop-color:#725757"/>
				<stop  offset="0.7736" style="stop-color:#895F5F"/>
				<stop  offset="0.848" style="stop-color:#A66868"/>
				<stop  offset="0.9163" style="stop-color:#C97373"/>
				<stop  offset="0.9781" style="stop-color:#EF8080"/>
				<stop  offset="1" style="stop-color:#FF8585"/>
			</linearGradient>
			<path fill="url(#SVGID_18_)" d="M105.7,63.3c-6.2,0-11.2-5-11.2-11.2c0-1.2,1-2.2,2.2-2.2c1.2,0,2.2,1,2.2,2.2
				c0,3.8,3.1,6.8,6.8,6.8c1.2,0,2.2,1,2.2,2.2C107.9,62.3,106.9,63.3,105.7,63.3z"/>
		</g>
		<g>
			<linearGradient id="SVGID_19_" gradientUnits="userSpaceOnUse" x1="120.2055" y1="89.9411" x2="120.2055" y2="55.1211">
				<stop  offset="0" style="stop-color:#4A4A4A"/>
				<stop  offset="0.3353" style="stop-color:#4C4B4B"/>
				<stop  offset="0.4846" style="stop-color:#534D4D"/>
				<stop  offset="0.5971" style="stop-color:#605151"/>
				<stop  offset="0.6911" style="stop-color:#725757"/>
				<stop  offset="0.7736" style="stop-color:#895F5F"/>
				<stop  offset="0.848" style="stop-color:#A66868"/>
				<stop  offset="0.9163" style="stop-color:#C97373"/>
				<stop  offset="0.9781" style="stop-color:#EF8080"/>
				<stop  offset="1" style="stop-color:#FF8585"/>
			</linearGradient>
			<path fill="url(#SVGID_19_)" d="M134.7,88.3c-17.2,0-31.2-14-31.2-31.2c0-1.2,1-2.2,2.2-2.2c1.2,0,2.2,1,2.2,2.2
				c0,14.8,12,26.8,26.8,26.8c1.2,0,2.2,1,2.2,2.2C136.9,87.3,135.9,88.3,134.7,88.3z"/>
		</g>
		<g>
			<linearGradient id="SVGID_20_" gradientUnits="userSpaceOnUse" x1="108.371" y1="120.7672" x2="108.371" y2="93.6635">
				<stop  offset="0" style="stop-color:#4A4A4A"/>
				<stop  offset="0.3353" style="stop-color:#4C4B4B"/>
				<stop  offset="0.4846" style="stop-color:#534D4D"/>
				<stop  offset="0.5971" style="stop-color:#605151"/>
				<stop  offset="0.6911" style="stop-color:#725757"/>
				<stop  offset="0.7736" style="stop-color:#895F5F"/>
				<stop  offset="0.848" style="stop-color:#A66868"/>
				<stop  offset="0.9163" style="stop-color:#C97373"/>
				<stop  offset="0.9781" style="stop-color:#EF8080"/>
				<stop  offset="1" style="stop-color:#FF8585"/>
			</linearGradient>
			<path fill="url(#SVGID_20_)" d="M97.7,119.6c-1.2,0-2.2-1-2.2-2.2c0-1.2,1-2.2,2.2-2.2c10.6,0,19.2-8.6,19.2-19.2
				c0-1.2,1-2.2,2.2-2.2c1.2,0,2.2,1,2.2,2.2C121.3,109,110.7,119.6,97.7,119.6z"/>
		</g>
		<g>
			<linearGradient id="SVGID_21_" gradientUnits="userSpaceOnUse" x1="136.1454" y1="102.2797" x2="136.1454" y2="62.2781">
				<stop  offset="0" style="stop-color:#4A4A4A"/>
				<stop  offset="0.3353" style="stop-color:#4C4B4B"/>
				<stop  offset="0.4846" style="stop-color:#534D4D"/>
				<stop  offset="0.5971" style="stop-color:#605151"/>
				<stop  offset="0.6911" style="stop-color:#725757"/>
				<stop  offset="0.7736" style="stop-color:#895F5F"/>
				<stop  offset="0.848" style="stop-color:#A66868"/>
				<stop  offset="0.9163" style="stop-color:#C97373"/>
				<stop  offset="0.9781" style="stop-color:#EF8080"/>
				<stop  offset="1" style="stop-color:#FF8585"/>
			</linearGradient>
			<path fill="url(#SVGID_21_)" d="M119.1,101.9c-1.2,0-2.2-1-2.2-2.2c0-1.2,1-2.2,2.2-2.2c17.6,0,31.9-14.3,31.9-31.9
				c0-1.2,1-2.2,2.2-2.2c1.2,0,2.2,1,2.2,2.2C155.4,85.6,139.1,101.9,119.1,101.9z"/>
		</g>
		<g>
			<linearGradient id="SVGID_22_" gradientUnits="userSpaceOnUse" x1="137.9442" y1="91.5296" x2="137.9442" y2="78.2044">
				<stop  offset="0" style="stop-color:#4A4A4A"/>
				<stop  offset="0.3353" style="stop-color:#4C4B4B"/>
				<stop  offset="0.4846" style="stop-color:#534D4D"/>
				<stop  offset="0.5971" style="stop-color:#605151"/>
				<stop  offset="0.6911" style="stop-color:#725757"/>
				<stop  offset="0.7736" style="stop-color:#895F5F"/>
				<stop  offset="0.848" style="stop-color:#A66868"/>
				<stop  offset="0.9163" style="stop-color:#C97373"/>
				<stop  offset="0.9781" style="stop-color:#EF8080"/>
				<stop  offset="1" style="stop-color:#FF8585"/>
			</linearGradient>
			<path fill="url(#SVGID_22_)" d="M142.5,92.7c-6.2,0-11.2-5-11.2-11.2c0-1.2,1-2.2,2.2-2.2c1.2,0,2.2,1,2.2,2.2
				c0,3.8,3.1,6.8,6.8,6.8c1.2,0,2.2,1,2.2,2.2C144.7,91.7,143.7,92.7,142.5,92.7z"/>
		</g>
		<g>
			<linearGradient id="SVGID_23_" gradientUnits="userSpaceOnUse" x1="113.581" y1="73.9385" x2="113.581" y2="59.4309">
				<stop  offset="0" style="stop-color:#4A4A4A"/>
				<stop  offset="0.3353" style="stop-color:#4C4B4B"/>
				<stop  offset="0.4846" style="stop-color:#534D4D"/>
				<stop  offset="0.5971" style="stop-color:#605151"/>
				<stop  offset="0.6911" style="stop-color:#725757"/>
				<stop  offset="0.7736" style="stop-color:#895F5F"/>
				<stop  offset="0.848" style="stop-color:#A66868"/>
				<stop  offset="0.9163" style="stop-color:#C97373"/>
				<stop  offset="0.9781" style="stop-color:#EF8080"/>
				<stop  offset="1" style="stop-color:#FF8585"/>
			</linearGradient>
			<path fill="url(#SVGID_23_)" d="M109.1,72.3c-1.2,0-2.2-1-2.2-2.2s1-2.2,2.2-2.2c3.8,0,6.8-3.1,6.8-6.8c0-1.2,1-2.2,2.2-2.2
				c1.2,0,2.2,1,2.2,2.2C120.3,67.3,115.3,72.3,109.1,72.3z"/>
		</g>
		<g>
			
				<linearGradient id="SVGID_24_" gradientUnits="userSpaceOnUse" x1="-907.4768" y1="68.6446" x2="-907.4768" y2="42.4805" gradientTransform="matrix(-1 0 0 1 -857.9818 0)">
				<stop  offset="0" style="stop-color:#4A4A4A"/>
				<stop  offset="0.3353" style="stop-color:#4C4B4B"/>
				<stop  offset="0.4846" style="stop-color:#534D4D"/>
				<stop  offset="0.5971" style="stop-color:#605151"/>
				<stop  offset="0.6911" style="stop-color:#725757"/>
				<stop  offset="0.7736" style="stop-color:#895F5F"/>
				<stop  offset="0.848" style="stop-color:#A66868"/>
				<stop  offset="0.9163" style="stop-color:#C97373"/>
				<stop  offset="0.9781" style="stop-color:#EF8080"/>
				<stop  offset="1" style="stop-color:#FF8585"/>
			</linearGradient>
			<path fill="url(#SVGID_24_)" d="M59.8,67.3c1.2,0,2.2-1,2.2-2.2c0-1.2-1-2.2-2.2-2.2c-10.1,0-18.4-8.2-18.4-18.4
				c0-1.2-1-2.2-2.2-2.2c-1.2,0-2.2,1-2.2,2.2C37,57.1,47.2,67.3,59.8,67.3z"/>
		</g>
		<g>
			
				<linearGradient id="SVGID_25_" gradientUnits="userSpaceOnUse" x1="-933.7479" y1="67.9516" x2="-933.7479" y2="51.7964" gradientTransform="matrix(-1 0 0 1 -857.9818 0)">
				<stop  offset="0" style="stop-color:#4A4A4A"/>
				<stop  offset="0.3353" style="stop-color:#4C4B4B"/>
				<stop  offset="0.4846" style="stop-color:#534D4D"/>
				<stop  offset="0.5971" style="stop-color:#605151"/>
				<stop  offset="0.6911" style="stop-color:#725757"/>
				<stop  offset="0.7736" style="stop-color:#895F5F"/>
				<stop  offset="0.848" style="stop-color:#A66868"/>
				<stop  offset="0.9163" style="stop-color:#C97373"/>
				<stop  offset="0.9781" style="stop-color:#EF8080"/>
				<stop  offset="1" style="stop-color:#FF8585"/>
			</linearGradient>
			<path fill="url(#SVGID_25_)" d="M71.2,63.3c6.2,0,11.2-5,11.2-11.2c0-1.2-1-2.2-2.2-2.2c-1.2,0-2.2,1-2.2,2.2
				c0,3.8-3.1,6.8-6.8,6.8c-1.2,0-2.2,1-2.2,2.2C69,62.3,70,63.3,71.2,63.3z"/>
		</g>
		<g>
			
				<linearGradient id="SVGID_26_" gradientUnits="userSpaceOnUse" x1="-914.7537" y1="89.9411" x2="-914.7537" y2="55.1211" gradientTransform="matrix(-1 0 0 1 -857.9818 0)">
				<stop  offset="0" style="stop-color:#4A4A4A"/>
				<stop  offset="0.3353" style="stop-color:#4C4B4B"/>
				<stop  offset="0.4846" style="stop-color:#534D4D"/>
				<stop  offset="0.5971" style="stop-color:#605151"/>
				<stop  offset="0.6911" style="stop-color:#725757"/>
				<stop  offset="0.7736" style="stop-color:#895F5F"/>
				<stop  offset="0.848" style="stop-color:#A66868"/>
				<stop  offset="0.9163" style="stop-color:#C97373"/>
				<stop  offset="0.9781" style="stop-color:#EF8080"/>
				<stop  offset="1" style="stop-color:#FF8585"/>
			</linearGradient>
			<path fill="url(#SVGID_26_)" d="M42.3,88.3c17.2,0,31.1-14,31.1-31.2c0-1.2-1-2.2-2.2-2.2c-1.2,0-2.2,1-2.2,2.2
				c0,14.8-12,26.8-26.8,26.8c-1.2,0-2.2,1-2.2,2.2C40.1,87.3,41.1,88.3,42.3,88.3z"/>
		</g>
		<g>
			
				<linearGradient id="SVGID_27_" gradientUnits="userSpaceOnUse" x1="-926.5882" y1="120.7672" x2="-926.5882" y2="93.6635" gradientTransform="matrix(-1 0 0 1 -857.9818 0)">
				<stop  offset="0" style="stop-color:#4A4A4A"/>
				<stop  offset="0.3353" style="stop-color:#4C4B4B"/>
				<stop  offset="0.4846" style="stop-color:#534D4D"/>
				<stop  offset="0.5971" style="stop-color:#605151"/>
				<stop  offset="0.6911" style="stop-color:#725757"/>
				<stop  offset="0.7736" style="stop-color:#895F5F"/>
				<stop  offset="0.848" style="stop-color:#A66868"/>
				<stop  offset="0.9163" style="stop-color:#C97373"/>
				<stop  offset="0.9781" style="stop-color:#EF8080"/>
				<stop  offset="1" style="stop-color:#FF8585"/>
			</linearGradient>
			<path fill="url(#SVGID_27_)" d="M79.3,119.6c1.2,0,2.2-1,2.2-2.2c0-1.2-1-2.2-2.2-2.2c-10.6,0-19.2-8.6-19.2-19.2
				c0-1.2-1-2.2-2.2-2.2c-1.2,0-2.2,1-2.2,2.2C55.7,109,66.3,119.6,79.3,119.6z"/>
		</g>
		<g>
			
				<linearGradient id="SVGID_28_" gradientUnits="userSpaceOnUse" x1="-898.8148" y1="102.2797" x2="-898.8148" y2="62.2781" gradientTransform="matrix(-1 0 0 1 -857.9818 0)">
				<stop  offset="0" style="stop-color:#4A4A4A"/>
				<stop  offset="0.3353" style="stop-color:#4C4B4B"/>
				<stop  offset="0.4846" style="stop-color:#534D4D"/>
				<stop  offset="0.5971" style="stop-color:#605151"/>
				<stop  offset="0.6911" style="stop-color:#725757"/>
				<stop  offset="0.7736" style="stop-color:#895F5F"/>
				<stop  offset="0.848" style="stop-color:#A66868"/>
				<stop  offset="0.9163" style="stop-color:#C97373"/>
				<stop  offset="0.9781" style="stop-color:#EF8080"/>
				<stop  offset="1" style="stop-color:#FF8585"/>
			</linearGradient>
			<path fill="url(#SVGID_28_)" d="M57.9,101.9c1.2,0,2.2-1,2.2-2.2c0-1.2-1-2.2-2.2-2.2C40.3,97.5,26,83.2,26,65.6
				c0-1.2-1-2.2-2.2-2.2c-1.2,0-2.2,1-2.2,2.2C21.6,85.6,37.9,101.9,57.9,101.9z"/>
		</g>
		<g>
			
				<linearGradient id="SVGID_29_" gradientUnits="userSpaceOnUse" x1="-897.0154" y1="91.5296" x2="-897.0154" y2="78.2044" gradientTransform="matrix(-1 0 0 1 -857.9818 0)">
				<stop  offset="0" style="stop-color:#4A4A4A"/>
				<stop  offset="0.3353" style="stop-color:#4C4B4B"/>
				<stop  offset="0.4846" style="stop-color:#534D4D"/>
				<stop  offset="0.5971" style="stop-color:#605151"/>
				<stop  offset="0.6911" style="stop-color:#725757"/>
				<stop  offset="0.7736" style="stop-color:#895F5F"/>
				<stop  offset="0.848" style="stop-color:#A66868"/>
				<stop  offset="0.9163" style="stop-color:#C97373"/>
				<stop  offset="0.9781" style="stop-color:#EF8080"/>
				<stop  offset="1" style="stop-color:#FF8585"/>
			</linearGradient>
			<path fill="url(#SVGID_29_)" d="M34.5,92.7c6.2,0,11.2-5,11.2-11.2c0-1.2-1-2.2-2.2-2.2c-1.2,0-2.2,1-2.2,2.2
				c0,3.8-3.1,6.8-6.8,6.8c-1.2,0-2.2,1-2.2,2.2C32.3,91.7,33.3,92.7,34.5,92.7z"/>
		</g>
		<g>
			
				<linearGradient id="SVGID_30_" gradientUnits="userSpaceOnUse" x1="-921.3787" y1="73.9385" x2="-921.3787" y2="59.4309" gradientTransform="matrix(-1 0 0 1 -857.9818 0)">
				<stop  offset="0" style="stop-color:#4A4A4A"/>
				<stop  offset="0.3353" style="stop-color:#4C4B4B"/>
				<stop  offset="0.4846" style="stop-color:#534D4D"/>
				<stop  offset="0.5971" style="stop-color:#605151"/>
				<stop  offset="0.6911" style="stop-color:#725757"/>
				<stop  offset="0.7736" style="stop-color:#895F5F"/>
				<stop  offset="0.848" style="stop-color:#A66868"/>
				<stop  offset="0.9163" style="stop-color:#C97373"/>
				<stop  offset="0.9781" style="stop-color:#EF8080"/>
				<stop  offset="1" style="stop-color:#FF8585"/>
			</linearGradient>
			<path fill="url(#SVGID_30_)" d="M67.9,72.3c1.2,0,2.2-1,2.2-2.2s-1-2.2-2.2-2.2c-3.8,0-6.8-3.1-6.8-6.8c0-1.2-1-2.2-2.2-2.2
				c-1.2,0-2.2,1-2.2,2.2C56.7,67.3,61.7,72.3,67.9,72.3z"/>
		</g>
		<g>
			<circle fill="#E54360" cx="80.4" cy="45.8" r="2.8"/>
			<circle fill="#E54360" cx="71" cy="51.1" r="2.8"/>
			<circle fill="#E54360" cx="58.7" cy="54.8" r="2.8"/>
			<circle fill="#E54360" cx="39" cy="38.4" r="2.8"/>
			<circle fill="#E54360" cx="24.4" cy="59.5" r="2.8"/>
			<circle fill="#E54360" cx="43.6" cy="75.1" r="2.8"/>
			<circle fill="#E54360" cx="58" cy="89.4" r="2.8"/>
			<circle fill="#E54360" cx="27.2" cy="92.2" r="2.8"/>
			<circle fill="#E54360" cx="51.9" cy="110.9" r="2.8"/>
			<circle fill="#E54360" cx="72" cy="126.8" r="2.8"/>
		</g>
		<circle fill="#FFD622" cx="96.6" cy="45.8" r="2.8"/>
		<circle fill="#97D457" cx="106" cy="51.1" r="2.8"/>
		<circle fill="#69AAF5" cx="118.2" cy="54.8" r="2.8"/>
		<circle fill="#FF8585" cx="137.9" cy="38.4" r="2.8"/>
		<circle fill="#C273FF" cx="152.6" cy="59.5" r="2.8"/>
		<circle fill="#FF8585" cx="133.3" cy="75.1" r="2.8"/>
		<circle fill="#FFD622" cx="119" cy="89.4" r="2.8"/>
		<circle fill="#97D457" cx="149.8" cy="92.2" r="2.8"/>
		<circle fill="#69AAF5" cx="125" cy="110.9" r="2.8"/>
		<circle fill="#C273FF" cx="105" cy="126.8" r="2.8"/>
	</g>
</g>
</svg>
