<?xml version="1.0" encoding="utf-8"?>
<!-- Generator: Adobe Illustrator 17.1.0, SVG Export Plug-In . SVG Version: 6.00 Build 0)  -->
<!DOCTYPE svg PUBLIC "-//W3C//DTD SVG 1.1//EN" "http://www.w3.org/Graphics/SVG/1.1/DTD/svg11.dtd">
<svg version="1.1" xmlns="http://www.w3.org/2000/svg" xmlns:xlink="http://www.w3.org/1999/xlink" x="0px" y="0px"
	 viewBox="0 0 178.8 178.8" enable-background="new 0 0 178.8 178.8" xml:space="preserve">
<g id="圖層_2">
</g>
<g id="圖層_1">
	<g>
		<circle fill="#B5B5B6" cx="89.4" cy="89.4" r="80.9"/>
		<circle fill="#FFFFFF" cx="89.4" cy="89.4" r="89.4"/>
		<path fill="#F7F8F8" d="M170.4,89.4c0,0.4,0,0.8,0,1.2c0,0.4,0,0.8,0,1.2c0,1.6-0.1,3.2-0.3,4.8l-0.1,1.2
			c-0.2,1.7-0.4,3.4-0.7,5.1c-0.1,0.4-0.1,0.8-0.2,1.2c-0.3,1.8-0.7,3.6-1.2,5.4l-0.3,1c-1.5,5.5-3.5,10.7-6.1,15.7
			c-10.9,21.3-31.1,37.2-55.1,42.3c-3.7,0.8-7.4,1.3-11.3,1.6c-0.3,0-0.6,0-0.9,0.1c-0.3,0-0.5,0-0.8,0c-0.3,0-0.7,0-1,0.1h0
			c-0.9,0-1.9,0-2.8,0h-0.3c-0.4,0-0.7,0-1.1,0c-0.2,0-0.5,0-0.7,0c-0.4,0-0.7,0-1,0c-1.7-0.1-3.4-0.2-5.1-0.4
			c-40.8-4.1-72.7-38.6-72.7-80.5c0-21,8-40.2,21.2-54.6c8.5-9.3,19.1-16.6,31.1-21.1c0.3-0.1,0.7-0.2,1-0.4
			c8.6-3.1,17.9-4.8,27.6-4.8c0.7,0,1.3,0,2,0c0.6,0,1.2,0,1.8,0.1c2.4,0.1,4.7,0.3,7,0.6c0.5,0.1,1.1,0.1,1.6,0.2
			c2,0.3,4.1,0.7,6.1,1.2c0.5,0.1,0.9,0.2,1.4,0.3c1.8,0.5,3.6,1,5.4,1.6c0.4,0.1,0.8,0.3,1.2,0.4c1.6,0.6,3.3,1.2,4.9,1.9
			c0.4,0.2,0.8,0.3,1.1,0.5c1.5,0.7,3,1.4,4.4,2.1c0.3,0.2,0.7,0.3,1,0.5c1.4,0.7,2.7,1.5,4.1,2.3c0.3,0.2,0.6,0.4,1,0.6
			c1.3,0.8,2.5,1.6,3.8,2.5c0.3,0.2,0.6,0.4,0.9,0.6c1.2,0.9,2.3,1.8,3.5,2.7c0.3,0.2,0.5,0.4,0.8,0.7c1.1,0.9,2.2,1.9,3.2,2.8
			c0.2,0.2,0.5,0.5,0.8,0.7c1,1,2,2,3,3c0.2,0.2,0.5,0.5,0.7,0.7c0.9,1,1.8,2,2.7,3.1c0.2,0.3,0.4,0.5,0.6,0.8
			c0.9,1.1,1.7,2.1,2.5,3.2c0.2,0.3,0.4,0.5,0.6,0.8c0.8,1.1,1.5,2.2,2.3,3.4c0.2,0.3,0.4,0.6,0.5,0.8c0.7,1.1,1.4,2.3,2.1,3.5
			c0.2,0.3,0.3,0.6,0.5,0.9c0.6,1.2,1.3,2.4,1.8,3.6c0.1,0.3,0.3,0.6,0.4,0.9c0.6,1.2,1.1,2.5,1.6,3.7c0.1,0.3,0.2,0.6,0.4,0.9
			c0.5,1.3,1,2.6,1.4,3.9c0.1,0.3,0.2,0.6,0.3,0.9c0.4,1.3,0.8,2.7,1.2,4c0.1,0.3,0.2,0.7,0.2,1c0.3,1.4,0.6,2.8,0.9,4.2
			c0.1,0.3,0.1,0.7,0.2,1c0.2,1.4,0.5,2.8,0.6,4.3c0,0.4,0.1,0.7,0.1,1.1c0.2,1.5,0.3,3,0.4,4.5c0,0.4,0,0.7,0,1.1
			C170.3,87.1,170.4,88.3,170.4,89.4z"/>
		<g>
			<g>
				<path fill="#B5B5B6" d="M62.4,13.3L37,27.9c1.8-1.5,3.7-3,5.6-4.3l13.3-7.7c1.6-0.7,3.3-1.4,5-2.1c0.3-0.1,0.7-0.2,1-0.4
					C62,13.4,62.2,13.4,62.4,13.3z"/>
			</g>
			<g>
				<path fill="#B5B5B6" d="M74.4,12.2L24.9,40.7c0.5-0.7,1.1-1.4,1.6-2.1l47.4-27.3c0.2-0.1,0.5-0.1,0.7,0.2
					C74.7,11.7,74.6,12,74.4,12.2z"/>
			</g>
			<g>
				<path fill="#B5B5B6" d="M76.9,16.5L18.8,50.1c0.3-0.6,0.6-1.1,1-1.7l56.6-32.7c0.2-0.1,0.5-0.1,0.7,0.2
					C77.2,16.1,77.1,16.4,76.9,16.5z"/>
			</g>
			<g>
				<path fill="#B5B5B6" d="M79.4,20.9L14.8,58.1c0.2-0.5,0.4-1,0.7-1.5L78.9,20c0.2-0.1,0.5-0.1,0.7,0.2
					C79.7,20.4,79.7,20.7,79.4,20.9z"/>
			</g>
			<g>
				<path fill="#B5B5B6" d="M81.9,25.2L12.2,65.5c0.1-0.5,0.3-0.9,0.4-1.4l68.9-39.8c0.2-0.1,0.5-0.1,0.7,0.2
					C82.3,24.8,82.2,25.1,81.9,25.2z"/>
			</g>
			<g>
				<path fill="#B5B5B6" d="M84.5,29.6L10.4,72.3c0.1-0.4,0.2-0.9,0.3-1.3L84,28.7c0.2-0.1,0.5-0.1,0.7,0.2
					C84.8,29.1,84.7,29.4,84.5,29.6z"/>
			</g>
			<g>
				<path fill="#B5B5B6" d="M87,33.9L9.2,78.8c0-0.4,0.1-0.8,0.2-1.2l77.1-44.5c0.2-0.1,0.5-0.1,0.7,0.2
					C87.3,33.5,87.2,33.8,87,33.9z"/>
			</g>
			<g>
				<path fill="#B5B5B6" d="M89.5,38.3L8.6,84.9c0-0.4,0-0.8,0.1-1.2L89,37.4c0.2-0.1,0.5-0.1,0.7,0.2
					C89.8,37.8,89.7,38.1,89.5,38.3z"/>
			</g>
			<g>
				<path fill="#B5B5B6" d="M92,42.6L8.5,90.8c0-0.4,0-0.7,0-1.1l83-47.9c0.2-0.1,0.5-0.1,0.7,0.2C92.3,42.2,92.2,42.5,92,42.6z"/>
			</g>
			<g>
				<path fill="#B5B5B6" d="M94.5,47L8.8,96.5c0-0.4-0.1-0.7-0.1-1.1L94,46.1c0.2-0.1,0.5-0.1,0.7,0.2C94.8,46.5,94.7,46.9,94.5,47z
					"/>
			</g>
			<g>
				<path fill="#B5B5B6" d="M97,51.3L9.4,101.9c-0.1-0.3-0.1-0.7-0.2-1l87.2-50.4c0.2-0.1,0.5-0.1,0.7,0.2
					C97.3,50.9,97.3,51.2,97,51.3z"/>
			</g>
			<g>
				<path fill="#B5B5B6" d="M99.5,55.7l-89.1,51.4c-0.1-0.3-0.1-0.7-0.2-1L99,54.8c0.2-0.1,0.5-0.1,0.7,0.2
					C99.8,55.3,99.8,55.6,99.5,55.7z"/>
			</g>
			<g>
				<path fill="#B5B5B6" d="M102,60l-90.3,52.1c-0.1-0.3-0.2-0.6-0.3-1l90.1-52c0.2-0.1,0.5-0.1,0.7,0.2
					C102.4,59.6,102.3,59.9,102,60z"/>
			</g>
			<g>
				<path fill="#B5B5B6" d="M104.6,64.4l-91.2,52.7c-0.1-0.3-0.2-0.6-0.3-0.9l91.1-52.6c0.2-0.1,0.5-0.1,0.7,0.2
					C104.9,64,104.8,64.3,104.6,64.4z"/>
			</g>
			<g>
				<path fill="#B5B5B6" d="M107.1,68.8l-91.9,53c-0.1-0.3-0.3-0.6-0.4-0.9l91.8-53c0.2-0.1,0.5-0.1,0.7,0.2
					C107.4,68.3,107.3,68.6,107.1,68.8z"/>
			</g>
			<g>
				<path fill="#B5B5B6" d="M109.6,73.1l-92.2,53.3c-0.2-0.3-0.3-0.6-0.4-0.9l92.2-53.2c0.2-0.1,0.5-0.1,0.7,0.2
					C109.9,72.7,109.8,73,109.6,73.1z"/>
			</g>
			<g>
				<path fill="#B5B5B6" d="M112.1,77.5l-92.3,53.3c-0.2-0.3-0.3-0.6-0.5-0.8l92.3-53.3c0.2-0.1,0.5-0.1,0.7,0.2
					C112.4,77,112.3,77.3,112.1,77.5z"/>
			</g>
			<g>
				<path fill="#B5B5B6" d="M114.6,81.8L22.5,135c-0.2-0.3-0.4-0.5-0.5-0.8L114.1,81c0.2-0.1,0.5-0.1,0.7,0.2
					C114.9,81.4,114.8,81.7,114.6,81.8z"/>
			</g>
			<g>
				<path fill="#B5B5B6" d="M117.1,86.2l-91.7,52.9c-0.2-0.3-0.4-0.5-0.6-0.8l91.8-53c0.2-0.1,0.5-0.1,0.7,0.2
					C117.4,85.7,117.4,86,117.1,86.2z"/>
			</g>
			<g>
				<path fill="#B5B5B6" d="M119.6,90.5l-91,52.5c-0.2-0.2-0.4-0.5-0.7-0.8l91.1-52.6c0.2-0.1,0.5-0.1,0.7,0.2
					C120,90.1,119.9,90.4,119.6,90.5z"/>
			</g>
			<g>
				<path fill="#B5B5B6" d="M122.2,94.9l-89.9,51.9c-0.2-0.2-0.5-0.5-0.7-0.7L121.7,94c0.2-0.1,0.5-0.1,0.7,0.2
					C122.5,94.4,122.4,94.7,122.2,94.9z"/>
			</g>
			<g>
				<path fill="#B5B5B6" d="M124.7,99.2L36,150.4c-0.3-0.2-0.5-0.5-0.8-0.7l88.9-51.3c0.2-0.1,0.5-0.1,0.7,0.2
					C125,98.8,124.9,99.1,124.7,99.2z"/>
			</g>
			<g>
				<path fill="#B5B5B6" d="M127.2,103.6l-87,50.2c-0.3-0.2-0.6-0.4-0.8-0.6l87.3-50.4c0.2-0.1,0.5-0.1,0.7,0.2
					C127.5,103.1,127.4,103.4,127.2,103.6z"/>
			</g>
			<g>
				<path fill="#B5B5B6" d="M129.7,107.9l-85,49.1c-0.3-0.2-0.6-0.4-0.9-0.6l85.4-49.3c0.2-0.1,0.5-0.1,0.7,0.2
					C130,107.5,129.9,107.8,129.7,107.9z"/>
			</g>
			<g>
				<path fill="#B5B5B6" d="M132.2,112.3L49.6,160c-0.3-0.2-0.7-0.4-1-0.6l83.1-48c0.2-0.1,0.5-0.1,0.7,0.2
					C132.5,111.9,132.4,112.2,132.2,112.3z"/>
			</g>
			<g>
				<path fill="#B5B5B6" d="M134.7,116.6l-79.9,46.1c-0.4-0.2-0.7-0.3-1.1-0.5l80.4-46.4c0.2-0.1,0.5-0.1,0.7,0.2
					C135,116.2,135,116.5,134.7,116.6z"/>
			</g>
			<g>
				<path fill="#B5B5B6" d="M137.2,121l-76.6,44.2c-0.4-0.1-0.8-0.3-1.2-0.5l77.3-44.6c0.2-0.1,0.5-0.1,0.7,0.2
					C137.5,120.6,137.5,120.9,137.2,121z"/>
			</g>
		</g>
		<g>
			<g>
				<path fill="#B5B5B6" d="M169.2,103.1c-0.1,0.4-0.1,0.8-0.2,1.3v0l-17.8,10.3c-0.2,0.1-0.5,0.1-0.7-0.2c-0.1-0.2-0.1-0.5,0.2-0.7
					L169.2,103.1z"/>
			</g>
			<g>
				<path fill="#B5B5B6" d="M170,96.8c0,0.4-0.1,0.8-0.1,1.2l-21.2,12.2c-0.2,0.1-0.5,0.1-0.7-0.2c-0.1-0.2-0.1-0.5,0.2-0.7
					L170,96.8z"/>
			</g>
			<g>
				<path fill="#B5B5B6" d="M170.3,90.8c0,0.4,0,0.8,0,1.1l-24.1,13.9c-0.2,0.1-0.5,0.1-0.7-0.2c-0.1-0.2-0.1-0.5,0.2-0.7
					L170.3,90.8z"/>
			</g>
			<g>
				<path fill="#B5B5B6" d="M170.3,86.2l-26.6,15.3c-0.2,0.1-0.5,0.1-0.7-0.2c-0.1-0.2-0.1-0.5,0.2-0.7l27-15.6
					C170.3,85.4,170.3,85.8,170.3,86.2z"/>
			</g>
			<g>
				<path fill="#B5B5B6" d="M169.9,80.6l-28.7,16.6c-0.2,0.1-0.5,0.1-0.7-0.2c-0.1-0.2-0.1-0.5,0.2-0.7l29-16.8
					C169.8,79.9,169.8,80.3,169.9,80.6z"/>
			</g>
			<g>
				<path fill="#B5B5B6" d="M169.1,75.3l-30.4,17.6c-0.2,0.1-0.5,0.1-0.7-0.2c-0.1-0.2-0.1-0.5,0.2-0.7l30.7-17.7
					C169,74.6,169,74.9,169.1,75.3z"/>
			</g>
			<g>
				<path fill="#B5B5B6" d="M168,70.1l-31.8,18.4c-0.2,0.1-0.5,0.1-0.7-0.2c-0.1-0.2-0.1-0.5,0.2-0.7l32.1-18.5
					C167.8,69.4,167.9,69.8,168,70.1z"/>
			</g>
			<g>
				<path fill="#B5B5B6" d="M166.6,65.1l-32.9,19c-0.2,0.1-0.5,0.1-0.7-0.2c-0.1-0.2-0.1-0.5,0.2-0.7l33.1-19.1
					C166.4,64.5,166.5,64.8,166.6,65.1z"/>
			</g>
			<g>
				<path fill="#B5B5B6" d="M164.9,60.3l-33.7,19.5c-0.2,0.1-0.5,0.1-0.7-0.2c-0.1-0.2-0.1-0.5,0.2-0.7l33.9-19.6
					C164.6,59.6,164.8,60,164.9,60.3z"/>
			</g>
			<g>
				<path fill="#B5B5B6" d="M162.9,55.6l-34.3,19.8c-0.2,0.1-0.5,0.1-0.7-0.2c-0.1-0.2-0.1-0.5,0.2-0.7l34.3-19.8
					C162.6,55,162.8,55.3,162.9,55.6z"/>
			</g>
			<g>
				<path fill="#B5B5B6" d="M160.6,51.1L126.1,71c-0.2,0.1-0.5,0.1-0.7-0.2c-0.1-0.2-0.1-0.5,0.2-0.7l34.5-19.9
					C160.3,50.5,160.5,50.8,160.6,51.1z"/>
			</g>
			<g>
				<path fill="#B5B5B6" d="M158.1,46.8l-34.5,19.9c-0.2,0.1-0.5,0.1-0.7-0.2c-0.1-0.2-0.1-0.5,0.2-0.7l34.5-19.9
					C157.8,46.2,157.9,46.5,158.1,46.8z"/>
			</g>
			<g>
				<path fill="#B5B5B6" d="M155.3,42.6l-34.2,19.8c-0.2,0.1-0.5,0.1-0.7-0.2c-0.1-0.2-0.1-0.5,0.2-0.7l34.1-19.7
					C154.9,42,155.1,42.3,155.3,42.6z"/>
			</g>
			<g>
				<path fill="#B5B5B6" d="M152.2,38.5L118.6,58c-0.2,0.1-0.5,0.1-0.7-0.2c-0.1-0.2-0.1-0.5,0.2-0.7l33.5-19.4
					C151.8,38,152,38.3,152.2,38.5z"/>
			</g>
			<g>
				<path fill="#B5B5B6" d="M148.9,34.7l-32.8,19c-0.2,0.1-0.5,0.1-0.7-0.2c-0.1-0.2-0.1-0.5,0.2-0.7l32.6-18.8
					C148.4,34.2,148.7,34.4,148.9,34.7z"/>
			</g>
			<g>
				<path fill="#B5B5B6" d="M145.2,31l-31.7,18.3c-0.2,0.1-0.5,0.1-0.7-0.2c-0.1-0.2-0.1-0.5,0.2-0.7l31.4-18.2
					C144.7,30.5,145,30.7,145.2,31z"/>
			</g>
			<g>
				<path fill="#B5B5B6" d="M141.3,27.4L111,44.9c-0.2,0.1-0.5,0.1-0.7-0.2c-0.1-0.2-0.1-0.5,0.2-0.7l29.9-17.3
					C140.8,27,141,27.2,141.3,27.4z"/>
			</g>
			<g>
				<path fill="#B5B5B6" d="M137,24.1l-28.5,16.5c-0.2,0.1-0.5,0.1-0.7-0.2c-0.1-0.2-0.1-0.5,0.2-0.7l28.1-16.2
					C136.4,23.7,136.7,23.9,137,24.1z"/>
			</g>
			<g>
				<path fill="#B5B5B6" d="M132.4,21L106,36.2c-0.2,0.1-0.5,0.1-0.7-0.2c-0.1-0.2-0.1-0.5,0.2-0.7l25.9-15
					C131.8,20.6,132.1,20.8,132.4,21z"/>
			</g>
			<g>
				<path fill="#B5B5B6" d="M127.4,18.1l-23.9,13.8c-0.2,0.1-0.5,0.1-0.7-0.2c-0.1-0.2-0.1-0.5,0.2-0.7l23.3-13.5
					C126.7,17.7,127,17.9,127.4,18.1z"/>
			</g>
			<g>
				<path fill="#B5B5B6" d="M121.9,15.4L101,27.5c-0.2,0.1-0.5,0.1-0.7-0.2c-0.1-0.2-0.1-0.5,0.2-0.7l20.3-11.7
					C121.1,15.1,121.5,15.3,121.9,15.4z"/>
			</g>
			<g>
				<path fill="#B5B5B6" d="M115.9,13.1L98.5,23.2c-0.2,0.1-0.5,0.1-0.7-0.2c-0.1-0.2-0.1-0.5,0.2-0.7l16.7-9.6
					C115.1,12.8,115.5,12.9,115.9,13.1z"/>
			</g>
			<g>
				<path fill="#B5B5B6" d="M109.3,11.1l-13.3,7.7c-0.2,0.1-0.5,0.1-0.7-0.2c-0.1-0.2-0.1-0.5,0.2-0.7l12.4-7.2
					C108.4,10.9,108.8,11,109.3,11.1z"/>
			</g>
			<g>
				<path fill="#B5B5B6" d="M101.8,9.6l-8.4,4.8c-0.2,0.1-0.5,0.1-0.7-0.2c-0.1-0.2-0.1-0.5,0.2-0.7l7.3-4.2
					C100.8,9.4,101.3,9.5,101.8,9.6z"/>
			</g>
			<g>
				<path fill="#B5B5B6" d="M93.3,8.7l-2.3,1.3c-0.2,0.1-0.5,0.1-0.7-0.2c-0.1-0.2-0.1-0.5,0.2-0.7l1-0.6C92,8.7,92.6,8.7,93.3,8.7z
					"/>
			</g>
		</g>
		<circle fill="#C9CACA" cx="136.1" cy="121.2" r="1.4"/>
		<g>
			<circle fill="#B5B5B6" cx="140.9" cy="96.8" r="1.4"/>
			<circle fill="#B5B5B6" cx="161.3" cy="84.9" r="1.4"/>
			<circle fill="#B5B5B6" cx="153.5" cy="83.6" r="1.4"/>
			<circle fill="#B5B5B6" cx="156.6" cy="58.1" r="1.4"/>
			<circle fill="#B5B5B6" cx="162.9" cy="108" r="1.4"/>
			<circle fill="#B5B5B6" cx="79" cy="148.1" r="1.4"/>
			<circle fill="#B5B5B6" cx="63.4" cy="139.8" r="1.4"/>
			<circle fill="#B5B5B6" cx="83.4" cy="139.8" r="1.4"/>
			<circle fill="#B5B5B6" cx="50.4" cy="141.3" r="1.4"/>
			<circle fill="#B5B5B6" cx="54.2" cy="133" r="1.4"/>
			<circle fill="#B5B5B6" cx="55.6" cy="115.2" r="1.4"/>
			<circle fill="#B5B5B6" cx="26.3" cy="120.4" r="1.4"/>
			<circle fill="#B5B5B6" cx="32.9" cy="99.3" r="1.4"/>
			<circle fill="#B5B5B6" cx="46.1" cy="44.9" r="1.4"/>
			<circle fill="#B5B5B6" cx="37" cy="44.9" r="1.4"/>
			<circle fill="#B5B5B6" cx="63.4" cy="24.3" r="1.4"/>
			<circle fill="#B5B5B6" cx="88.6" cy="136.8" r="1.4"/>
		</g>
		<g>
			<g>
				<g>
					<g>
						<path fill="#231815" d="M111,147.4c-0.3,0.2-0.6,0.3-0.9,0.4c-1,0.3-2.1,0.3-3-0.1c-0.2-0.1-0.4-0.2-0.6-0.3
							c-0.2-0.1-0.4-0.2-0.6-0.4c-0.6-0.5-1.1-1.2-1.4-2l-0.9-2.8h0l-2.9-9.1v0l-1.3-4l-4.7-14.5c0-0.1,0-0.1-0.1-0.2
							c-0.6-2.2,0.7-4.6,2.9-5.3c0.4-0.1,0.9-0.2,1.4-0.2c1.8,0,3.4,1.1,4.1,2.8c0,0.1,0.1,0.1,0.1,0.2l2,6.2l2.3,7.2l5.5,17.1
							C113.6,144.3,112.7,146.4,111,147.4z"/>
					</g>
					<path fill="#4A4A4A" d="M117.5,72.4c0,0.2,0,0.5,0,0.7v0c0,0.2,0,0.5,0,0.8c0,0.2,0,0.4,0,0.6c0,0.1,0,0.2,0,0.4
						c0,0.2,0,0.4,0,0.6c0,0.2,0,0.4,0,0.5c0,0.3-0.1,0.6-0.1,0.9c0,0.4-0.1,0.8-0.2,1.2c0,0.2-0.1,0.4-0.1,0.6
						c-1.1,6.2-4,12.1-8.8,16.8c-0.1,0.1-0.2,0.2-0.3,0.2c-0.6,0.6-1.2,1.1-1.8,1.7c-0.4,0.3-0.7,0.6-1.1,0.9c0,0-0.1,0-0.1,0.1
						c-4.3,3.2-9.2,5.3-14.2,6c-0.6,0.1-1.2,0.2-1.8,0.2c0,0,0,0-0.1,0c-0.2,0-0.5,0-0.8,0.1c-0.2,0-0.3,0-0.5,0c-0.2,0-0.4,0-0.6,0
						c-0.2,0-0.3,0-0.5,0c-0.2,0-0.5,0-0.7,0c-0.5,0-1,0-1.5,0c-0.2,0-0.3,0-0.5,0c-0.2,0-0.4,0-0.6,0c-0.4,0-0.8-0.1-1.2-0.1
						c-0.5-0.1-0.9-0.1-1.4-0.2l0,0c-11.3-1.9-21.2-9.8-25-21.5C52,71.3,55.3,59.2,63.2,51c3.5-3.6,7.8-6.4,12.9-8
						c5.4-1.8,11-2,16.2-0.9c0,0,0,0,0,0c5.4,1.1,10.5,3.6,14.8,7.6c0,0,0,0,0,0c0.1,0.1,0.3,0.3,0.4,0.4c0.2,0.1,0.3,0.3,0.4,0.4
						c0.1,0.1,0.1,0.1,0.2,0.2c0.1,0.1,0.1,0.1,0.2,0.2c0.6,0.7,1.3,1.3,1.8,2c0.1,0.1,0.2,0.2,0.3,0.3c0.1,0.2,0.3,0.3,0.4,0.5
						c0.3,0.3,0.5,0.7,0.7,1c0.1,0.2,0.2,0.3,0.4,0.5c0.2,0.3,0.4,0.6,0.6,1c0.2,0.3,0.4,0.6,0.5,0.9c0,0,0,0,0,0.1
						c1.5,2.5,2.6,5.2,3.3,8c0.1,0.5,0.2,1,0.3,1.5c0.1,0.5,0.2,1.1,0.3,1.6c0.1,0.6,0.2,1.1,0.2,1.7c0,0,0,0.1,0,0.1
						c0,0.3,0,0.5,0.1,0.8c0,0.2,0,0.3,0,0.5c0,0.2,0,0.4,0,0.6C117.5,72.1,117.5,72.3,117.5,72.4z"/>
					<path fill="#4A4A4A" d="M98.8,108.7c-0.4,0-0.9,0.1-1.4,0.2c-2.2,0.7-3.5,3.1-2.9,5.3c1.4-0.3,2.8-0.7,4.2-1.1
						c1.4-0.5,2.8-1,4.1-1.6C102.3,109.8,100.6,108.7,98.8,108.7z"/>
					<path fill="#4A4A4A" d="M125.9,60.2c-7.2-22.1-30.9-34.2-53-27c-22.1,7.2-34.2,30.9-27,53c6.7,20.7,27.9,32.6,48.7,28.2
						c-0.6-2.2,0.7-4.6,2.9-5.3c0.4-0.1,0.9-0.2,1.4-0.2c1.8,0,3.4,1.1,4.1,2.8c5-2.2,9.4-5.3,13-9
						C126.5,91.7,130.9,75.6,125.9,60.2z M111.3,98c-3.9,4-8.8,7.1-14.5,9c-18.6,6.1-38.7-4.2-44.7-22.8c-6-18.7,4.2-38.7,22.8-44.7
						c18.6-6,38.7,4.2,44.7,22.8c0.1,0.3,0.2,0.7,0.3,1c0.1,0.5,0.3,1,0.4,1.4C123.4,76.9,119.6,89.4,111.3,98z"/>
					<path fill="#FF8585" d="M120.3,64.7c-0.1-0.5-0.2-1-0.4-1.4c-0.1-0.3-0.2-0.7-0.3-1c-6-18.6-26.1-28.9-44.7-22.8
						c-18.6,6.1-28.9,26.1-22.8,44.7c6.1,18.6,26.1,28.9,44.7,22.8c5.7-1.8,10.6-5,14.5-9C119.6,89.4,123.4,76.9,120.3,64.7z
						 M117.5,73.2c0,0.2,0,0.5,0,0.8c0,0.2,0,0.4,0,0.6c0,0.1,0,0.2,0,0.4c0,0.2,0,0.4,0,0.6c0,0.2,0,0.4-0.1,0.5
						c0,0.3,0,0.6-0.1,0.9c-0.1,0.4-0.1,0.8-0.2,1.2c0,0.2-0.1,0.4-0.1,0.6c-0.1,0.6-0.2,1.1-0.4,1.7c0,0.2-0.1,0.4-0.1,0.6
						c0,0,0,0.1,0,0.1c-0.1,0.3-0.2,0.7-0.3,1c-0.3,1-0.6,2-1,3c-0.1,0.3-0.2,0.5-0.3,0.8c-0.1,0.3-0.3,0.6-0.4,0.9
						c-0.5,1.1-1.1,2.2-1.8,3.3c-0.1,0.2-0.2,0.4-0.3,0.5c-0.2,0.3-0.4,0.6-0.6,0.9c-0.1,0.2-0.3,0.4-0.4,0.6
						c-0.1,0.1-0.1,0.2-0.2,0.3c-0.2,0.2-0.4,0.5-0.5,0.7c0,0,0,0.1-0.1,0.1c0,0.1-0.1,0.1-0.1,0.1c-0.1,0.2-0.3,0.4-0.5,0.5
						c0,0.1-0.1,0.1-0.1,0.2c0,0,0,0.1-0.1,0.1c-0.2,0.3-0.5,0.5-0.8,0.8c0,0-0.1,0.1-0.1,0.1c-0.2,0.2-0.3,0.4-0.5,0.5
						c0,0-0.1,0.1-0.1,0.1c0,0.1-0.1,0.1-0.1,0.1c-0.6,0.6-1.2,1.1-1.8,1.7c-0.2,0.2-0.4,0.3-0.6,0.5c-0.1,0.1-0.3,0.2-0.4,0.3
						c0,0-0.1,0.1-0.1,0.1c0,0,0,0-0.1,0.1c-0.1,0-0.1,0.1-0.2,0.2c-0.2,0.1-0.4,0.3-0.5,0.4c0,0,0,0-0.1,0
						c-0.1,0.1-0.2,0.1-0.3,0.2c0,0-0.1,0-0.1,0.1c0,0,0,0,0,0c0,0,0,0-0.1,0c-0.1,0.1-0.2,0.2-0.4,0.2c0,0,0,0,0,0
						c-0.2,0.1-0.4,0.2-0.5,0.3c-0.2,0.1-0.4,0.3-0.6,0.4c-0.2,0.1-0.3,0.2-0.5,0.3c-0.1,0.1-0.2,0.1-0.3,0.2c0,0-0.1,0-0.1,0
						c-0.1,0.1-0.3,0.2-0.5,0.3c0,0,0,0,0,0c-0.2,0.1-0.4,0.2-0.5,0.3c0,0-0.1,0-0.1,0.1c-0.1,0-0.2,0.1-0.3,0.2
						c-0.4,0.2-0.9,0.4-1.3,0.6c-0.1,0-0.1,0.1-0.2,0.1l-0.1,0.1c-0.7,0.3-1.5,0.6-2.2,0.8c-0.1,0-0.1,0-0.2,0.1
						c-0.1,0-0.2,0.1-0.3,0.1c-0.2,0.1-0.4,0.1-0.6,0.2c-0.2,0.1-0.4,0.1-0.6,0.2c-0.8,0.2-1.6,0.4-2.4,0.6
						c-0.4,0.1-0.8,0.2-1.2,0.2c-0.6,0.1-1.2,0.2-1.8,0.2h-0.1c-0.2,0-0.5,0.1-0.8,0.1c-0.1,0-0.3,0-0.5,0c-0.2,0-0.4,0-0.6,0
						c-0.1,0-0.3,0-0.5,0c-0.2,0-0.5,0-0.7,0c-0.5,0-1,0-1.5,0c-0.2,0-0.3,0-0.5,0c-0.2,0-0.4,0-0.6,0c-0.4,0-0.8-0.1-1.2-0.1
						c-0.2,0-0.5-0.1-0.7-0.1c-0.2,0-0.5-0.1-0.7-0.1v0c-11.3-1.8-21.2-9.8-25-21.5C52,71.4,55.3,59.2,63.2,51
						c3.5-3.6,7.8-6.4,12.9-8c5.4-1.8,11-2,16.2-0.9c0,0,0,0,0,0c0.6,0.1,1.2,0.3,1.8,0.4c0.3,0.1,0.5,0.1,0.8,0.2
						c0.8,0.2,1.6,0.5,2.4,0.8c0.3,0.1,0.6,0.2,1,0.4c0.7,0.3,1.3,0.6,2,0.9c0.3,0.1,0.6,0.3,0.9,0.5c0.3,0.2,0.6,0.3,0.9,0.5
						c0.3,0.2,0.6,0.4,0.9,0.6c0.2,0.2,0.5,0.3,0.7,0.5c0.7,0.4,1.3,0.9,1.9,1.4c0.1,0,0.1,0.1,0.2,0.1c0.1,0.1,0.2,0.1,0.3,0.2
						c0.4,0.3,0.8,0.7,1.2,1c0,0,0,0,0,0c0.1,0.1,0.3,0.3,0.4,0.4c0.1,0.1,0.3,0.3,0.4,0.4c0.1,0.1,0.1,0.1,0.2,0.2
						c0.1,0.1,0.1,0.1,0.2,0.2c0.6,0.7,1.2,1.3,1.8,2c0.1,0.1,0.2,0.2,0.3,0.3c0.1,0.2,0.3,0.3,0.4,0.5c0.3,0.3,0.5,0.7,0.8,1
						c0.1,0.2,0.2,0.3,0.4,0.5c0.1,0.2,0.2,0.3,0.3,0.5c0.1,0.1,0.2,0.3,0.3,0.4c0,0,0,0,0,0c0,0,0,0,0,0c0.2,0.3,0.4,0.6,0.5,0.9
						c0,0,0,0.1,0,0.1c0.5,0.9,1,1.9,1.5,2.9c0,0,0,0,0,0c0.1,0.3,0.3,0.7,0.4,1c0,0,0,0.1,0,0.1c0.1,0.2,0.1,0.3,0.2,0.5
						c0.1,0.2,0.1,0.4,0.2,0.6c0,0,0,0,0,0c0.1,0.3,0.2,0.5,0.3,0.8c0,0.1,0.1,0.2,0.1,0.3c0.2,0.6,0.4,1.2,0.5,1.8
						c0.1,0.5,0.2,1,0.4,1.5c0.1,0.5,0.2,1.1,0.3,1.6c0.1,0.6,0.2,1.1,0.2,1.7c0,0,0,0.1,0,0.1c0,0.3,0.1,0.5,0.1,0.8
						c0,0.1,0,0.3,0,0.5c0,0.2,0,0.4,0,0.6c0,0.2,0,0.3,0,0.5C117.5,72.7,117.5,72.9,117.5,73.2L117.5,73.2z"/>
					<path fill="#FF8585" d="M117.5,73.2L117.5,73.2c0,0.3,0,0.5,0,0.8c0,0.2,0,0.4,0,0.6c0,0.1,0,0.2,0,0.4c0,0.2,0,0.4,0,0.6
						c0,0.2,0,0.4,0,0.5c0,0.3-0.1,0.6-0.1,0.9c0,0.4-0.1,0.8-0.2,1.2c0,0.2-0.1,0.4-0.1,0.6c-1.1,6.2-4,12.1-8.8,16.8
						c-0.1,0.1-0.2,0.2-0.3,0.2c-0.6,0.6-1.2,1.1-1.8,1.7c-0.4,0.3-0.7,0.6-1.1,0.9c0,0-0.1,0-0.1,0.1c-4.3,3.2-9.2,5.3-14.2,6
						c-0.6,0.1-1.2,0.2-1.8,0.2c0,0,0,0-0.1,0c-0.2,0-0.5,0-0.8,0.1c-0.2,0-0.3,0-0.5,0c-0.2,0-0.4,0-0.6,0c-0.2,0-0.3,0-0.5,0
						c-0.2,0-0.5,0-0.7,0c-0.5,0-1,0-1.5,0c-0.2,0-0.3,0-0.5,0c-0.2,0-0.4,0-0.6,0c-0.4,0-0.8-0.1-1.2-0.1c-0.5-0.1-0.9-0.1-1.4-0.2
						l0,0c-11.3-1.9-21.2-9.8-25-21.5C52,71.3,55.3,59.2,63.2,51c3.5-3.6,7.8-6.4,12.9-8c5.4-1.8,11-2,16.2-0.9c0,0,0,0,0,0
						c5.4,1.1,10.5,3.6,14.8,7.6c0,0,0,0,0,0c0.1,0.1,0.3,0.3,0.4,0.4c0.2,0.1,0.3,0.3,0.4,0.4c0.1,0.1,0.1,0.1,0.2,0.2
						c0.1,0.1,0.1,0.1,0.2,0.2c0.6,0.7,1.3,1.3,1.8,2c0.1,0.1,0.2,0.2,0.3,0.3c0.1,0.2,0.3,0.3,0.4,0.5c0.3,0.3,0.5,0.7,0.7,1
						c0.1,0.2,0.2,0.3,0.4,0.5c0.2,0.3,0.4,0.6,0.6,1c0.2,0.3,0.4,0.6,0.5,0.9c0,0,0,0,0,0.1c1.5,2.5,2.6,5.2,3.3,8
						c0.1,0.5,0.2,1,0.3,1.5c0.1,0.5,0.2,1.1,0.3,1.6c0.1,0.6,0.2,1.1,0.2,1.7c0,0,0,0.1,0,0.1c0,0.3,0,0.5,0.1,0.8
						c0,0.2,0,0.3,0,0.5c0,0.2,0,0.4,0,0.6c0,0.2,0,0.3,0,0.5C117.5,72.7,117.5,72.9,117.5,73.2z"/>
					<g>
						<path fill="#4A4A4A" d="M99,127.8c1.2-4.1,3.4-7.5,6.1-9.8l7.9,24.3c0.7,2.3-0.5,4.8-2.8,5.5c-2.3,0.7-4.8-0.5-5.5-2.8
							L99,127.8z"/>
					</g>
					<path fill="#F7F8F8" d="M117.5,73.2L117.5,73.2c0,0.3,0,0.5,0,0.8c0,0.2,0,0.4,0,0.6c0,0.1,0,0.2,0,0.4c0,0.2,0,0.4,0,0.6
						c0,0.2,0,0.4,0,0.5c0,0.3-0.1,0.6-0.1,0.9c0,0.4-0.1,0.8-0.2,1.2c0,0.2-0.1,0.4-0.1,0.6c-1.2,6.5-4.3,12.5-9,17.1
						c-0.6,0.6-1.2,1.1-1.8,1.7c-3,2.5-6.6,4.5-10.5,5.8c-1.6,0.5-3.3,0.9-4.9,1.2c-0.6,0.1-1.2,0.2-1.8,0.2c0,0,0,0-0.1,0
						c-0.2,0-0.5,0-0.8,0.1c-0.2,0-0.3,0-0.5,0c-0.2,0-0.4,0-0.6,0c-0.2,0-0.3,0-0.5,0c-0.2,0-0.5,0-0.7,0c-0.5,0-1,0-1.5,0
						c-0.2,0-0.3,0-0.5,0c-0.2,0-0.4,0-0.6,0c-0.4,0-0.8-0.1-1.2-0.1c-0.5-0.1-0.9-0.1-1.4-0.2c-11.3-1.9-21.2-9.8-25-21.5
						C52,71.3,55.3,59.2,63.2,51c3.5-3.6,7.8-6.4,12.9-8c5.4-1.8,11-2,16.2-0.9c5.5,1.2,10.6,3.8,14.8,7.5c0,0,0,0,0,0
						c0.1,0.1,0.3,0.3,0.4,0.4c0.2,0.1,0.3,0.3,0.4,0.4c0.1,0.1,0.3,0.2,0.4,0.4c0.6,0.7,1.3,1.3,1.8,2c0.1,0.1,0.2,0.2,0.3,0.3
						c0.1,0.2,0.3,0.3,0.4,0.5c0.3,0.3,0.5,0.7,0.7,1c0.1,0.2,0.2,0.3,0.4,0.5c1.6,2.4,3,5.1,3.9,8c0.2,0.6,0.4,1.2,0.5,1.8
						c0.1,0.5,0.2,1,0.3,1.5c0.1,0.5,0.2,1.1,0.3,1.6c0.1,0.6,0.2,1.1,0.2,1.7c0,0,0,0.1,0,0.1c0,0.3,0,0.5,0.1,0.8
						c0,0.2,0,0.3,0,0.5c0,0.2,0,0.4,0,0.6c0,0.2,0,0.3,0,0.5C117.5,72.7,117.5,72.9,117.5,73.2z"/>
				</g>
				<path fill="#EFEFEF" d="M117.5,73.2L117.5,73.2c0,0.3,0,0.5,0,0.8c0,0.2,0,0.4,0,0.6c0,0.1,0,0.2,0,0.4c0,0.2,0,0.4,0,0.6
					c0,0.2,0,0.4,0,0.5c0,0.3-0.1,0.6-0.1,0.9c0,0.4-0.1,0.8-0.2,1.2c0,0.2-0.1,0.4-0.1,0.6c-1.1,6.2-4,12.1-8.8,16.8
					c-0.1,0.1-0.2,0.2-0.3,0.2c-0.6,0.6-1.2,1.1-1.8,1.7c-0.4,0.3-0.7,0.6-1.1,0.9c0,0-0.1,0-0.1,0.1c-4.3,3.2-9.2,5.3-14.2,6
					c-0.6,0.1-1.2,0.2-1.8,0.2c0,0,0,0-0.1,0c-0.2,0-0.5,0-0.8,0.1c-0.2,0-0.3,0-0.5,0c-0.2,0-0.4,0-0.6,0c-0.2,0-0.3,0-0.5,0
					c-0.2,0-0.5,0-0.7,0c-0.5,0-1,0-1.5,0c-0.2,0-0.3,0-0.5,0c-0.2,0-0.4,0-0.6,0c-0.4,0-0.8-0.1-1.2-0.1c-0.5-0.1-0.9-0.1-1.4-0.2
					l0,0C98,84.4,102.5,59,92.3,42.2c0,0,0,0,0,0c5.4,1.1,10.5,3.6,14.8,7.6c0,0,0,0,0,0c0.1,0.1,0.3,0.3,0.4,0.4
					c0.2,0.1,0.3,0.3,0.4,0.4c0.1,0.1,0.1,0.1,0.2,0.2c0.1,0.1,0.1,0.1,0.2,0.2c0.6,0.7,1.3,1.3,1.8,2c0.1,0.1,0.2,0.2,0.3,0.3
					c0.1,0.2,0.3,0.3,0.4,0.5c0.3,0.3,0.5,0.7,0.7,1c0.1,0.2,0.2,0.3,0.4,0.5c0.2,0.3,0.4,0.6,0.6,1c0.2,0.3,0.4,0.6,0.5,0.9
					c0,0,0,0,0,0.1c1.5,2.5,2.6,5.2,3.3,8c0.1,0.5,0.2,1,0.3,1.5c0.1,0.5,0.2,1.1,0.3,1.6c0.1,0.6,0.2,1.1,0.2,1.7c0,0,0,0.1,0,0.1
					c0,0.3,0,0.5,0.1,0.8c0,0.2,0,0.3,0,0.5c0,0.2,0,0.4,0,0.6c0,0.2,0,0.3,0,0.5C117.5,72.7,117.5,72.9,117.5,73.2z"/>
			</g>
			<linearGradient id="SVGID_1_" gradientUnits="userSpaceOnUse" x1="92.4383" y1="129.6136" x2="103.6783" y2="137.677">
				<stop  offset="0" style="stop-color:#FFB43A"/>
				<stop  offset="0.2011" style="stop-color:#FFB041"/>
				<stop  offset="0.4831" style="stop-color:#FFA453"/>
				<stop  offset="0.8115" style="stop-color:#FF9271"/>
				<stop  offset="1" style="stop-color:#FF8585"/>
			</linearGradient>
			<path fill="url(#SVGID_1_)" d="M98.7,140.4c-1.1-0.8-2-2.1-2.6-3.6c-1.1-2.8-0.6-5.7,1-7c0.3-0.2,0.6-0.4,0.9-0.5
				c1.4-0.5,3,0,4.3,1.1c-0.8,1.3-1.6,2.7-2.1,4.2c-0.2,0.5-0.3,0.9-0.5,1.4C99.1,137.4,98.8,138.9,98.7,140.4z"/>
			<linearGradient id="SVGID_2_" gradientUnits="userSpaceOnUse" x1="118.8734" y1="122.2045" x2="103.5622" y2="150.5467">
				<stop  offset="0" style="stop-color:#FFB43A"/>
				<stop  offset="0.4765" style="stop-color:#FFB33C"/>
				<stop  offset="0.6481" style="stop-color:#FFAF43"/>
				<stop  offset="0.7705" style="stop-color:#FFA74E"/>
				<stop  offset="0.8694" style="stop-color:#FF9D5F"/>
				<stop  offset="0.9531" style="stop-color:#FF8F75"/>
				<stop  offset="1" style="stop-color:#FF8585"/>
			</linearGradient>
			<path fill="url(#SVGID_2_)" d="M98.7,140.4c0.1-1.4,0.4-2.9,0.9-4.5c0.1-0.5,0.3-0.9,0.5-1.4c0.6-1.5,1.3-2.9,2.1-4.2
				c1.1-1.6,2.3-3,3.7-4.1c3.1-2.5,6.6-3.5,9.7-2.3c5.6,2.1,7.6,10.3,4.5,18.3c-3,8-10,12.7-15.6,10.6
				C100.4,151.3,98.2,146.2,98.7,140.4z"/>
			<linearGradient id="SVGID_3_" gradientUnits="userSpaceOnUse" x1="89.1952" y1="176.8604" x2="108.0333" y2="138.9223">
				<stop  offset="0" style="stop-color:#FF8585"/>
				<stop  offset="0.4321" style="stop-color:#FE8587"/>
				<stop  offset="0.5878" style="stop-color:#FB848E"/>
				<stop  offset="0.6988" style="stop-color:#F58299"/>
				<stop  offset="0.7885" style="stop-color:#EC7FAA"/>
				<stop  offset="0.8653" style="stop-color:#E17CC0"/>
				<stop  offset="0.9327" style="stop-color:#D478DB"/>
				<stop  offset="0.9928" style="stop-color:#C474FB"/>
				<stop  offset="1" style="stop-color:#C273FF"/>
			</linearGradient>
			<path fill="url(#SVGID_3_)" d="M114.9,150.2l-8.5,18.4c-3.7,0.8-7.4,1.3-11.3,1.6c-0.3,0-0.6,0-0.9,0.1c-0.3,0-0.5,0-0.8,0
				c-0.3,0-0.7,0-1,0.1h0c-0.9,0-1.9,0-2.8,0h-0.3c-0.4,0-0.7,0-1.1,0c-0.2,0-0.5,0-0.7,0c-0.4,0-0.7,0-1,0
				c-1.7-0.1-3.4-0.2-5.1-0.4l14.9-33.1l2.8,2l4.7,3.4l7.4,5.2L114.9,150.2z"/>
		</g>
		<linearGradient id="SVGID_4_" gradientUnits="userSpaceOnUse" x1="72.986" y1="60.2998" x2="93.2652" y2="49.4272">
			<stop  offset="0" style="stop-color:#DCDDDD"/>
			<stop  offset="0.4615" style="stop-color:#DDDBDB"/>
			<stop  offset="0.6276" style="stop-color:#DFD4D4"/>
			<stop  offset="0.7461" style="stop-color:#E4C9C9"/>
			<stop  offset="0.8419" style="stop-color:#EBB8B8"/>
			<stop  offset="0.9229" style="stop-color:#F3A2A2"/>
			<stop  offset="0.9944" style="stop-color:#FE8787"/>
			<stop  offset="1" style="stop-color:#FF8585"/>
		</linearGradient>
		<polygon fill="url(#SVGID_4_)" points="86.4,53.5 66.6,65 65.9,63.7 85.6,52.3 		"/>
		<linearGradient id="SVGID_5_" gradientUnits="userSpaceOnUse" x1="72.7345" y1="59.8322" x2="93.0147" y2="48.9591">
			<stop  offset="0" style="stop-color:#DCDDDD"/>
			<stop  offset="0.4615" style="stop-color:#DDDBDB"/>
			<stop  offset="0.6276" style="stop-color:#DFD4D4"/>
			<stop  offset="0.7461" style="stop-color:#E4C9C9"/>
			<stop  offset="0.8419" style="stop-color:#EBB8B8"/>
			<stop  offset="0.9229" style="stop-color:#F3A2A2"/>
			<stop  offset="0.9944" style="stop-color:#FE8787"/>
			<stop  offset="1" style="stop-color:#FF8585"/>
		</linearGradient>
		<polygon fill="url(#SVGID_5_)" points="88.8,52.1 93.3,49.5 92.6,48.3 88.1,50.9 		"/>
		<linearGradient id="SVGID_6_" gradientUnits="userSpaceOnUse" x1="64.0336" y1="63.8772" x2="105.4853" y2="63.8772">
			<stop  offset="0" style="stop-color:#DCDDDD"/>
			<stop  offset="0.4615" style="stop-color:#DDDBDB"/>
			<stop  offset="0.6276" style="stop-color:#DFD4D4"/>
			<stop  offset="0.7461" style="stop-color:#E4C9C9"/>
			<stop  offset="0.8419" style="stop-color:#EBB8B8"/>
			<stop  offset="0.9229" style="stop-color:#F3A2A2"/>
			<stop  offset="0.9944" style="stop-color:#FE8787"/>
			<stop  offset="1" style="stop-color:#FF8585"/>
		</linearGradient>
		<polygon fill="url(#SVGID_6_)" points="105.5,52.7 64.8,76.3 64,75 104.8,51.5 		"/>
		<linearGradient id="SVGID_7_" gradientUnits="userSpaceOnUse" x1="74.7563" y1="72.4345" x2="100.6005" y2="72.4345">
			<stop  offset="0" style="stop-color:#DCDDDD"/>
			<stop  offset="0.4615" style="stop-color:#DDDBDB"/>
			<stop  offset="0.6276" style="stop-color:#DFD4D4"/>
			<stop  offset="0.7461" style="stop-color:#E4C9C9"/>
			<stop  offset="0.8419" style="stop-color:#EBB8B8"/>
			<stop  offset="0.9229" style="stop-color:#F3A2A2"/>
			<stop  offset="0.9944" style="stop-color:#FE8787"/>
			<stop  offset="1" style="stop-color:#FF8585"/>
		</linearGradient>
		<polygon fill="url(#SVGID_7_)" points="100.6,65.8 75.5,80.3 74.8,79.1 99.9,64.6 		"/>
		<linearGradient id="SVGID_8_" gradientUnits="userSpaceOnUse" x1="86.9848" y1="83.2275" x2="111.9066" y2="68.4049">
			<stop  offset="0" style="stop-color:#DCDDDD"/>
			<stop  offset="0.4615" style="stop-color:#DDDBDB"/>
			<stop  offset="0.6276" style="stop-color:#DFD4D4"/>
			<stop  offset="0.7461" style="stop-color:#E4C9C9"/>
			<stop  offset="0.8419" style="stop-color:#EBB8B8"/>
			<stop  offset="0.9229" style="stop-color:#F3A2A2"/>
			<stop  offset="0.9944" style="stop-color:#FE8787"/>
			<stop  offset="1" style="stop-color:#FF8585"/>
		</linearGradient>
		<polygon fill="url(#SVGID_8_)" points="106.3,72.7 86.6,84.1 85.8,82.9 105.6,71.5 		"/>
		<linearGradient id="SVGID_9_" gradientUnits="userSpaceOnUse" x1="87.1131" y1="83.4414" x2="112.0339" y2="68.6194">
			<stop  offset="0" style="stop-color:#DCDDDD"/>
			<stop  offset="0.4615" style="stop-color:#DDDBDB"/>
			<stop  offset="0.6276" style="stop-color:#DFD4D4"/>
			<stop  offset="0.7461" style="stop-color:#E4C9C9"/>
			<stop  offset="0.8419" style="stop-color:#EBB8B8"/>
			<stop  offset="0.9229" style="stop-color:#F3A2A2"/>
			<stop  offset="0.9944" style="stop-color:#FE8787"/>
			<stop  offset="1" style="stop-color:#FF8585"/>
		</linearGradient>
		<path fill="url(#SVGID_9_)" d="M116.5,65.2c0.1,0.5,0.2,1,0.3,1.5l0,0l-7.6,4.4l-0.7-1.3L116.5,65.2L116.5,65.2z"/>
		<linearGradient id="SVGID_10_" gradientUnits="userSpaceOnUse" x1="79.8134" y1="88.2082" x2="111.746" y2="88.2082">
			<stop  offset="0" style="stop-color:#DCDDDD"/>
			<stop  offset="0.4615" style="stop-color:#DDDBDB"/>
			<stop  offset="0.6276" style="stop-color:#DFD4D4"/>
			<stop  offset="0.7461" style="stop-color:#E4C9C9"/>
			<stop  offset="0.8419" style="stop-color:#EBB8B8"/>
			<stop  offset="0.9229" style="stop-color:#F3A2A2"/>
			<stop  offset="0.9944" style="stop-color:#FE8787"/>
			<stop  offset="1" style="stop-color:#FF8585"/>
		</linearGradient>
		<polygon fill="url(#SVGID_10_)" points="111.7,79.8 80.5,97.8 79.8,96.6 111,78.6 		"/>
		<path fill="#FFB43A" d="M70.9,61.3c0.3,0.5,0.1,1.1-0.4,1.4l-5,2.9c-0.5,0.3-1.1,0.1-1.4-0.4l-1-1.7c-0.3-0.5-0.1-1.1,0.4-1.4
			l5-2.9c0.5-0.3,1.1-0.1,1.4,0.4L70.9,61.3z"/>
		<path fill="#FFD622" d="M69.1,72.6c0.3,0.5,0.1,1.1-0.4,1.4l-5,2.9c-0.5,0.3-1.1,0.1-1.4-0.4l-1-1.7c-0.3-0.5-0.1-1.1,0.4-1.4
			l5-2.9c0.5-0.3,1.1-0.1,1.4,0.4L69.1,72.6z"/>
		<path fill="#97D457" d="M77.8,77.8c0.3,0.5,0.1,1.1-0.4,1.4l-5,2.9c-0.5,0.3-1.1,0.1-1.4-0.4l-1-1.7c-0.3-0.5-0.1-1.1,0.4-1.4
			l5-2.9c0.5-0.3,1.1-0.1,1.4,0.4L77.8,77.8z"/>
		<path fill="#69AAF5" d="M88,82.1c0.3,0.5,0.1,1.1-0.4,1.4l-5,2.9c-0.5,0.3-1.1,0.1-1.4-0.4l-1-1.7c-0.3-0.5-0.1-1.1,0.4-1.4l5-2.9
			c0.5-0.3,1.1-0.1,1.4,0.4L88,82.1z"/>
		<path fill="#C273FF" d="M85.6,93.7c0.3,0.5,0.1,1.1-0.4,1.4l-5,2.9c-0.5,0.3-1.1,0.1-1.4-0.4l-1-1.7c-0.3-0.5-0.1-1.1,0.4-1.4
			l5-2.9c0.5-0.3,1.1-0.1,1.4,0.4L85.6,93.7z"/>
		<polygon fill="#FFFFFF" points="112.1,156.1 113.8,152.4 94.9,139.4 93.1,143.5 		"/>
	</g>
</g>
</svg>
