<?xml version="1.0" encoding="utf-8"?>
<!-- Generator: Adobe Illustrator 17.1.0, SVG Export Plug-In . SVG Version: 6.00 Build 0)  -->
<!DOCTYPE svg PUBLIC "-//W3C//DTD SVG 1.1//EN" "http://www.w3.org/Graphics/SVG/1.1/DTD/svg11.dtd">
<svg version="1.1" xmlns="http://www.w3.org/2000/svg" xmlns:xlink="http://www.w3.org/1999/xlink" x="0px" y="0px"
	 viewBox="0 0 178.8 178.8" enable-background="new 0 0 178.8 178.8" xml:space="preserve">
<g id="圖層_2">
</g>
<g id="圖層_1">
	<g>
		<circle fill="#B5B5B6" cx="89.4" cy="89.4" r="80.9"/>
		<circle fill="#FFFFFF" cx="89.4" cy="89.4" r="89.4"/>
		<radialGradient id="SVGID_1_" cx="89.4043" cy="89.4044" r="80.9219" gradientUnits="userSpaceOnUse">
			<stop  offset="5.235600e-03" style="stop-color:#DCDDDD"/>
			<stop  offset="0.9948" style="stop-color:#FFFFFF"/>
		</radialGradient>
		<path fill="url(#SVGID_1_)" d="M167.8,109.5c0.4-1.8,0.8-3.5,1.2-5.4v0c0.1-0.4,0.1-0.8,0.2-1.3c0.3-1.7,0.5-3.4,0.7-5.1
			c0-0.4,0.1-0.8,0.1-1.2c0.1-1.6,0.2-3.2,0.3-4.8c0-0.4,0-0.8,0-1.1c0-0.4,0-0.8,0-1.2c0-1.1,0-2.3-0.1-3.4c0-0.4,0-0.7-0.1-1.1
			c-0.1-1.5-0.2-3-0.4-4.5c0-0.4-0.1-0.7-0.1-1.1c-0.2-1.4-0.4-2.9-0.6-4.3c-0.1-0.3-0.1-0.7-0.2-1c-0.3-1.4-0.6-2.8-0.9-4.1
			c-0.1-0.3-0.2-0.7-0.2-1c-0.4-1.3-0.7-2.7-1.2-4c-0.1-0.3-0.2-0.6-0.3-0.9c-0.4-1.3-0.9-2.6-1.4-3.9c-0.1-0.3-0.2-0.6-0.4-0.9
			c-0.5-1.3-1-2.5-1.6-3.7c-0.1-0.3-0.3-0.6-0.4-0.9c-0.6-1.2-1.2-2.4-1.8-3.6c-0.2-0.3-0.3-0.6-0.5-0.9c-0.7-1.2-1.3-2.3-2.1-3.5
			c-0.2-0.3-0.3-0.6-0.5-0.8c-0.7-1.1-1.5-2.3-2.3-3.4c-0.2-0.3-0.4-0.5-0.6-0.8c-0.8-1.1-1.6-2.2-2.5-3.2c-0.2-0.3-0.4-0.5-0.6-0.8
			c-0.9-1.1-1.8-2.1-2.7-3.1c-0.2-0.2-0.5-0.5-0.7-0.7c-1-1-1.9-2-3-3c-0.2-0.2-0.5-0.5-0.7-0.7c-1-1-2.1-1.9-3.2-2.8
			c-0.3-0.2-0.5-0.4-0.8-0.7c-1.1-0.9-2.3-1.8-3.5-2.7c-0.3-0.2-0.6-0.4-0.9-0.6c-1.2-0.9-2.5-1.7-3.8-2.5c-0.3-0.2-0.6-0.4-0.9-0.6
			c-1.3-0.8-2.7-1.6-4.1-2.3c-0.3-0.2-0.7-0.4-1-0.5c-1.5-0.7-2.9-1.5-4.4-2.1c-0.4-0.2-0.7-0.3-1.1-0.5c-1.6-0.7-3.2-1.3-4.9-1.9
			c-0.4-0.1-0.8-0.3-1.2-0.4c-1.8-0.6-3.6-1.1-5.4-1.6c-0.5-0.1-0.9-0.2-1.4-0.3c-2-0.5-4-0.9-6.1-1.2c-0.5-0.1-1-0.2-1.6-0.2
			c-2.3-0.3-4.6-0.5-7-0.6c-0.6,0-1.2-0.1-1.8-0.1c-0.7,0-1.3,0-2,0c-9.7,0-19,1.7-27.6,4.8c-0.3,0.1-0.7,0.2-1,0.4
			c-12,4.5-22.6,11.8-31.1,21.1C16.5,49.2,8.5,68.4,8.5,89.4c0,43.7,34.6,79.2,77.8,80.9c0.3,0,0.7,0,1,0c0.2,0,0.5,0,0.7,0
			c0.4,0,0.7,0,1.1,0h0.3c1,0,1.9,0,2.8-0.1c0,0,0,0,0,0c0.3,0,0.7,0,1,0c0.3,0,0.5,0,0.8,0c0.3,0,0.6,0,0.9-0.1
			c29-2,53.8-19.3,66.4-43.9c2.5-5,4.6-10.2,6.1-15.7L167.8,109.5z"/>
		<linearGradient id="SVGID_2_" gradientUnits="userSpaceOnUse" x1="31.7922" y1="109.2637" x2="72.519" y2="109.2637">
			<stop  offset="0" style="stop-color:#C273FF"/>
			<stop  offset="0.2476" style="stop-color:#C072FC"/>
			<stop  offset="0.3997" style="stop-color:#BB70F4"/>
			<stop  offset="0.526" style="stop-color:#B16DE5"/>
			<stop  offset="0.6382" style="stop-color:#A369D1"/>
			<stop  offset="0.741" style="stop-color:#9263B6"/>
			<stop  offset="0.8371" style="stop-color:#7C5B96"/>
			<stop  offset="0.9259" style="stop-color:#635370"/>
			<stop  offset="1" style="stop-color:#4A4A4A"/>
		</linearGradient>
		<circle fill="url(#SVGID_2_)" cx="55.6" cy="109.3" r="18.7"/>
		
			<linearGradient id="SVGID_3_" gradientUnits="userSpaceOnUse" x1="-387.3955" y1="2507.752" x2="-346.6689" y2="2507.752" gradientTransform="matrix(-1 0 0 -1 -240.3802 2617.0156)">
			<stop  offset="0" style="stop-color:#C273FF"/>
			<stop  offset="0.2476" style="stop-color:#C072FC"/>
			<stop  offset="0.3997" style="stop-color:#BB70F4"/>
			<stop  offset="0.526" style="stop-color:#B16DE5"/>
			<stop  offset="0.6382" style="stop-color:#A369D1"/>
			<stop  offset="0.741" style="stop-color:#9263B6"/>
			<stop  offset="0.8371" style="stop-color:#7C5B96"/>
			<stop  offset="0.9259" style="stop-color:#635370"/>
			<stop  offset="1" style="stop-color:#4A4A4A"/>
		</linearGradient>
		<circle fill="url(#SVGID_3_)" cx="123.2" cy="109.3" r="18.7"/>
		<g>
			<linearGradient id="SVGID_4_" gradientUnits="userSpaceOnUse" x1="50.8999" y1="103.8832" x2="50.8999" y2="145.4565">
				<stop  offset="0" style="stop-color:#C273FF"/>
				<stop  offset="0.4604" style="stop-color:#C074FF"/>
				<stop  offset="0.6262" style="stop-color:#B978FE"/>
				<stop  offset="0.7444" style="stop-color:#AE80FD"/>
				<stop  offset="0.84" style="stop-color:#9D8AFB"/>
				<stop  offset="0.9209" style="stop-color:#8797F8"/>
				<stop  offset="0.9922" style="stop-color:#6CA8F5"/>
				<stop  offset="1" style="stop-color:#69AAF5"/>
			</linearGradient>
			<path fill="url(#SVGID_4_)" d="M64.6,111.7v34c0,1.1-0.9,2-2,2c-0.5,0-1-0.2-1.4-0.6c-0.4-0.4-0.6-0.9-0.6-1.4v-8.3
				c-0.6,0.4-1.2,0.7-1.9,0.9v7.4c0,1.1-0.9,2-2,2c-0.5,0-1-0.2-1.4-0.6c-0.4-0.4-0.6-0.9-0.6-1.4v-7h-1.9v7c0,1.1-0.9,2-2,2
				c-0.5,0-1-0.2-1.4-0.6c-0.4-0.4-0.6-0.9-0.6-1.4v-7H47v7c0,1.1-0.9,2-2,2c-0.5,0-1-0.2-1.4-0.6c-0.4-0.4-0.6-0.9-0.6-1.4v-7.4
				c-0.7-0.2-1.3-0.5-1.9-0.9v8.3c0,1.1-0.9,2-2,2c-0.5,0-1-0.2-1.4-0.6c-0.4-0.4-0.6-0.9-0.6-1.4v-34c0-4.6,3.7-8.3,8.3-8.3h10.7
				C60.8,103.4,64.6,107.1,64.6,111.7z"/>
		</g>
		<g>
			<linearGradient id="SVGID_5_" gradientUnits="userSpaceOnUse" x1="50.2236" y1="88.2476" x2="50.2236" y2="65.3118">
				<stop  offset="0" style="stop-color:#FFB43A"/>
				<stop  offset="1" style="stop-color:#FFFFFF"/>
			</linearGradient>
			<path fill="url(#SVGID_5_)" d="M53.1,67.7v13.2c0,1.6-1.3,2.9-2.9,2.9c-1.6,0-2.9-1.3-2.9-2.9V67.7c0-1.6,1.3-2.9,2.9-2.9
				C51.8,64.8,53.1,66.1,53.1,67.7z"/>
		</g>
		<g>
			<linearGradient id="SVGID_6_" gradientUnits="userSpaceOnUse" x1="128.5845" y1="85.4783" x2="128.5845" y2="67.3713">
				<stop  offset="0" style="stop-color:#FFB43A"/>
				<stop  offset="1" style="stop-color:#FFFFFF"/>
			</linearGradient>
			<path fill="url(#SVGID_6_)" d="M131.5,67.7v13.2c0,1.6-1.3,2.9-2.9,2.9c-1.6,0-2.9-1.3-2.9-2.9V67.7c0-1.6,1.3-2.9,2.9-2.9
				C130.2,64.8,131.5,66.1,131.5,67.7z"/>
		</g>
		<radialGradient id="SVGID_7_" cx="89.4286" cy="81.0798" r="28.994" gradientUnits="userSpaceOnUse">
			<stop  offset="0" style="stop-color:#FFB43A"/>
			<stop  offset="2.556217e-02" style="stop-color:#FFB844"/>
			<stop  offset="0.1568" style="stop-color:#FFCB76"/>
			<stop  offset="0.2914" style="stop-color:#FFDBA0"/>
			<stop  offset="0.4272" style="stop-color:#FFE8C2"/>
			<stop  offset="0.5646" style="stop-color:#FFF2DD"/>
			<stop  offset="0.7043" style="stop-color:#FFF9F0"/>
			<stop  offset="0.8476" style="stop-color:#FFFEFB"/>
			<stop  offset="1" style="stop-color:#FFFFFF"/>
		</radialGradient>
		<circle fill="url(#SVGID_7_)" cx="89.8" cy="72.5" r="39.2"/>
		<linearGradient id="SVGID_8_" gradientUnits="userSpaceOnUse" x1="89.4038" y1="91.9928" x2="89.4038" y2="114.9605">
			<stop  offset="0" style="stop-color:#C273FF"/>
			<stop  offset="0.3109" style="stop-color:#BF75FF"/>
			<stop  offset="0.5017" style="stop-color:#B77AFE"/>
			<stop  offset="0.6602" style="stop-color:#A983FC"/>
			<stop  offset="0.8009" style="stop-color:#948FFA"/>
			<stop  offset="0.9287" style="stop-color:#7AA0F7"/>
			<stop  offset="0.9948" style="stop-color:#69AAF5"/>
		</linearGradient>
		<ellipse fill="url(#SVGID_8_)" cx="89.4" cy="113" rx="33.8" ry="11.1"/>
		<g>
			<g>
				<linearGradient id="SVGID_9_" gradientUnits="userSpaceOnUse" x1="51.5868" y1="121.027" x2="140.1202" y2="121.027">
					<stop  offset="5.235600e-03" style="stop-color:#FFD622"/>
					<stop  offset="0.1883" style="stop-color:#FBD624"/>
					<stop  offset="0.3865" style="stop-color:#EED62B"/>
					<stop  offset="0.5919" style="stop-color:#D8D536"/>
					<stop  offset="0.8008" style="stop-color:#BAD545"/>
					<stop  offset="0.9948" style="stop-color:#97D457"/>
				</linearGradient>
				<path fill="url(#SVGID_9_)" d="M141.7,117.6c-0.4,0.7-0.9,1.5-1.5,2.1c-15.2,17.9-32.1,27.1-50.3,27.3h0
					c-18.2-0.3-35.1-9.5-50.3-27.3c-0.6-0.7-1.1-1.4-1.5-2.1c-3.7-6.2-2.4-14.3,3.2-19.1c6.3-5.4,15.9-4.6,21.3,1.7
					c9.2,10.7,18.4,16.4,27.4,16.7c9-0.4,18.2-6,27.4-16.7c5.4-6.3,14.9-7.1,21.3-1.7C144.1,103.4,145.3,111.5,141.7,117.6z"/>
			</g>
		</g>
		<g>
			<linearGradient id="SVGID_10_" gradientUnits="userSpaceOnUse" x1="52.8862" y1="110.118" x2="128.4848" y2="110.118">
				<stop  offset="5.235600e-03" style="stop-color:#FF8585"/>
				<stop  offset="0.2232" style="stop-color:#FF8881"/>
				<stop  offset="0.4592" style="stop-color:#FF9074"/>
				<stop  offset="0.7036" style="stop-color:#FF9D5E"/>
				<stop  offset="0.9523" style="stop-color:#FFB040"/>
				<stop  offset="0.9948" style="stop-color:#FFB43A"/>
			</linearGradient>
			<path fill="url(#SVGID_10_)" d="M89.9,125.5c-0.6,0-1.2,0-1.8,0c-22-0.9-36.7-18-37.3-18.7c-2.6-3.1-2.2-7.7,0.9-10.3
				c3.1-2.6,7.7-2.2,10.3,0.8c0.2,0.2,11.4,13,26.8,13.6c9.8,0.4,19.7-4.3,29.2-14c2.9-2.9,7.5-2.9,10.4,0c2.9,2.9,2.9,7.5,0,10.4
				C116.4,119.4,103.4,125.5,89.9,125.5z"/>
		</g>
		<linearGradient id="SVGID_11_" gradientUnits="userSpaceOnUse" x1="89.4038" y1="81.3719" x2="89.4038" y2="76.5329">
			<stop  offset="0" style="stop-color:#FF8585"/>
			<stop  offset="0.2337" style="stop-color:#FF8781"/>
			<stop  offset="0.4634" style="stop-color:#FF8F75"/>
			<stop  offset="0.6917" style="stop-color:#FF9B62"/>
			<stop  offset="0.9177" style="stop-color:#FFAC46"/>
			<stop  offset="1" style="stop-color:#FFB43A"/>
		</linearGradient>
		<path fill="url(#SVGID_11_)" d="M92.8,79.9c0,1.9-1.5,1.8-3.4,1.8c-1.9,0-3.4,0-3.4-1.8c0-1.9,1.5-3.4,3.4-3.4
			C91.3,76.5,92.8,78,92.8,79.9z"/>
		<path fill="#FFFFFF" d="M118.9,73.4c0,5.6-4.5,5.5-10.1,5.5c-5.6,0-10.1,0.1-10.1-5.5c0-5.6,4.5-10.1,10.1-10.1
			C114.4,63.3,118.9,67.8,118.9,73.4z"/>
		<linearGradient id="SVGID_12_" gradientUnits="userSpaceOnUse" x1="106.8535" y1="66.5825" x2="106.8535" y2="78.4728">
			<stop  offset="0" style="stop-color:#4A4A4A"/>
			<stop  offset="0.4038" style="stop-color:#4A4B4C"/>
			<stop  offset="0.5492" style="stop-color:#4C4F53"/>
			<stop  offset="0.6529" style="stop-color:#4E565E"/>
			<stop  offset="0.7368" style="stop-color:#515F6F"/>
			<stop  offset="0.8085" style="stop-color:#556B85"/>
			<stop  offset="0.8721" style="stop-color:#5A7BA1"/>
			<stop  offset="0.9296" style="stop-color:#608DC1"/>
			<stop  offset="0.9807" style="stop-color:#66A1E5"/>
			<stop  offset="1" style="stop-color:#69AAF5"/>
		</linearGradient>
		<circle fill="url(#SVGID_12_)" cx="106.9" cy="72.6" r="6.3"/>
		<linearGradient id="SVGID_13_" gradientUnits="userSpaceOnUse" x1="100.2235" y1="30.3821" x2="127.2627" y2="68.3346">
			<stop  offset="0" style="stop-color:#4A4A4A"/>
			<stop  offset="0.4636" style="stop-color:#4C4C4C"/>
			<stop  offset="0.6305" style="stop-color:#535353"/>
			<stop  offset="0.7496" style="stop-color:#5E5E5E"/>
			<stop  offset="0.8458" style="stop-color:#6F6F6F"/>
			<stop  offset="0.9272" style="stop-color:#848585"/>
			<stop  offset="0.9991" style="stop-color:#9FA0A0"/>
			<stop  offset="1" style="stop-color:#9FA0A0"/>
		</linearGradient>
		<path fill="url(#SVGID_13_)" d="M119.6,36.8c4.8,4.8,10.4,16.7,9.1,31.4C111.8,68.2,96,60,100,27.9
			C106.3,27.4,114.8,32,119.6,36.8z"/>
		<linearGradient id="SVGID_14_" gradientUnits="userSpaceOnUse" x1="120.3031" y1="89.1197" x2="103.4809" y2="72.2976">
			<stop  offset="0" style="stop-color:#FFFFFF"/>
			<stop  offset="0.233" style="stop-color:#FFFEFC"/>
			<stop  offset="0.3806" style="stop-color:#FFFBF4"/>
			<stop  offset="0.5047" style="stop-color:#FFF5E5"/>
			<stop  offset="0.6156" style="stop-color:#FFEDD0"/>
			<stop  offset="0.7177" style="stop-color:#FFE3B5"/>
			<stop  offset="0.8135" style="stop-color:#FFD694"/>
			<stop  offset="0.9043" style="stop-color:#FFC76D"/>
			<stop  offset="0.989" style="stop-color:#FFB640"/>
			<stop  offset="1" style="stop-color:#FFB43A"/>
		</linearGradient>
		<ellipse fill="url(#SVGID_14_)" cx="114.3" cy="83.1" rx="9.8" ry="6.7"/>
		<g>
			<path fill="#4A4A4A" d="M89.4,91.6c-4,0-7.7-2.2-9.7-5.6c-0.2-0.4-0.1-0.8,0.3-1c0.4-0.2,0.8-0.1,1,0.3c1.7,3,5,4.9,8.5,4.9
				c3.5,0,6.8-1.9,8.5-4.9c0.2-0.4,0.6-0.5,1-0.3c0.4,0.2,0.5,0.6,0.3,1C97.2,89.4,93.4,91.6,89.4,91.6z"/>
		</g>
		<path fill="#FFFFFF" d="M80.1,73.4c0,5.6-4.5,5.5-10.1,5.5c-5.6,0-10.1,0.1-10.1-5.5c0-5.6,4.5-10.1,10.1-10.1
			C75.6,63.3,80.1,67.8,80.1,73.4z"/>
		<linearGradient id="SVGID_15_" gradientUnits="userSpaceOnUse" x1="71.8457" y1="66.5825" x2="71.8457" y2="78.4728">
			<stop  offset="0" style="stop-color:#4A4A4A"/>
			<stop  offset="0.4038" style="stop-color:#4A4B4C"/>
			<stop  offset="0.5492" style="stop-color:#4C4F53"/>
			<stop  offset="0.6529" style="stop-color:#4E565E"/>
			<stop  offset="0.7368" style="stop-color:#515F6F"/>
			<stop  offset="0.8085" style="stop-color:#556B85"/>
			<stop  offset="0.8721" style="stop-color:#5A7BA1"/>
			<stop  offset="0.9296" style="stop-color:#608DC1"/>
			<stop  offset="0.9807" style="stop-color:#66A1E5"/>
			<stop  offset="1" style="stop-color:#69AAF5"/>
		</linearGradient>
		<circle fill="url(#SVGID_15_)" cx="71.8" cy="72.6" r="6.3"/>
		<linearGradient id="SVGID_16_" gradientUnits="userSpaceOnUse" x1="57.2927" y1="90.4545" x2="77.4114" y2="70.3358">
			<stop  offset="0" style="stop-color:#FFFFFF"/>
			<stop  offset="0.233" style="stop-color:#FFFEFC"/>
			<stop  offset="0.3806" style="stop-color:#FFFBF4"/>
			<stop  offset="0.5047" style="stop-color:#FFF5E5"/>
			<stop  offset="0.6156" style="stop-color:#FFEDD0"/>
			<stop  offset="0.7177" style="stop-color:#FFE3B5"/>
			<stop  offset="0.8135" style="stop-color:#FFD694"/>
			<stop  offset="0.9043" style="stop-color:#FFC76D"/>
			<stop  offset="0.989" style="stop-color:#FFB640"/>
			<stop  offset="1" style="stop-color:#FFB43A"/>
		</linearGradient>
		<ellipse fill="url(#SVGID_16_)" cx="64.6" cy="83.1" rx="9.8" ry="6.7"/>
		<linearGradient id="SVGID_17_" gradientUnits="userSpaceOnUse" x1="102.0473" y1="24.9584" x2="48.295" y2="69.263">
			<stop  offset="0" style="stop-color:#4A4A4A"/>
			<stop  offset="0.4935" style="stop-color:#4C4C4C"/>
			<stop  offset="0.6712" style="stop-color:#535353"/>
			<stop  offset="0.7979" style="stop-color:#5E5E5E"/>
			<stop  offset="0.8997" style="stop-color:#6F6F6F"/>
			<stop  offset="0.9865" style="stop-color:#858585"/>
			<stop  offset="1" style="stop-color:#898989"/>
		</linearGradient>
		<path fill="url(#SVGID_17_)" d="M49.6,72.5c-4.9-24.1,7.6-36.3,12.6-40.2c5-3.9,25.9-15.4,45-3C114.4,58.3,61.9,73.6,49.6,72.5z"
			/>
		<g>
			<path fill="#EFEFEF" d="M122.6,123.2c-0.6,0-1.3-0.1-2-0.2c-0.3,0-0.4-0.3-0.4-0.6c0-0.3,0.3-0.4,0.6-0.4
				c3.7,0.6,6.3-0.6,7.1-3.3c0.8-2.7-0.6-6.6-4-8c-0.2-0.1-0.4-0.4-0.3-0.6s0.4-0.4,0.6-0.3c4,1.6,5.4,6,4.5,9.2
				C128,121.8,125.8,123.2,122.6,123.2z"/>
		</g>
		<g>
			<path fill="#FF8585" d="M123.1,120.3h-5c0.6-0.7,1.5-1.1,2.5-1.1C121.6,119.2,122.5,119.6,123.1,120.3z"/>
			<path fill="#FFB43A" d="M123.8,121.5h-6.4c0.1-0.4,0.4-0.8,0.7-1.1h5C123.4,120.7,123.7,121,123.8,121.5z"/>
			<path fill="#FFD622" d="M124,122.6L124,122.6l-6.7,0v0c0-0.4,0.1-0.8,0.2-1.1h6.4C123.9,121.8,124,122.2,124,122.6z"/>
			<path fill="#97D457" d="M124,122.6c0,0.4-0.1,0.8-0.2,1.1h-6.3c-0.1-0.4-0.2-0.7-0.2-1.1H124z"/>
			<path fill="#69AAF5" d="M123.8,123.7c-0.2,0.4-0.4,0.8-0.7,1.1h-4.9c-0.3-0.3-0.5-0.7-0.7-1.1H123.8z"/>
			<path fill="#C273FF" d="M123.1,124.8c-0.6,0.7-1.5,1.1-2.5,1.1c-1,0-1.8-0.4-2.5-1.1H123.1z"/>
		</g>
		<circle fill="#FFFFFF" cx="124.1" cy="110.3" r="3.4"/>
	</g>
</g>
</svg>
