<?xml version="1.0" encoding="utf-8"?>
<!-- Generator: Adobe Illustrator 17.1.0, SVG Export Plug-In . SVG Version: 6.00 Build 0)  -->
<!DOCTYPE svg PUBLIC "-//W3C//DTD SVG 1.1//EN" "http://www.w3.org/Graphics/SVG/1.1/DTD/svg11.dtd">
<svg version="1.1" xmlns="http://www.w3.org/2000/svg" xmlns:xlink="http://www.w3.org/1999/xlink" x="0px" y="0px"
	 viewBox="0 0 178.8 178.8" enable-background="new 0 0 178.8 178.8" xml:space="preserve">
<g id="圖層_2">
</g>
<g id="圖層_1">
	<g>
		<circle fill="#B5B5B6" cx="89.4" cy="89.4" r="80.9"/>
		<circle fill="#FFFFFF" cx="89.4" cy="89.4" r="89.4"/>
		<path fill="#EFEFEF" d="M167.8,109.5c0.4-1.8,0.8-3.5,1.2-5.4v0c0.1-0.4,0.1-0.8,0.2-1.3c0.3-1.7,0.5-3.4,0.7-5.1
			c0-0.4,0.1-0.8,0.1-1.2c0.1-1.6,0.2-3.2,0.3-4.8c0-0.4,0-0.8,0-1.1c0-0.4,0-0.8,0-1.2c0-1.1,0-2.3-0.1-3.4c0-0.4,0-0.7-0.1-1.1
			c-0.1-1.5-0.2-3-0.4-4.5c0-0.4-0.1-0.7-0.1-1.1c-0.2-1.4-0.4-2.9-0.6-4.3c-0.1-0.3-0.1-0.7-0.2-1c-0.3-1.4-0.6-2.8-0.9-4.1
			c-0.1-0.3-0.2-0.7-0.2-1c-0.4-1.3-0.7-2.7-1.2-4c-0.1-0.3-0.2-0.6-0.3-0.9c-0.4-1.3-0.9-2.6-1.4-3.9c-0.1-0.3-0.2-0.6-0.4-0.9
			c-0.5-1.3-1-2.5-1.6-3.7c-0.1-0.3-0.3-0.6-0.4-0.9c-0.6-1.2-1.2-2.4-1.8-3.6c-0.2-0.3-0.3-0.6-0.5-0.9c-0.7-1.2-1.3-2.3-2.1-3.5
			c-0.2-0.3-0.3-0.6-0.5-0.8c-0.7-1.1-1.5-2.3-2.3-3.4c-0.2-0.3-0.4-0.5-0.6-0.8c-0.8-1.1-1.6-2.2-2.5-3.2c-0.2-0.3-0.4-0.5-0.6-0.8
			c-0.9-1.1-1.8-2.1-2.7-3.1c-0.2-0.2-0.5-0.5-0.7-0.7c-1-1-2-2-3-3c-0.2-0.2-0.5-0.5-0.7-0.7c-1-1-2.1-1.9-3.2-2.8
			c-0.3-0.2-0.5-0.4-0.8-0.7c-1.1-0.9-2.3-1.8-3.5-2.7c-0.3-0.2-0.6-0.4-0.9-0.6c-1.2-0.9-2.5-1.7-3.8-2.5c-0.3-0.2-0.6-0.4-0.9-0.6
			c-1.3-0.8-2.7-1.6-4.1-2.3c-0.3-0.2-0.7-0.4-1-0.5c-1.5-0.7-2.9-1.5-4.4-2.1c-0.4-0.2-0.7-0.3-1.1-0.5c-1.6-0.7-3.2-1.3-4.9-1.9
			c-0.4-0.1-0.8-0.3-1.2-0.4c-1.8-0.6-3.6-1.1-5.4-1.6c-0.5-0.1-0.9-0.2-1.4-0.3c-2-0.5-4-0.9-6.1-1.2c-0.5-0.1-1-0.2-1.6-0.2
			c-2.3-0.3-4.6-0.5-7-0.6c-0.6,0-1.2-0.1-1.8-0.1c-0.7,0-1.3,0-2,0c-9.7,0-19,1.7-27.6,4.8c-0.3,0.1-0.7,0.2-1,0.4
			c-12,4.5-22.6,11.8-31.1,21.1C16.5,49.2,8.5,68.4,8.5,89.4c0,43.7,34.6,79.2,77.8,80.9c0.3,0,0.7,0,1,0c0.2,0,0.5,0,0.7,0
			c0.4,0,0.7,0,1.1,0h0.3c1,0,1.9,0,2.8-0.1c0,0,0,0,0,0c0.3,0,0.7,0,1,0c0.3,0,0.5,0,0.8,0c0.3,0,0.6,0,0.9-0.1
			c29-2,53.8-19.3,66.4-43.9c2.5-5,4.6-10.2,6.1-15.7L167.8,109.5z"/>
		<linearGradient id="SVGID_1_" gradientUnits="userSpaceOnUse" x1="89.4018" y1="120.0555" x2="89.4018" y2="-16.4465">
			<stop  offset="1.047120e-02" style="stop-color:#FFD622"/>
			<stop  offset="5.513994e-02" style="stop-color:#FCDB4A"/>
			<stop  offset="0.1174" style="stop-color:#F8E17C"/>
			<stop  offset="0.1791" style="stop-color:#F5E6A5"/>
			<stop  offset="0.2389" style="stop-color:#F2EAC6"/>
			<stop  offset="0.2964" style="stop-color:#F0EDDC"/>
			<stop  offset="0.3505" style="stop-color:#EFEEEA"/>
			<stop  offset="0.3979" style="stop-color:#EFEFEF"/>
			<stop  offset="0.6296" style="stop-color:#F3F3F3"/>
			<stop  offset="0.7435" style="stop-color:#F7F8F8"/>
			<stop  offset="0.8298" style="stop-color:#F7F8F6"/>
			<stop  offset="0.8664" style="stop-color:#F7F7EF"/>
			<stop  offset="0.8936" style="stop-color:#F8F5E2"/>
			<stop  offset="0.9161" style="stop-color:#F8F2D1"/>
			<stop  offset="0.9358" style="stop-color:#F9EEBA"/>
			<stop  offset="0.9534" style="stop-color:#FAEA9D"/>
			<stop  offset="0.9696" style="stop-color:#FCE47B"/>
			<stop  offset="0.9846" style="stop-color:#FDDE54"/>
			<stop  offset="0.9981" style="stop-color:#FFD729"/>
			<stop  offset="1" style="stop-color:#FFD622"/>
		</linearGradient>
		<path fill="url(#SVGID_1_)" d="M170.3,89.4c0,8.3-1.2,16.3-3.5,23.8H12c-2.3-7.5-3.6-15.5-3.6-23.8c0-44.7,36.2-80.9,80.9-80.9
			C134.1,8.5,170.3,44.7,170.3,89.4z"/>
		<linearGradient id="SVGID_2_" gradientUnits="userSpaceOnUse" x1="89.3262" y1="116.7974" x2="89.3262" y2="58.9804">
			<stop  offset="0" style="stop-color:#FFD622"/>
			<stop  offset="9.906173e-02" style="stop-color:#FFDC45"/>
			<stop  offset="0.2748" style="stop-color:#FFE77D"/>
			<stop  offset="0.4456" style="stop-color:#FFF0AC"/>
			<stop  offset="0.6075" style="stop-color:#FFF6D0"/>
			<stop  offset="0.7582" style="stop-color:#FFFBEA"/>
			<stop  offset="0.8934" style="stop-color:#FFFEFA"/>
			<stop  offset="1" style="stop-color:#FFFFFF"/>
		</linearGradient>
		<circle fill="url(#SVGID_2_)" cx="89.3" cy="91.1" r="26.9"/>
		<polygon fill="#FFFFFF" points="166.8,113.2 12,113.2 13.9,118.4 164.9,118.4 		"/>
		<path fill="#4A4A4A" d="M155.7,113.2h-6.4c-0.2,0.6-0.5,1.2-0.8,1.8c-0.5,1.2-1,2.3-1.6,3.4h6.7c0.2-0.4,0.3-0.8,0.5-1.1
			c0.3-0.8,0.7-1.6,1-2.4c0.1-0.3,0.2-0.5,0.3-0.8c0,0,0,0,0,0C155.5,113.8,155.6,113.5,155.7,113.2c0.1-0.2,0.1-0.3,0.2-0.5
			C155.8,112.9,155.8,113,155.7,113.2z M156.2,111.8c0.5-1.4,0.9-2.8,1.3-4.3C157.1,109,156.7,110.4,156.2,111.8z M159.8,87.6
			c0-0.3,0-0.6,0-0.9c0-0.3,0-0.6,0-0.9c-0.1-1.2-0.2-2.4-0.3-3.6c0-0.1,0-0.2,0-0.2c-0.1-0.8-0.2-1.6-0.3-2.4
			c0-0.2-0.1-0.5-0.1-0.7c0-0.1,0-0.2,0-0.3c-0.1-0.5-0.1-0.9-0.2-1.4c-0.1-0.4-0.1-0.7-0.2-1.1c-0.1-0.4-0.2-0.9-0.3-1.3
			c0-0.1-0.1-0.3-0.1-0.4c-0.1-0.4-0.2-0.7-0.2-1.1c0,0,0-0.1,0-0.1c0-0.1,0-0.2-0.1-0.3c0-0.1,0-0.1,0-0.2c0,0,0-0.1,0-0.1
			c-0.1-0.4-0.2-0.8-0.3-1.2c0-0.2-0.1-0.3-0.1-0.5c-0.1-0.3-0.2-0.6-0.2-0.8c0,0,0,0,0,0c0-0.1,0-0.2-0.1-0.3
			c0-0.1-0.1-0.2-0.1-0.3c0-0.1,0-0.1-0.1-0.2c-0.1-0.3-0.2-0.6-0.2-0.8c0,0,0-0.1,0-0.1c0-0.1,0-0.1,0-0.2
			c-0.1-0.2-0.1-0.4-0.2-0.6c-0.1-0.2-0.1-0.4-0.2-0.6c0-0.1,0-0.1-0.1-0.2c0,0,0,0,0,0c0,0,0-0.1,0-0.1c-0.1-0.2-0.2-0.5-0.2-0.7
			c0,0,0,0,0,0c0-0.1-0.1-0.2-0.1-0.4c0-0.1-0.1-0.2-0.1-0.3c0,0,0-0.1,0-0.1c-0.1-0.2-0.1-0.3-0.2-0.5c-0.1-0.2-0.2-0.4-0.2-0.6
			c0-0.1-0.1-0.2-0.1-0.3c0-0.1-0.1-0.2-0.1-0.2c0-0.1-0.1-0.3-0.2-0.4c-0.1-0.1-0.1-0.3-0.2-0.4c0-0.1-0.1-0.2-0.1-0.3
			c-0.2-0.4-0.4-0.9-0.5-1.3c-0.1-0.1-0.1-0.3-0.2-0.4c-0.1-0.2-0.2-0.4-0.3-0.6c-0.1-0.2-0.2-0.4-0.3-0.5c-0.1-0.3-0.2-0.5-0.4-0.8
			c-0.1-0.2-0.1-0.3-0.2-0.5c0-0.1-0.1-0.2-0.1-0.3l0,0l0,0c0-0.1-0.1-0.2-0.1-0.3c-0.1-0.2-0.2-0.3-0.2-0.5c0,0,0,0,0,0
			c-0.1-0.2-0.2-0.4-0.3-0.6c-0.1-0.2-0.2-0.3-0.3-0.5c-0.1-0.2-0.2-0.3-0.3-0.5c-0.5-1-1.1-1.9-1.6-2.8c-0.7-1.2-1.5-2.4-2.3-3.6
			c-0.3-0.4-0.6-0.9-0.9-1.3c-0.7-1-1.4-1.9-2.2-2.8c-0.3-0.4-0.6-0.8-0.9-1.1c-2.9-3.5-6.2-6.6-9.7-9.5c-0.4-0.3-0.8-0.6-1.2-1
			c-0.5-0.4-0.9-0.7-1.4-1.1c-0.4-0.3-0.9-0.6-1.4-1c-1.2-0.8-2.4-1.6-3.6-2.3c-0.5-0.3-1-0.6-1.4-0.9c-0.5-0.3-1-0.6-1.5-0.8
			c-0.5-0.3-1-0.5-1.4-0.8c-1.8-0.9-3.6-1.8-5.5-2.5c-0.7-0.3-1.5-0.6-2.3-0.9c-0.1,0-0.2-0.1-0.3-0.1c-0.5-0.2-1-0.4-1.5-0.5
			c-0.2-0.1-0.4-0.1-0.6-0.2c-0.4-0.1-0.7-0.2-1.1-0.4c-0.5-0.2-1.1-0.3-1.6-0.5c0,0,0,0,0,0c-0.5-0.2-1.1-0.3-1.6-0.4
			c-0.6-0.1-1.1-0.3-1.7-0.4l-0.9-0.2c-0.3-0.1-0.6-0.1-0.9-0.2c-1.4-0.3-2.8-0.5-4.2-0.7c-3.3-0.5-6.6-0.7-10-0.7c0,0,0,0,0,0h0
			C62.3,19,38.8,34.2,27,56.7c-0.1,0.1-0.1,0.2-0.2,0.3c-0.1,0.1-0.1,0.2-0.2,0.3c-0.1,0.3-0.3,0.5-0.4,0.8
			c-0.1,0.3-0.3,0.5-0.4,0.8c-0.1,0.3-0.2,0.5-0.4,0.8c-0.1,0.3-0.2,0.5-0.4,0.8c-0.1,0.3-0.2,0.5-0.4,0.8c-0.2,0.3-0.3,0.7-0.4,1
			c-0.2,0.4-0.3,0.8-0.5,1.2c0,0.1-0.1,0.2-0.1,0.4c-0.2,0.5-0.4,1-0.6,1.5c-0.2,0.5-0.3,0.9-0.5,1.4c0,0.1-0.1,0.2-0.1,0.4
			c-0.1,0.4-0.3,0.9-0.4,1.3c-0.1,0.4-0.2,0.8-0.4,1.2c-0.1,0.2-0.1,0.4-0.2,0.6c0,0,0,0,0,0c-0.1,0.4-0.2,0.9-0.4,1.3
			c-0.1,0.4-0.2,0.8-0.3,1.2c0,0,0,0,0,0.1c0,0.2-0.1,0.3-0.1,0.5c-0.1,0.4-0.2,0.8-0.3,1.1c0,0.1-0.1,0.2-0.1,0.4
			c-0.1,0.5-0.2,0.9-0.3,1.4c-0.1,0.4-0.1,0.7-0.2,1.1c-0.1,0.5-0.2,0.9-0.2,1.4c0,0.1,0,0.2,0,0.3c0,0.2-0.1,0.5-0.1,0.7
			c-0.1,0.8-0.2,1.6-0.3,2.4c0,0.2,0,0.4-0.1,0.7c-0.1,1.1-0.2,2.1-0.2,3.2c0,0.3,0,0.6,0,0.9c0,0.3,0,0.6,0,0.9c0,0.6,0,1.2,0,1.8
			c0,4.2,0.4,8.3,1.1,12.2c0.2,1,0.4,1.9,0.6,2.9c0.1,0.3,0.1,0.6,0.2,1c0,0.1,0,0.1,0,0.2c0-0.1,0-0.1,0-0.2H27c0,0,0,0,0,0
			c-0.2-0.6-0.3-1.3-0.5-1.9c-0.1-0.3-0.1-0.6-0.2-1c-0.1-0.7-0.3-1.3-0.4-2c-0.1-0.3-0.1-0.7-0.2-1c-0.1-0.7-0.2-1.3-0.3-2
			c0-0.3-0.1-0.5-0.1-0.8c0-0.4-0.1-0.7-0.1-1.1c0-0.4-0.1-0.8-0.1-1.3c0-0.3,0-0.6-0.1-0.8c0-0.8-0.1-1.6-0.1-2.4
			c0-0.2,0-0.3,0-0.5c0-0.4,0-0.9,0-1.3c0-0.3,0-0.7,0-1c0-0.3,0-0.7,0-1c0-0.7,0.1-1.4,0.1-2.1c0-0.7,0.1-1.4,0.2-2
			c0-0.3,0.1-0.5,0.1-0.8c0-0.4,0.1-0.8,0.1-1.2c0-0.3,0.1-0.7,0.1-1c0-0.3,0.1-0.7,0.2-1c0-0.3,0.1-0.7,0.2-1
			c0.1-0.3,0.1-0.7,0.2-1v0c0.1-0.3,0.1-0.7,0.2-1c0.1-0.3,0.1-0.7,0.2-1c0.1-0.3,0.1-0.7,0.2-1c0.1-0.3,0.2-0.6,0.2-1
			c0.8-3.3,1.9-6.5,3.3-9.5c9.1-20.9,28.9-36.1,52.6-38.5c0.3,0,0.6-0.1,0.9-0.1c0.4,0,0.7-0.1,1.1-0.1c1.5-0.1,3-0.2,4.5-0.2
			c2.2,0,4.4,0.1,6.6,0.3c0.4,0,0.7,0.1,1.1,0.1c0.2,0,0.3,0,0.5,0.1c0.8,0.1,1.7,0.2,2.5,0.4c0.2,0,0.4,0.1,0.7,0.1
			c1,0.2,1.9,0.4,2.8,0.6c0.4,0.1,0.7,0.2,1.1,0.2c0,0,0,0,0,0c0.2,0,0.4,0.1,0.6,0.1c0.4,0.1,0.7,0.2,1,0.3c0.5,0.1,1,0.3,1.4,0.4
			c0.6,0.2,1.1,0.3,1.7,0.5c0.3,0.1,0.7,0.2,1,0.3c0.4,0.1,0.7,0.3,1.1,0.4c0.2,0.1,0.5,0.2,0.7,0.3c0.3,0.1,0.5,0.2,0.8,0.3
			c0.2,0.1,0.4,0.2,0.7,0.3c1.5,0.6,3,1.3,4.5,2c0.4,0.2,0.8,0.4,1.2,0.6c0.7,0.4,1.4,0.7,2,1.1c0.3,0.2,0.6,0.4,1,0.6
			c0.3,0.2,0.7,0.4,1,0.6c0.2,0.1,0.4,0.3,0.7,0.4c0.2,0.1,0.4,0.3,0.6,0.4c0.2,0.1,0.4,0.2,0.6,0.4c0.6,0.4,1.1,0.7,1.6,1.1
			c0.3,0.2,0.5,0.4,0.8,0.6c0.3,0.2,0.5,0.4,0.8,0.6c0.3,0.2,0.6,0.5,0.9,0.7c0.3,0.3,0.7,0.5,1,0.8c0.3,0.2,0.6,0.5,0.9,0.7
			c0.1,0.1,0.2,0.2,0.3,0.3c0.2,0.1,0.3,0.3,0.5,0.4c1,0.8,1.9,1.7,2.8,2.6c0.1,0.1,0.3,0.3,0.4,0.4c0.5,0.5,1,1,1.5,1.5
			c0.2,0.2,0.3,0.4,0.5,0.6c0.2,0.2,0.4,0.5,0.6,0.7c0,0,0.1,0.1,0.1,0.2c0.3,0.3,0.6,0.7,0.9,1c0.5,0.6,1.1,1.3,1.6,2
			c0.1,0.2,0.3,0.3,0.4,0.5c0,0,0.1,0.1,0.1,0.1c0.2,0.3,0.4,0.6,0.6,0.9c0.2,0.3,0.5,0.7,0.7,1c0.3,0.4,0.6,0.9,0.9,1.3
			c0.1,0.1,0.2,0.3,0.3,0.4c0.2,0.3,0.4,0.6,0.6,0.9c0.2,0.4,0.5,0.8,0.7,1.2c0,0.1,0.1,0.1,0.1,0.2c0.2,0.4,0.5,0.8,0.7,1.2
			c0.2,0.3,0.3,0.6,0.5,0.9c0.1,0.1,0.2,0.3,0.2,0.4c0.2,0.3,0.3,0.6,0.5,0.9c0.2,0.5,0.5,0.9,0.7,1.4c0.1,0.2,0.2,0.4,0.3,0.6
			c0.2,0.4,0.4,0.8,0.6,1.2c0.1,0.2,0.2,0.4,0.2,0.5c0,0,0,0,0,0c0.1,0.2,0.2,0.4,0.3,0.7c0.2,0.4,0.4,0.9,0.5,1.3
			c0.1,0.3,0.2,0.6,0.4,1c0.1,0.3,0.2,0.6,0.3,0.9c0.1,0.3,0.2,0.6,0.3,0.9c0.1,0.3,0.2,0.6,0.3,0.9c0.1,0.2,0.1,0.4,0.2,0.6
			c0.1,0.3,0.2,0.6,0.3,0.9c0,0.2,0.1,0.3,0.1,0.5c0.1,0.4,0.2,0.9,0.4,1.3c0,0.2,0.1,0.3,0.1,0.5c0,0,0,0,0,0
			c0,0.1,0.1,0.3,0.1,0.4c0,0.2,0.1,0.3,0.1,0.5v0c0,0.1,0,0.1,0,0.2c0.1,0.3,0.1,0.5,0.2,0.8c0,0.1,0.1,0.2,0.1,0.4
			c0,0.2,0.1,0.3,0.1,0.5c0,0,0,0.1,0,0.1c0.1,0.3,0.1,0.6,0.2,1c0,0,0,0,0,0c0.1,0.3,0.1,0.7,0.2,1c0.1,0.3,0.1,0.6,0.2,1
			c0,0,0,0,0,0c0.1,0.3,0.1,0.7,0.2,1c0,0,0,0,0,0c0,0.1,0,0.1,0,0.2c0,0.2,0,0.3,0.1,0.5c0,0.1,0,0.2,0,0.3c0,0,0,0,0,0
			c0,0.1,0,0.2,0,0.3c0,0.1,0,0.2,0,0.3c0,0.1,0,0.1,0,0.2c0,0.1,0,0.3,0,0.4c0,0.2,0,0.5,0.1,0.7c0,0.1,0,0.1,0,0.2
			c0,0.4,0.1,0.8,0.1,1.1c0,0,0,0,0,0c0,0.1,0,0.2,0,0.2c0,0.1,0,0.2,0,0.2c0,0.4,0.1,0.8,0.1,1.2c0,0.1,0,0.2,0,0.4
			c0,0.2,0,0.5,0,0.7v0c0,0.2,0,0.3,0,0.5c0,0.1,0,0.2,0,0.2c0,0.4,0,0.9,0,1.3c0,0.4,0,0.9,0,1.3c0,0.2,0,0.3,0,0.5
			c0,0.8-0.1,1.6-0.1,2.4c0,0.3,0,0.6-0.1,0.8c0,0.4-0.1,0.8-0.1,1.3c0,0.4-0.1,0.7-0.1,1.1c0,0.3-0.1,0.5-0.1,0.8
			c-0.1,0.7-0.2,1.3-0.3,2c0,0.3-0.1,0.7-0.2,1c-0.1,0.7-0.2,1.3-0.4,2c-0.1,0.3-0.1,0.7-0.2,1c-0.1,0.7-0.3,1.3-0.5,1.9h6.2
			c0.1-0.6,0.3-1.3,0.4-1.9c0.1-0.6,0.3-1.3,0.4-1.9c0.7-4,1.1-8.1,1.1-12.2C159.8,88.8,159.8,88.2,159.8,87.6z M29.5,113.2h-6.4
			c-0.1-0.2-0.1-0.3-0.2-0.5c0.1,0.2,0.1,0.3,0.2,0.5c0.1,0.3,0.2,0.6,0.3,0.9c0,0,0,0,0,0c0.1,0.3,0.2,0.5,0.3,0.8c0,0,0,0.1,0,0.1
			c0.3,0.8,0.6,1.5,0.9,2.3c0.2,0.4,0.3,0.8,0.5,1.1h6.7c-0.6-1.1-1.1-2.3-1.6-3.4C30,114.4,29.8,113.8,29.5,113.2z M22.6,111.8
			c-0.5-1.4-0.9-2.8-1.3-4.3C21.7,109,22.1,110.4,22.6,111.8z"/>
		<path fill="#4A4A4A" d="M21.3,107.5c0.4,1.4,0.8,2.9,1.3,4.3C22.1,110.4,21.7,109,21.3,107.5z M156.2,111.8
			c0.5-1.4,0.9-2.8,1.3-4.3C157.1,109,156.7,110.4,156.2,111.8z"/>
		<path fill="#4A4A4A" d="M159.8,87.6c0-0.3,0-0.6,0-0.9c0-0.3,0-0.6,0-0.9c-0.1-1.2-0.2-2.4-0.3-3.6c0-0.1,0-0.2,0-0.2
			c-0.1-0.8-0.2-1.6-0.3-2.4c0-0.2-0.1-0.5-0.1-0.7c0-0.1,0-0.2,0-0.3c-0.1-0.5-0.1-0.9-0.2-1.4c-0.1-0.4-0.1-0.7-0.2-1.1
			c-0.1-0.4-0.2-0.9-0.3-1.3c0-0.1-0.1-0.3-0.1-0.4c-0.1-0.4-0.2-0.7-0.2-1.1c0,0,0-0.1,0-0.1c0-0.1,0-0.2-0.1-0.3
			c0-0.1,0-0.1,0-0.2c0,0,0-0.1,0-0.1c-0.1-0.4-0.2-0.8-0.3-1.2c0-0.2-0.1-0.3-0.1-0.5c-0.1-0.3-0.2-0.6-0.2-0.8c0,0,0,0,0,0
			c0-0.1,0-0.1,0-0.2c0,0,0-0.1,0-0.1c0-0.1-0.1-0.2-0.1-0.3c0-0.1,0-0.1-0.1-0.2c-0.1-0.3-0.2-0.6-0.2-0.8c0,0,0-0.1,0-0.1
			c0-0.1,0-0.1,0-0.2c-0.1-0.2-0.1-0.4-0.2-0.6c-0.1-0.2-0.1-0.4-0.2-0.6c0-0.1,0-0.1-0.1-0.2c0,0,0,0,0,0c0,0,0-0.1,0-0.1
			c-0.1-0.2-0.2-0.5-0.2-0.7c0,0,0,0,0,0c0-0.1-0.1-0.2-0.1-0.4c0-0.2-0.1-0.3-0.2-0.5c-0.1-0.2-0.1-0.3-0.2-0.5
			c-0.1-0.2-0.2-0.4-0.2-0.6c0-0.1-0.1-0.2-0.1-0.3c0-0.1-0.1-0.2-0.1-0.2c0-0.1-0.1-0.3-0.2-0.4c-0.1-0.1-0.1-0.3-0.2-0.4
			c0-0.1-0.1-0.2-0.1-0.3c-0.2-0.4-0.4-0.9-0.5-1.3c-0.1-0.1-0.1-0.3-0.2-0.4c-0.1-0.2-0.2-0.4-0.3-0.6c-0.1-0.2-0.2-0.4-0.2-0.5
			c0-0.1,0-0.1-0.1-0.2c-0.1-0.2-0.2-0.4-0.3-0.6c-0.1-0.2-0.2-0.3-0.2-0.5c0-0.1-0.1-0.2-0.1-0.3l0,0l0,0c0-0.1-0.1-0.2-0.1-0.3
			c-0.1-0.2-0.2-0.3-0.2-0.5c0,0,0,0,0,0c-0.1-0.2-0.2-0.4-0.3-0.6c-0.1-0.2-0.2-0.3-0.3-0.5c-0.1-0.2-0.2-0.3-0.3-0.5
			c-0.5-1-1.1-1.9-1.6-2.8c-0.7-1.2-1.5-2.4-2.3-3.6c-0.3-0.4-0.6-0.9-0.9-1.3c-0.7-1-1.4-1.9-2.2-2.8c-0.3-0.4-0.6-0.8-0.9-1.1
			c-2.9-3.5-6.2-6.6-9.7-9.5c-0.4-0.3-0.8-0.6-1.2-1c-0.5-0.4-0.9-0.7-1.4-1.1c-0.4-0.3-0.9-0.6-1.4-1c-1.2-0.8-2.4-1.6-3.6-2.3
			c-0.5-0.3-1-0.6-1.4-0.9c-0.5-0.3-1-0.6-1.5-0.8c-0.5-0.3-1-0.5-1.4-0.8c-1.8-0.9-3.6-1.8-5.5-2.5c-0.7-0.3-1.5-0.6-2.3-0.9
			c-0.1,0-0.2-0.1-0.3-0.1c-0.5-0.2-1-0.4-1.5-0.5c-0.2-0.1-0.4-0.1-0.6-0.2c-0.4-0.1-0.7-0.2-1.1-0.4c-0.5-0.2-1.1-0.3-1.6-0.5
			c0,0,0,0,0,0c-0.5-0.2-1.1-0.3-1.6-0.4c-0.6-0.1-1.1-0.3-1.7-0.4l-0.9-0.2c-0.3-0.1-0.6-0.1-0.9-0.2c-1.4-0.3-2.8-0.5-4.2-0.7
			c-3.3-0.5-6.6-0.7-10-0.7c0,0,0,0,0,0h0c-3.5,0-6.4,2.8-6.5,6.4c0.3,0,0.6-0.1,0.9-0.1c0.4,0,0.7-0.1,1.1-0.1
			c1.5-0.1,3-0.2,4.5-0.2c2.2,0,4.4,0.1,6.6,0.3c0.4,0,0.7,0.1,1.1,0.1c0.2,0,0.3,0,0.5,0.1c0.8,0.1,1.7,0.2,2.5,0.4
			c0.2,0,0.4,0.1,0.7,0.1c1,0.2,1.9,0.4,2.8,0.6c0.4,0.1,0.7,0.2,1.1,0.2c0,0,0,0,0,0c0.2,0,0.4,0.1,0.6,0.1c0.4,0.1,0.7,0.2,1,0.3
			c0.5,0.1,1,0.3,1.4,0.4c0.6,0.2,1.1,0.3,1.7,0.5c0.3,0.1,0.7,0.2,1,0.3c0.4,0.1,0.7,0.3,1.1,0.4c0.2,0.1,0.5,0.2,0.7,0.3
			c0.3,0.1,0.5,0.2,0.8,0.3c0.2,0.1,0.4,0.2,0.7,0.3c1.5,0.6,3,1.3,4.5,2c0.4,0.2,0.8,0.4,1.2,0.6c0.7,0.4,1.4,0.7,2,1.1
			c0.3,0.2,0.6,0.4,1,0.6c0.3,0.2,0.7,0.4,1,0.6c0.2,0.1,0.4,0.3,0.7,0.4c0.2,0.1,0.4,0.3,0.6,0.4c0.2,0.1,0.4,0.2,0.6,0.4
			c0.6,0.4,1.1,0.7,1.6,1.1c0.3,0.2,0.5,0.4,0.8,0.6c0.3,0.2,0.5,0.4,0.8,0.6c0.3,0.2,0.6,0.5,0.9,0.7c0.3,0.3,0.7,0.5,1,0.8
			c0.3,0.2,0.6,0.5,0.9,0.7c0.1,0.1,0.2,0.2,0.3,0.3c0.2,0.1,0.3,0.3,0.5,0.4c1,0.8,1.9,1.7,2.8,2.6c0.1,0.1,0.3,0.3,0.4,0.4
			c0.5,0.5,1,1,1.5,1.5c0.2,0.2,0.3,0.4,0.5,0.6c0.2,0.2,0.4,0.5,0.6,0.7c0,0,0.1,0.1,0.1,0.2c0.3,0.3,0.6,0.7,0.9,1
			c0.5,0.6,1.1,1.3,1.6,2c0.1,0.2,0.3,0.3,0.4,0.5c0,0,0.1,0.1,0.1,0.1c0.2,0.3,0.4,0.6,0.6,0.9c0.2,0.3,0.5,0.7,0.7,1
			c0.3,0.4,0.6,0.9,0.9,1.3c0.1,0.1,0.2,0.3,0.3,0.4c0.2,0.3,0.4,0.6,0.6,0.9c0.2,0.4,0.5,0.8,0.7,1.2c0,0.1,0.1,0.1,0.1,0.2
			c0.2,0.4,0.5,0.8,0.7,1.2c0.2,0.3,0.3,0.6,0.5,0.9c0.1,0.1,0.2,0.3,0.2,0.4c0.2,0.3,0.3,0.6,0.5,0.9c0.2,0.5,0.5,0.9,0.7,1.4
			c0.1,0.2,0.2,0.4,0.3,0.6c0.2,0.4,0.4,0.8,0.6,1.2c0.1,0.2,0.2,0.4,0.2,0.5c0,0,0,0,0,0c0.1,0.2,0.2,0.4,0.3,0.7
			c0.2,0.4,0.4,0.9,0.5,1.3c0.1,0.3,0.2,0.6,0.4,1c0.1,0.3,0.2,0.6,0.3,0.9c0.1,0.3,0.2,0.6,0.3,0.9c0.1,0.3,0.2,0.6,0.3,0.9
			c0.1,0.2,0.1,0.4,0.2,0.6c0.1,0.3,0.2,0.6,0.3,0.9c0,0.2,0.1,0.3,0.1,0.5c0.1,0.4,0.2,0.9,0.4,1.3c0,0.2,0.1,0.3,0.1,0.5
			c0,0,0,0,0,0c0,0.1,0.1,0.3,0.1,0.4c0,0.2,0.1,0.3,0.1,0.5c0,0.1,0,0.1,0,0.2c0.1,0.3,0.1,0.5,0.2,0.8c0,0.1,0.1,0.2,0.1,0.4
			c0,0.2,0.1,0.3,0.1,0.5c0,0,0,0.1,0,0.1c0.1,0.3,0.1,0.6,0.2,1c0,0,0,0,0,0c0.1,0.3,0.1,0.7,0.2,1c0.1,0.3,0.1,0.6,0.2,1
			c0,0,0,0,0,0c0.1,0.3,0.1,0.7,0.2,1c0,0,0,0,0,0c0,0.1,0,0.1,0,0.2c0,0,0,0.1,0,0.1c0,0.1,0,0.2,0,0.3c0,0.1,0,0.2,0,0.3
			c0,0,0,0,0,0c0,0.1,0,0.2,0,0.3c0,0.1,0,0.2,0,0.3c0,0.1,0,0.1,0,0.2c0,0.4,0.1,0.7,0.1,1.1c0,0.1,0,0.1,0,0.2
			c0,0.4,0.1,0.8,0.1,1.1c0,0,0,0,0,0c0,0.1,0,0.2,0,0.2c0,0.1,0,0.2,0,0.2c0,0.4,0.1,0.8,0.1,1.2c0,0.1,0,0.2,0,0.4
			c0,0.2,0,0.5,0,0.7v0c0,0.1,0,0.2,0,0.3c0,0.1,0,0.2,0,0.2c0,0.1,0,0.2,0,0.2c0,0.4,0,0.9,0,1.3c0,0.4,0,0.9,0,1.3
			c0,0.2,0,0.3,0,0.5c0,0.8-0.1,1.6-0.1,2.4c0,0.3,0,0.6-0.1,0.8c0,0.4-0.1,0.8-0.1,1.3c0,0.4-0.1,0.7-0.1,1.1
			c0,0.3-0.1,0.5-0.1,0.8c-0.1,0.7-0.2,1.3-0.3,2c0,0.3-0.1,0.7-0.2,1c-0.1,0.7-0.2,1.3-0.4,2c-0.1,0.3-0.1,0.7-0.2,1
			c-0.1,0.7-0.3,1.3-0.5,1.9h6.2c0.1-0.6,0.3-1.3,0.4-1.9c0.1-0.6,0.3-1.3,0.4-1.9c0.7-4,1.1-8.1,1.1-12.2
			C159.8,88.8,159.8,88.2,159.8,87.6z M157.5,107.5c-0.4,1.4-0.8,2.9-1.3,4.3C156.7,110.4,157.1,109,157.5,107.5z M149.3,113.2
			c-0.2,0.6-0.5,1.2-0.8,1.8c-0.5,1.2-1,2.3-1.6,3.4h6.7c0.2-0.4,0.3-0.8,0.5-1.1c0.3-0.8,0.7-1.6,1-2.4c0.1-0.3,0.2-0.5,0.3-0.8
			c0,0,0,0,0,0c0.1-0.3,0.2-0.6,0.3-0.9c0.1-0.2,0.1-0.3,0.2-0.5c-0.1,0.2-0.1,0.3-0.2,0.5H149.3z"/>
		<linearGradient id="SVGID_3_" gradientUnits="userSpaceOnUse" x1="89.436" y1="20.7761" x2="89.436" y2="5.5785">
			<stop  offset="0" style="stop-color:#4A4A4A"/>
			<stop  offset="0.3137" style="stop-color:#4E4E4E"/>
			<stop  offset="0.6347" style="stop-color:#5A5A5A"/>
			<stop  offset="0.9581" style="stop-color:#6F6E6E"/>
			<stop  offset="1" style="stop-color:#727171"/>
		</linearGradient>
		<path fill="url(#SVGID_3_)" d="M93.9,16.7c0,0.8-0.2,1.6-0.6,2.3c-0.8,1.3-2.2,2.1-3.8,2.1c-1.6,0-3-0.9-3.8-2.1
			c-0.4-0.7-0.6-1.5-0.6-2.3c0-2.4,2-4.4,4.4-4.4C91.9,12.2,93.9,14.2,93.9,16.7z"/>
		<linearGradient id="SVGID_4_" gradientUnits="userSpaceOnUse" x1="89.3261" y1="130.4801" x2="89.3261" y2="26.3533">
			<stop  offset="0" style="stop-color:#4A4A4A"/>
			<stop  offset="0.3137" style="stop-color:#4E4E4E"/>
			<stop  offset="0.6347" style="stop-color:#5A5A5A"/>
			<stop  offset="0.9581" style="stop-color:#6F6E6E"/>
			<stop  offset="1" style="stop-color:#727171"/>
		</linearGradient>
		<path fill="url(#SVGID_4_)" d="M98,35.5c0,4.3-3,69-6,96.9h-5c-3.1-27.9-6.2-92.6-6.2-96.9c0-1.2,0.2-2.3,0.7-3.4
			c0.5-1.3,1.3-2.4,2.1-3.4c0,0,0.1-0.1,0.1-0.1c1.7-1.9,4-3,5.8-3c1.9,0,4.1,1.2,5.8,3.1c0,0,0,0,0,0c0.9,1,1.6,2.1,2.1,3.4
			C97.7,33.2,98,34.3,98,35.5z"/>
		<linearGradient id="SVGID_5_" gradientUnits="userSpaceOnUse" x1="71.0819" y1="145.1201" x2="106.1583" y2="145.1201">
			<stop  offset="0" style="stop-color:#4A4A4A"/>
			<stop  offset="0.3137" style="stop-color:#4E4E4E"/>
			<stop  offset="0.6347" style="stop-color:#5A5A5A"/>
			<stop  offset="0.9581" style="stop-color:#6F6E6E"/>
			<stop  offset="1" style="stop-color:#727171"/>
		</linearGradient>
		<path fill="url(#SVGID_5_)" d="M116,154.6c0,1.8-1.4,3.2-3.2,3.2H65.8c-1.8,0-3.2-1.4-3.2-3.2c0-1.5,3.1-3.8,3.9-5.6
			c0.1-0.3,0.2-0.5,0.2-0.8c0-1.8,1.4-3.2,3.2-3.2h7v-6.4c0,0,2.3-1.4,2.3-3.2c0-0.3,0-0.5,0.1-0.8c0.4-1.4,1.6-2.4,3.1-2.4h13.9
			c1.5,0,2.7,1,3.1,2.4c0.1,0.3,0.1,0.5,0.1,0.8c0,1.7,2.1,3.1,2.3,3.2c0,0,0,0,0,0v6.4h6.8c1.8,0,3.2,1.4,3.2,3.2
			c0,0.2,0.1,0.5,0.2,0.8C112.9,150.8,116,153.1,116,154.6z"/>
		<path fill="#231815" d="M86.2,124.9c0.2,2.7,0.5,5.2,0.8,7.5h5c0.4-3.3,0.7-7.1,1.1-11.2L86.2,124.9z"/>
		<path fill="#231815" d="M101.9,138.8L101.9,138.8l-24.9,0c0,0,2.3-1.4,2.3-3.2c0-0.3,0-0.5,0.1-0.8h20c0.1,0.3,0.1,0.5,0.1,0.8
			C99.6,137.3,101.7,138.7,101.9,138.8z"/>
		<path fill="#231815" d="M112.1,149.1H66.6c0.1-0.3,0.2-0.5,0.2-0.8c0-1.8,1.4-3.2,3.2-3.2h38.7c1.8,0,3.2,1.4,3.2,3.2
			C111.9,148.5,111.9,148.8,112.1,149.1z"/>
		<path fill="#231815" d="M97.3,32.1h-16c0.5-1.3,1.3-2.4,2.1-3.4h11.8C96.1,29.7,96.8,30.8,97.3,32.1z"/>
		<linearGradient id="SVGID_6_" gradientUnits="userSpaceOnUse" x1="89.4018" y1="118.1008" x2="89.4018" y2="51.2215">
			<stop  offset="0" style="stop-color:#4A4A4A"/>
			<stop  offset="0.3137" style="stop-color:#4E4E4E"/>
			<stop  offset="0.6347" style="stop-color:#5A5A5A"/>
			<stop  offset="0.9581" style="stop-color:#6F6E6E"/>
			<stop  offset="1" style="stop-color:#727171"/>
		</linearGradient>
		<path fill="url(#SVGID_6_)" d="M159.8,89.4c0,4.2-0.4,8.3-1.1,12.2c-0.1,0.6-0.2,1.3-0.4,1.9c-0.1,0.6-0.3,1.3-0.4,1.9h0
			c-0.2,0.7-0.3,1.4-0.5,2c-0.4,1.4-0.8,2.9-1.3,4.3c-0.1,0.3-0.2,0.6-0.3,0.9c-0.1,0.2-0.1,0.3-0.2,0.5c-0.1,0.3-0.2,0.6-0.3,0.9
			c0,0,0,0,0,0c-0.1,0.3-0.2,0.5-0.3,0.8c-0.3,0.8-0.6,1.6-1,2.4c-0.2,0.4-0.3,0.8-0.5,1.1h-6.7c0.6-1.1,1.1-2.3,1.6-3.4
			c0.3-0.6,0.5-1.2,0.8-1.8l2.5-7.7c0.2-0.6,0.3-1.3,0.5-1.9c0.1-0.3,0.1-0.6,0.2-1c0.1-0.7,0.3-1.3,0.4-2c0.1-0.3,0.1-0.7,0.2-1
			c0.1-0.7,0.2-1.3,0.3-2c0-0.3,0.1-0.5,0.1-0.8c0-0.4,0.1-0.7,0.1-1.1c0-0.4,0.1-0.8,0.1-1.3c0-0.3,0-0.6,0.1-0.8
			c0.1-0.8,0.1-1.6,0.1-2.4c0-0.2,0-0.3,0-0.5c0-0.4,0-0.9,0-1.3c0-0.4,0-0.9,0-1.3c0-0.1,0-0.2,0-0.2c0-0.2,0-0.3,0-0.5v0
			c0-0.2,0-0.5,0-0.7c0-0.1,0-0.2,0-0.4c0-0.4,0-0.8-0.1-1.2c0-0.1,0-0.2,0-0.2c0-0.1,0-0.2,0-0.2c0,0,0,0,0,0
			c0-0.4-0.1-0.8-0.1-1.1c0-0.1,0-0.1,0-0.2c0-0.2,0-0.5-0.1-0.7c0-0.1,0-0.3,0-0.4c0-0.1,0-0.1,0-0.2c0-0.1,0-0.2,0-0.3
			c0-0.1,0-0.2,0-0.3c0,0,0,0,0,0c0-0.1,0-0.2,0-0.3c0-0.2,0-0.3-0.1-0.5c0-0.1,0-0.1,0-0.2c0,0,0,0,0,0c0-0.3-0.1-0.7-0.2-1
			c0,0,0,0,0,0c0-0.3-0.1-0.6-0.2-1c-0.1-0.3-0.1-0.7-0.2-1c0,0,0,0,0,0c-0.1-0.3-0.1-0.6-0.2-1c0,0,0-0.1,0-0.1
			c0-0.2-0.1-0.3-0.1-0.5c0-0.1-0.1-0.2-0.1-0.4c-0.1-0.3-0.1-0.5-0.2-0.8c0-0.1,0-0.1,0-0.2v0c0-0.2-0.1-0.4-0.1-0.5
			c0-0.1-0.1-0.3-0.1-0.4c0,0,0,0,0,0c0-0.2-0.1-0.3-0.1-0.5c-0.1-0.4-0.2-0.9-0.4-1.3c0-0.2-0.1-0.3-0.1-0.5
			c-0.1-0.3-0.2-0.6-0.3-0.9c-0.1-0.2-0.1-0.4-0.2-0.6c-0.1-0.3-0.2-0.6-0.3-0.9c-0.1-0.3-0.2-0.6-0.3-0.9c-0.1-0.3-0.2-0.6-0.3-0.9
			c-0.1-0.3-0.2-0.6-0.4-1c-0.2-0.4-0.3-0.9-0.5-1.3c-0.1-0.2-0.2-0.4-0.3-0.7c0,0,0,0,0,0c-0.1-0.2-0.2-0.4-0.2-0.5
			c-0.2-0.4-0.4-0.8-0.6-1.2c-0.1-0.2-0.2-0.4-0.3-0.6c-0.2-0.5-0.5-0.9-0.7-1.4c-0.2-0.3-0.3-0.6-0.5-0.9c-0.1-0.2-0.2-0.3-0.2-0.4
			c-0.2-0.3-0.3-0.6-0.5-0.9c-0.2-0.4-0.4-0.8-0.7-1.2c0-0.1-0.1-0.1-0.1-0.2c-0.2-0.4-0.5-0.8-0.7-1.2c-0.2-0.3-0.4-0.6-0.6-0.9
			c-0.1-0.1-0.2-0.3-0.3-0.4c-0.3-0.4-0.6-0.9-0.9-1.3c-0.2-0.3-0.5-0.7-0.7-1c-0.2-0.3-0.4-0.6-0.6-0.9c0,0-0.1-0.1-0.1-0.1
			c-0.1-0.2-0.3-0.3-0.4-0.5c-0.5-0.7-1-1.3-1.6-2c-0.3-0.3-0.6-0.7-0.9-1c0-0.1-0.1-0.1-0.1-0.2c-0.2-0.2-0.4-0.5-0.6-0.7
			c-0.2-0.2-0.3-0.4-0.5-0.6c-0.5-0.5-1-1-1.5-1.5c-0.1-0.1-0.3-0.3-0.4-0.4c-0.9-0.9-1.9-1.8-2.8-2.6c-0.2-0.1-0.3-0.3-0.5-0.4
			c-0.1-0.1-0.2-0.2-0.3-0.3c-0.3-0.3-0.6-0.5-0.9-0.7c-0.3-0.3-0.7-0.6-1-0.8c-0.3-0.2-0.6-0.5-0.9-0.7c-0.3-0.2-0.5-0.4-0.8-0.6
			c-0.3-0.2-0.5-0.4-0.8-0.6c-0.5-0.4-1.1-0.8-1.6-1.1c-0.2-0.1-0.4-0.2-0.6-0.4c-0.2-0.1-0.4-0.3-0.6-0.4c-0.2-0.1-0.4-0.3-0.7-0.4
			c-0.3-0.2-0.7-0.4-1-0.6c-0.3-0.2-0.6-0.4-1-0.6c-0.7-0.4-1.4-0.8-2-1.1c-0.4-0.2-0.8-0.4-1.2-0.6c-1.5-0.7-2.9-1.4-4.5-2
			c-0.2-0.1-0.4-0.2-0.7-0.3c-0.3-0.1-0.5-0.2-0.8-0.3c-0.2-0.1-0.5-0.2-0.7-0.3c-0.4-0.1-0.7-0.3-1.1-0.4c-0.3-0.1-0.7-0.2-1-0.3
			c-0.6-0.2-1.1-0.4-1.7-0.5c-0.5-0.1-0.9-0.3-1.4-0.4c-0.3-0.1-0.7-0.2-1-0.3c-0.2,0-0.4-0.1-0.6-0.1c0,0,0,0,0,0
			c-0.4-0.1-0.7-0.2-1.1-0.2c-0.9-0.2-1.9-0.4-2.8-0.6c-0.2,0-0.4-0.1-0.7-0.1c-0.8-0.1-1.7-0.3-2.5-0.4c-0.2,0-0.3,0-0.5-0.1
			c-0.4,0-0.7-0.1-1.1-0.1c-2.2-0.2-4.4-0.3-6.6-0.3c-1.5,0-3,0.1-4.5,0.2c-0.4,0-0.7,0.1-1.1,0.1c-0.3,0-0.6,0.1-0.9,0.1
			c-23.7,2.4-43.5,17.6-52.6,38.5c-1.3,3.1-2.4,6.2-3.3,9.5c-0.1,0.3-0.2,0.6-0.2,1c-0.1,0.3-0.2,0.6-0.2,1c-0.1,0.3-0.1,0.6-0.2,1
			c-0.1,0.3-0.1,0.6-0.2,1v0c-0.1,0.3-0.1,0.7-0.2,1c-0.1,0.3-0.1,0.7-0.2,1c-0.1,0.3-0.1,0.7-0.2,1c0,0.3-0.1,0.7-0.1,1
			c-0.1,0.4-0.1,0.8-0.1,1.2c0,0.3-0.1,0.5-0.1,0.8c-0.1,0.7-0.1,1.4-0.2,2c0,0.7-0.1,1.4-0.1,2.1c0,0.3,0,0.7,0,1c0,0.3,0,0.7,0,1
			c0,0.4,0,0.9,0,1.3c0,0.2,0,0.3,0,0.5c0,0.8,0.1,1.6,0.1,2.4c0,0.3,0,0.6,0.1,0.8c0,0.4,0.1,0.9,0.1,1.3c0,0.4,0.1,0.7,0.1,1.1
			c0,0.3,0.1,0.5,0.1,0.8c0.1,0.7,0.2,1.3,0.3,2c0,0.3,0.1,0.7,0.2,1c0.1,0.7,0.2,1.3,0.4,2c0.1,0.3,0.1,0.7,0.2,1
			c0.1,0.7,0.3,1.3,0.5,1.9c0,0,0,0,0,0l2.5,7.7c0.2,0.6,0.5,1.2,0.8,1.8c0.5,1.2,1,2.3,1.6,3.4h-6.7c-0.2-0.4-0.3-0.8-0.5-1.1
			c-0.3-0.8-0.6-1.5-0.9-2.3c0,0,0-0.1,0-0.1c-0.1-0.3-0.2-0.5-0.3-0.8c0,0,0,0,0,0c-0.1-0.3-0.2-0.6-0.3-0.9
			c-0.1-0.2-0.1-0.3-0.2-0.5c-0.1-0.3-0.2-0.6-0.3-0.9c-0.5-1.4-0.9-2.8-1.3-4.3c-0.2-0.6-0.3-1.2-0.5-1.8c0-0.1,0-0.1,0-0.2
			c-0.1-0.3-0.1-0.6-0.2-1c-0.2-1-0.4-1.9-0.6-2.9c-0.7-4-1.1-8.1-1.1-12.2c0-0.6,0-1.2,0-1.8c0-0.3,0-0.6,0-0.9c0-0.3,0-0.6,0-0.9
			c0.1-1.1,0.1-2.1,0.2-3.2c0-0.2,0-0.4,0.1-0.7c0.1-0.8,0.2-1.6,0.3-2.4c0-0.2,0.1-0.5,0.1-0.7c0-0.1,0-0.2,0-0.3
			c0.1-0.5,0.1-0.9,0.2-1.4c0.1-0.4,0.1-0.7,0.2-1.1c0.1-0.5,0.2-0.9,0.3-1.4c0-0.1,0-0.2,0.1-0.4c0.1-0.4,0.2-0.8,0.3-1.1
			c0-0.2,0.1-0.3,0.1-0.5c0,0,0-0.1,0-0.1c0.1-0.4,0.2-0.8,0.3-1.2c0.1-0.4,0.2-0.9,0.4-1.3c0,0,0,0,0,0c0.1-0.2,0.1-0.4,0.2-0.6
			c0.1-0.4,0.2-0.8,0.4-1.2c0.1-0.4,0.3-0.9,0.4-1.3c0-0.1,0.1-0.2,0.1-0.4c0.2-0.5,0.3-0.9,0.5-1.4c0.2-0.5,0.4-1,0.6-1.5
			c0-0.1,0.1-0.2,0.1-0.4c0.2-0.4,0.3-0.8,0.5-1.2c0.1-0.3,0.3-0.7,0.4-1c0.1-0.3,0.2-0.5,0.4-0.8c0.1-0.3,0.2-0.5,0.4-0.8
			c0.1-0.3,0.2-0.5,0.4-0.8c0.1-0.3,0.2-0.5,0.4-0.8c0.1-0.3,0.3-0.5,0.4-0.8c0.1-0.1,0.1-0.2,0.2-0.3c0.1-0.1,0.1-0.2,0.2-0.3
			C38.8,34.2,62.3,19,89.4,19h0c0,0,0,0,0,0c3.4,0,6.7,0.2,10,0.7c1.4,0.2,2.8,0.4,4.2,0.7c0.3,0.1,0.6,0.1,0.9,0.2l0.9,0.2
			c0.6,0.1,1.1,0.3,1.7,0.4c0.6,0.1,1.1,0.3,1.6,0.4c0,0,0,0,0,0c0.5,0.2,1.1,0.3,1.6,0.5c0.4,0.1,0.7,0.2,1.1,0.4
			c0.2,0.1,0.4,0.1,0.6,0.2c0.5,0.2,1,0.3,1.5,0.5c0.1,0,0.2,0.1,0.3,0.1c0.8,0.3,1.5,0.6,2.3,0.9c1.9,0.8,3.7,1.6,5.5,2.5
			c0.5,0.2,1,0.5,1.4,0.8c0.5,0.3,1,0.6,1.5,0.8c0.5,0.3,1,0.6,1.4,0.9c1.2,0.7,2.4,1.5,3.6,2.3c0.5,0.3,0.9,0.6,1.4,1
			c0.5,0.3,0.9,0.7,1.4,1.1c0.4,0.3,0.8,0.6,1.2,1c3.5,2.8,6.8,6,9.7,9.5c0.3,0.4,0.6,0.8,0.9,1.1c0.8,0.9,1.5,1.9,2.2,2.8
			c0.3,0.4,0.6,0.9,0.9,1.3c0.8,1.2,1.6,2.4,2.3,3.6c0.6,0.9,1.1,1.9,1.6,2.8c0.1,0.2,0.2,0.3,0.3,0.5c0.1,0.2,0.2,0.3,0.3,0.5
			c0.1,0.2,0.2,0.4,0.3,0.6c0,0,0,0,0,0c0.1,0.2,0.2,0.3,0.2,0.5c0,0.1,0.1,0.2,0.1,0.3l0,0l0,0c0,0.1,0.1,0.2,0.1,0.3
			c0.1,0.2,0.2,0.3,0.2,0.5c0.1,0.3,0.2,0.5,0.4,0.8c0.1,0.2,0.2,0.4,0.3,0.5c0.1,0.2,0.2,0.4,0.3,0.6c0.1,0.1,0.1,0.3,0.2,0.4
			c0.2,0.4,0.4,0.9,0.5,1.3c0,0.1,0.1,0.2,0.1,0.3c0.1,0.1,0.1,0.3,0.2,0.4c0.1,0.1,0.1,0.3,0.2,0.4c0,0.1,0.1,0.2,0.1,0.2
			c0,0.1,0.1,0.2,0.1,0.3c0.1,0.2,0.2,0.4,0.2,0.6c0.1,0.2,0.1,0.3,0.2,0.5c0,0,0,0.1,0,0.1c0,0.1,0.1,0.2,0.1,0.3
			c0,0.1,0.1,0.2,0.1,0.4c0,0,0,0,0,0c0.1,0.2,0.2,0.5,0.2,0.7c0,0,0,0.1,0,0.1c0,0,0,0,0,0c0,0.1,0.1,0.1,0.1,0.2
			c0.1,0.2,0.1,0.4,0.2,0.6c0.1,0.2,0.1,0.4,0.2,0.6c0,0.1,0,0.1,0,0.2c0,0,0,0.1,0,0.1c0.1,0.3,0.2,0.5,0.2,0.8
			c0,0.1,0,0.1,0.1,0.2c0,0.1,0.1,0.2,0.1,0.3c0,0.1,0,0.2,0.1,0.3c0,0,0,0,0,0c0.1,0.3,0.2,0.6,0.2,0.8c0,0.2,0.1,0.3,0.1,0.5
			c0.1,0.4,0.2,0.8,0.3,1.2c0,0,0,0,0,0.1c0,0.1,0,0.1,0,0.2c0,0.1,0,0.2,0.1,0.3c0,0,0,0.1,0,0.1c0.1,0.4,0.2,0.7,0.2,1.1
			c0,0.1,0.1,0.3,0.1,0.4c0.1,0.4,0.2,0.9,0.3,1.3c0.1,0.4,0.1,0.7,0.2,1.1c0.1,0.5,0.2,0.9,0.2,1.4c0,0.1,0,0.2,0,0.3
			c0,0.2,0.1,0.5,0.1,0.7c0.1,0.8,0.2,1.6,0.3,2.4c0,0.1,0,0.2,0,0.2c0.1,1.2,0.2,2.4,0.3,3.6c0,0.3,0,0.6,0,0.9c0,0.3,0,0.6,0,0.9
			C159.8,88.2,159.8,88.8,159.8,89.4z"/>
		<path fill="#231815" d="M20.8,105.5c0,0.1,0,0.1,0,0.2C20.8,105.6,20.8,105.5,20.8,105.5L20.8,105.5z"/>
		<path fill="#231815" d="M21.3,107.5c0.4,1.4,0.8,2.9,1.3,4.3C22.1,110.4,21.7,109,21.3,107.5z"/>
		<path fill="#231815" d="M23.1,113.2L23.1,113.2c-0.1-0.2-0.1-0.3-0.2-0.5C23,112.9,23,113,23.1,113.2z"/>
		<path fill="#231815" d="M155.7,113.2c0.1-0.2,0.1-0.3,0.2-0.5C155.8,112.9,155.8,113,155.7,113.2L155.7,113.2z"/>
		<path fill="#231815" d="M157.5,107.5c-0.4,1.4-0.8,2.9-1.3,4.3C156.7,110.4,157.1,109,157.5,107.5z"/>
		<circle fill="#4A4A4A" cx="89.4" cy="25.5" r="6.6"/>
		<path fill="#231815" d="M96,25.3c-2.2-0.2-4.4-0.3-6.6-0.3c-2.2,0-4.4,0.1-6.5,0.3c0.1-3.5,3-6.3,6.5-6.4h0c0,0,0,0,0,0
			C93,19,95.9,21.8,96,25.3z"/>
		<linearGradient id="SVGID_7_" gradientUnits="userSpaceOnUse" x1="125.9247" y1="115.8057" x2="161.5473" y2="115.8057">
			<stop  offset="0" style="stop-color:#4A4A4A"/>
			<stop  offset="0.3137" style="stop-color:#4E4E4E"/>
			<stop  offset="0.6347" style="stop-color:#5A5A5A"/>
			<stop  offset="0.9581" style="stop-color:#6F6E6E"/>
			<stop  offset="1" style="stop-color:#727171"/>
		</linearGradient>
		<path fill="url(#SVGID_7_)" d="M161.5,115.8c0,1.4-1.2,2.6-2.6,2.6h-30.4c-1.4,0-2.6-1.2-2.6-2.6c0-1.4,1.2-2.6,2.6-2.6h30.4
			C160.4,113.2,161.5,114.4,161.5,115.8z"/>
		<linearGradient id="SVGID_8_" gradientUnits="userSpaceOnUse" x1="16.3427" y1="115.8057" x2="51.9658" y2="115.8057">
			<stop  offset="0" style="stop-color:#4A4A4A"/>
			<stop  offset="0.3137" style="stop-color:#4E4E4E"/>
			<stop  offset="0.6347" style="stop-color:#5A5A5A"/>
			<stop  offset="0.9581" style="stop-color:#6F6E6E"/>
			<stop  offset="1" style="stop-color:#727171"/>
		</linearGradient>
		<path fill="url(#SVGID_8_)" d="M52,115.8c0,1.4-1.2,2.6-2.6,2.6H19c-1.4,0-2.6-1.2-2.6-2.6c0-1.4,1.2-2.6,2.6-2.6h30.4
			C50.8,113.2,52,114.4,52,115.8z"/>
		<path fill="#FFFFFF" d="M157,84.5"/>
		<path fill="#FF8585" d="M157,84.5"/>
		<g>
			<path fill="#FFD622" d="M93.1,46.8L90.9,49c-0.4,0.4-1,0.7-1.6,0.7c-0.6,0-1.2-0.2-1.6-0.7l-2.2-2.2c-0.9-0.9-0.9-2.3,0-3.2
				c0.9-0.9,2.3-0.9,3.2,0l0.6,0.6l0.6-0.6c0.9-0.9,2.3-0.9,3.2,0C94,44.5,94,45.9,93.1,46.8z"/>
		</g>
		<g>
			<g>
				<path fill="#97D457" d="M38.2,110c4.7,0,8.5-3.8,8.5-8.5c0-0.5-0.4-1-1-1c-0.5,0-1,0.4-1,1c0,3.6-2.9,6.6-6.6,6.6
					c-0.5,0-1,0.4-1,1C37.2,109.6,37.6,110,38.2,110z"/>
			</g>
			<g>
				<path fill="#00913A" d="M51.7,87.3c-3.9,3.9-5.6,9.1-5.1,14.1c5,0.4,10.2-1.3,14.1-5.1c3.9-3.9,5.6-9.1,5.1-14.1
					C60.7,81.8,55.6,83.5,51.7,87.3z"/>
				<path fill="#97D457" d="M56.5,97.3c-3.5,0-6.7,1.6-8.8,4.1c2.1,2.5,5.3,4.1,8.8,4.1c3.5,0,6.7-1.6,8.8-4.1
					C63.2,98.9,60,97.3,56.5,97.3z"/>
				<g>
					<circle fill="#FFFFFF" cx="45.4" cy="87.2" r="7.8"/>
					<path fill="#E54360" d="M45,92.5c0.1,0,0.2,0,0.4,0c1.3,0,2.5-0.5,3.5-1.4c1.1-1.1,1.5-2.5,1.4-3.9c-1.4-0.1-2.8,0.3-3.9,1.4
						c-0.5,0.5-0.8,1-1,1.5C45,90.9,44.9,91.7,45,92.5z"/>
					<path fill="#E54360" d="M41.9,84.1c-1.1,1.1-1.5,2.5-1.4,3.9c1.4,0.1,2.8-0.3,3.9-1.4c1.1-1.1,1.5-2.5,1.4-3.9
						C44.4,82.6,42.9,83.1,41.9,84.1z"/>
					<path fill="#FF6585" d="M41.9,91.1c1.1,1.1,2.5,1.5,3.9,1.4c0.1-1.4-0.3-2.8-1.4-3.9c-1.1-1.1-2.5-1.5-3.9-1.4
						C40.3,88.6,40.8,90.1,41.9,91.1z"/>
					<path fill="#FF8585" d="M45,92.5c0.1,0,0.2,0,0.4,0c0.1,0,0.3,0,0.4,0c0.1-0.8-0.1-1.6-0.4-2.3C45,90.9,44.9,91.7,45,92.5z"/>
					<path fill="#FF6585" d="M48.8,84.1c-1.1-1.1-2.5-1.5-3.9-1.4c-0.1,1.4,0.3,2.8,1.4,3.9c1.1,1.1,2.5,1.5,3.9,1.4
						C50.4,86.6,49.9,85.2,48.8,84.1z"/>
					<path fill="#FF8585" d="M45.7,82.7c-0.1,0-0.2,0-0.4,0c-0.1,0-0.3,0-0.4,0c-0.1,0.8,0.1,1.6,0.4,2.3
						C45.7,84.3,45.8,83.5,45.7,82.7z"/>
					<path fill="#FF8585" d="M39.2,92.9c0.1,0.2,0.3,0.3,0.4,0.5c1.5,1.5,3.5,2.4,5.8,2.4c2.5,0,4.7-1.1,6.2-2.9
						c-1.5-1.8-3.7-2.9-6.2-2.9c-1.1,0-2.1,0.2-3,0.6C41.1,91.1,40,91.9,39.2,92.9z"/>
					<path fill="#FF8585" d="M45.4,79.4c-2.5,0-4.7,1.1-6.2,2.9c1.5,1.8,3.7,2.9,6.2,2.9c2.5,0,4.7-1.1,6.2-2.9
						C50.1,80.6,47.8,79.4,45.4,79.4z"/>
					<path fill="#FF8585" d="M37.2,87.6c0,2.5,1.1,4.7,2.9,6.2c1.8-1.5,2.9-3.7,2.9-6.2c0-2.5-1.1-4.7-2.9-6.2
						C38.3,82.9,37.2,85.2,37.2,87.6z"/>
					<path fill="#FF8585" d="M39.2,92.9c0.1,0.2,0.3,0.3,0.4,0.5c0.1,0.1,0.3,0.3,0.5,0.4c1-0.8,1.8-1.9,2.3-3.2
						C41.1,91.1,40,91.9,39.2,92.9z"/>
					<path fill="#FF8585" d="M53.5,87.6c0-2.5-1.1-4.7-2.9-6.2c-1.8,1.5-2.9,3.7-2.9,6.2c0,2.5,1.1,4.7,2.9,6.2
						C52.4,92.3,53.5,90.1,53.5,87.6z"/>
					<path fill="#FF8585" d="M51.5,82.3c-0.1-0.2-0.3-0.3-0.4-0.5c-0.1-0.1-0.3-0.3-0.5-0.4c-1,0.8-1.8,1.9-2.3,3.2
						C49.6,84.1,50.7,83.3,51.5,82.3z"/>
					<path fill="#FF6585" d="M44.3,101.8c0.4,0,0.7,0,1.1,0c3.7,0,7.3-1.3,10.1-4.1c3.1-3.1,4.4-7.2,4.1-11.2c-4-0.3-8.1,1-11.2,4.1
						c-1.3,1.3-2.3,2.8-3,4.4C44.4,97.2,44.1,99.5,44.3,101.8z"/>
					<path fill="#FF6585" d="M35.3,77.5c-3.1,3.1-4.4,7.2-4.1,11.2c4,0.3,8.1-1,11.2-4.1c3.1-3.1,4.4-7.2,4.1-11.2
						C42.4,73.1,38.3,74.5,35.3,77.5z"/>
					<path fill="#E54360" d="M35.3,97.7c3.1,3.1,7.2,4.4,11.2,4.1c0.3-4-1-8.1-4.1-11.2c-3.1-3.1-7.2-4.4-11.2-4.1
						C30.8,90.6,32.2,94.7,35.3,97.7z"/>
					<path fill="#E54360" d="M55.5,77.5c-3.1-3.1-7.2-4.4-11.2-4.1c-0.3,4,1,8.1,4.1,11.2c3.1,3.1,7.2,4.4,11.2,4.1
						C59.9,84.7,58.5,80.6,55.5,77.5z"/>
				</g>
			</g>
		</g>
		<g>
			<g>
				<path fill="#97D457" d="M139.7,109.6c-4.7,0-8.5-3.8-8.5-8.5c0-0.5,0.4-1,1-1c0.5,0,1,0.4,1,1c0,3.6,2.9,6.6,6.6,6.6
					c0.5,0,1,0.4,1,1C140.7,109.2,140.2,109.6,139.7,109.6z"/>
			</g>
			<path fill="#00913A" d="M127.3,88.1c3.9,3.9,5.6,9.1,5.1,14.1c-5,0.4-10.2-1.3-14.1-5.1c-3.9-3.9-5.6-9.1-5.1-14.1
				C118.3,82.5,123.5,84.2,127.3,88.1z"/>
			<path fill="#97D457" d="M122.6,98.1c3.5,0,6.7,1.6,8.8,4.1c-2.1,2.5-5.3,4.1-8.8,4.1c-3.5,0-6.7-1.6-8.8-4.1
				C115.8,99.7,119,98.1,122.6,98.1z"/>
			<g>
				<circle fill="#FFFFFF" cx="133" cy="88.5" r="7.4"/>
				<g>
					<path fill="#FF8585" d="M131.5,73.3h0.1v0C131.6,73.3,131.5,73.3,131.5,73.3z"/>
					<path fill="#69AAF5" d="M137.9,88.1c0,0.1,0,0.2,0,0.4c0,1.3-0.5,2.5-1.4,3.5c-1.1,1.1-2.5,1.5-3.9,1.4
						c-0.1-1.4,0.3-2.8,1.4-3.9c0.5-0.5,1-0.8,1.5-1C136.3,88.2,137.1,88,137.9,88.1z"/>
					<path fill="#FFD622" d="M129.5,85c1.1-1.1,2.5-1.5,3.9-1.4c0.1,1.4-0.3,2.8-1.4,3.9c-1.1,1.1-2.5,1.5-3.9,1.4
						C128,87.5,128.5,86,129.5,85z"/>
					<path fill="#97D457" d="M136.5,85c1.1,1.1,1.5,2.5,1.4,3.9c-1.4,0.1-2.8-0.3-3.9-1.4c-1.1-1.1-1.5-2.5-1.4-3.9
						C134,83.5,135.4,83.9,136.5,85z"/>
					<path fill="#FF8585" d="M137.9,88.1c0,0.1,0,0.2,0,0.4c0,0.1,0,0.3,0,0.4c-0.8,0.1-1.6-0.1-2.3-0.4
						C136.3,88.2,137.1,88,137.9,88.1z"/>
					<path fill="#C273FF" d="M129.5,92c-1.1-1.1-1.5-2.5-1.4-3.9c1.4-0.1,2.8,0.3,3.9,1.4c1.1,1.1,1.5,2.5,1.4,3.9
						C132,93.5,130.6,93,129.5,92z"/>
					<path fill="#FF8585" d="M128.1,88.8c0-0.1,0-0.2,0-0.4c0-0.1,0-0.3,0-0.4c0.8-0.1,1.6,0.1,2.3,0.4
						C129.7,88.8,128.9,88.9,128.1,88.8z"/>
					<path fill="#C273FF" d="M138.3,82.3c0.2,0.1,0.3,0.3,0.5,0.4c1.5,1.5,2.4,3.5,2.4,5.8c0,2.5-1.1,4.7-2.9,6.2
						c-1.8-1.5-2.9-3.7-2.9-6.2c0-1.1,0.2-2.1,0.6-3C136.5,84.2,137.3,83.1,138.3,82.3z"/>
					<path fill="#FFB43A" d="M124.8,88.5c0-2.5,1.1-4.7,2.9-6.2c1.8,1.5,2.9,3.7,2.9,6.2c0,2.5-1.1,4.7-2.9,6.2
						C126,93.2,124.8,91,124.8,88.5z"/>
					<path fill="#69AAF5" d="M133,80.3c2.5,0,4.7,1.1,6.2,2.9c-1.5,1.8-3.7,2.9-6.2,2.9c-2.5,0-4.7-1.1-6.2-2.9
						C128.3,81.4,130.5,80.3,133,80.3z"/>
					<path fill="#FF8585" d="M138.3,82.3c0.2,0.1,0.3,0.3,0.5,0.4c0.1,0.1,0.3,0.3,0.4,0.5c-0.8,1-1.9,1.8-3.2,2.3
						C136.5,84.2,137.3,83.1,138.3,82.3z"/>
					<path fill="#FF8585" d="M133,96.7c-2.5,0-4.7-1.1-6.2-2.9c1.5-1.8,3.7-2.9,6.2-2.9c2.5,0,4.7,1.1,6.2,2.9
						C137.7,95.5,135.5,96.7,133,96.7z"/>
					<path fill="#FF8585" d="M127.7,94.7c-0.2-0.1-0.3-0.3-0.5-0.4c-0.1-0.1-0.3-0.3-0.4-0.5c0.8-1,1.9-1.8,3.2-2.3
						C129.5,92.7,128.7,93.8,127.7,94.7z"/>
					<path fill="#FFB43A" d="M147.2,87.4c0,0.4,0,0.7,0,1.1c0,3.7-1.3,7.3-4.1,10.1c-3.1,3.1-7.2,4.4-11.2,4.1
						c-0.3-4,1-8.1,4.1-11.2c1.3-1.3,2.8-2.3,4.4-3C142.6,87.5,144.9,87.2,147.2,87.4z"/>
					<path fill="#97D457" d="M122.9,78.4c3.1-3.1,7.2-4.4,11.2-4.1c0.3,4-1,8.1-4.1,11.2c-3.1,3.1-7.2,4.4-11.2,4.1
						C118.5,85.6,119.9,81.4,122.9,78.4z"/>
					<path fill="#FF8585" d="M143.1,78.4c3.1,3.1,4.4,7.2,4.1,11.2c-4,0.3-8.1-1-11.2-4.1c-3.1-3.1-4.4-7.2-4.1-11.2
						C135.9,74,140.1,75.3,143.1,78.4z"/>
					<path fill="#FFD622" d="M122.9,98.6c-3.1-3.1-4.4-7.2-4.1-11.2c4-0.3,8.1,1,11.2,4.1c3.1,3.1,4.4,7.2,4.1,11.2
						C130.1,103,126,101.6,122.9,98.6z"/>
				</g>
			</g>
			<path fill="#FFFFFF" d="M150.6,112.4c0,0.5-0.1,1.1-0.2,1.6c-0.4,1.1-1.4,1.8-2.6,1.8h-8.1c-1.2,0-2.2-0.8-2.6-1.8
				c-0.1-0.5-0.2-1-0.2-1.6c0-0.5,0.1-1.1,0.2-1.6c0.7-3,3.4-5.3,6.7-5.3c3.3,0,6,2.3,6.7,5.3C150.6,111.3,150.6,111.8,150.6,112.4z
				"/>
		</g>
		<path fill="#FFFFFF" d="M41.8,112.4c0,0.5-0.1,1.1-0.2,1.6c-0.4,1.1-1.4,1.8-2.6,1.8h-8.1c-1.2,0-2.2-0.8-2.6-1.8
			c-0.1-0.5-0.2-1-0.2-1.6c0-0.5,0.1-1.1,0.2-1.6c0.7-3,3.4-5.3,6.7-5.3c3.3,0,6,2.3,6.7,5.3C41.7,111.3,41.8,111.8,41.8,112.4z"/>
	</g>
</g>
</svg>
