<?xml version="1.0" encoding="utf-8"?>
<!-- Generator: Adobe Illustrator 17.1.0, SVG Export Plug-In . SVG Version: 6.00 Build 0)  -->
<!DOCTYPE svg PUBLIC "-//W3C//DTD SVG 1.1//EN" "http://www.w3.org/Graphics/SVG/1.1/DTD/svg11.dtd">
<svg version="1.1" xmlns="http://www.w3.org/2000/svg" xmlns:xlink="http://www.w3.org/1999/xlink" x="0px" y="0px"
	 viewBox="0 0 172.5 172.5" enable-background="new 0 0 172.5 172.5" xml:space="preserve">
<g id="圖層_2">
</g>
<g id="圖層_1">
	<g>
		<path fill="#FFFFFF" d="M0,86.3c0,42.9,31.4,78.5,72.4,85.1c4.5,0.7,9.1,1.1,13.9,1.1c0.9,0,1.9,0,2.8,0
			c5.7-0.2,11.3-0.9,16.7-2.2c5.8-1.3,11.4-3.3,16.7-5.7c6-2.8,11.6-6.2,16.7-10.2c6.3-4.9,11.9-10.7,16.7-17.1
			c10.5-14.3,16.7-31.9,16.7-51c0-19.1-6.2-36.7-16.7-51c-4.7-6.5-10.4-12.2-16.7-17.1c-5.1-4-10.7-7.4-16.7-10.2
			c-5.3-2.5-10.9-4.4-16.7-5.7c-5.4-1.2-11-2-16.7-2.2c-0.9,0-1.9,0-2.8,0c-4.7,0-9.3,0.4-13.9,1.1C31.4,7.7,0,43.3,0,86.3z"/>
		
			<linearGradient id="SVGID_1_" gradientUnits="userSpaceOnUse" x1="-1721.1893" y1="86.2553" x2="-1648.785" y2="86.2553" gradientTransform="matrix(-1 0 0 1 -1648.7852 0)">
			<stop  offset="5.235600e-03" style="stop-color:#4A4A4A"/>
			<stop  offset="7.060680e-02" style="stop-color:#484848"/>
			<stop  offset="0.5114" style="stop-color:#413D3D"/>
			<stop  offset="0.9948" style="stop-color:#3E3A39"/>
		</linearGradient>
		<path fill="url(#SVGID_1_)" d="M0,86.3c0,42.9,31.4,78.5,72.4,85.1V1.1C31.4,7.7,0,43.3,0,86.3z"/>
		<g>
			<path fill="#FF4747" d="M0,19.4l0,61.4c0,1.3,0.7,2.4,1.8,3.1c0.5,0.3,1.2,0.5,1.8,0.5c0.6,0,1.2-0.2,1.8-0.5l53.2-30.7
				c1.1-0.6,1.8-1.8,1.8-3.1c0-1.3-0.7-2.4-1.8-3.1L5.3,16.4c-0.5-0.3-1.2-0.5-1.8-0.5c-0.6,0-1.2,0.2-1.8,0.5C0.7,17,0,18.2,0,19.4
				z"/>
		</g>
		<path fill="#FFFFFF" d="M13.9,62.9c-0.3,0-0.5-0.1-0.7-0.3c-0.2-0.2-0.3-0.4-0.3-0.7v-0.9c0-0.6,0.2-1.2,0.7-1.6
			c2.7-2.4,4.7-4.5,6-6.3c1.3-1.7,2-3.3,2-4.6c0-0.9-0.2-1.7-0.7-2.2c-0.5-0.5-1.1-0.8-2-0.8c-0.9,0-1.9,0.4-2.8,1.3
			c-0.2,0.2-0.4,0.3-0.7,0.3c-0.3,0-0.5-0.1-0.7-0.3l-1.3-1.3c-0.2-0.2-0.3-0.4-0.3-0.7c0-0.3,0.1-0.5,0.3-0.7
			c0.9-0.9,1.9-1.5,2.8-1.9c1-0.4,2.1-0.6,3.4-0.6c2,0,3.7,0.6,4.9,1.8c1.3,1.2,1.9,2.8,1.9,4.8c0,2.9-2.1,6.5-6.2,10.7
			c0,0,0,0,0,0.1c0,0,0,0,0,0c1.3-0.2,2.4-0.3,3.3-0.3h2.9c0.3,0,0.5,0.1,0.7,0.3c0.2,0.2,0.3,0.4,0.3,0.7V62c0,0.3-0.1,0.5-0.3,0.7
			c-0.2,0.2-0.4,0.3-0.7,0.3H13.9z"/>
		<path fill="#C273FF" d="M146.1,41.2v90.1c9.3-12.6,14.7-28.2,14.7-45.1C160.9,69.4,155.4,53.8,146.1,41.2z"/>
		<path fill="#69AAF5" d="M131.4,26v120.4c5.6-4.3,10.6-9.4,14.7-15.2V41.2C141.9,35.5,137,30.4,131.4,26z"/>
		<path fill="#97D457" d="M116.6,17.1v138.4c5.3-2.4,10.2-5.5,14.7-9V26C126.8,22.5,121.9,19.5,116.6,17.1z"/>
		<path fill="#FFD622" d="M101.9,12v148.5c5.1-1.2,10.1-2.9,14.7-5.1V17.1C112,14.9,107,13.2,101.9,12z"/>
		<path fill="#FFB43A" d="M87.1,10.1v152.4c5.1-0.2,10-0.8,14.7-1.9V12C97.1,10.9,92.2,10.2,87.1,10.1z"/>
		<path fill="#FF8585" d="M72.4,11v150.5c4,0.6,8.1,1,12.2,1c0.8,0,1.7,0,2.5,0V10.1c-0.8,0-1.7,0-2.5,0C80.5,10,76.4,10.4,72.4,11z
			"/>
		<g>
			<path fill="#FFFFFF" d="M109.3,88.2c2.9,0,5.3-2.4,5.3-5.3V79c0-2.9-2.4-5.3-5.3-5.3c-2.9,0-5.3,2.4-5.3,5.3v3.9
				C104,85.8,106.4,88.2,109.3,88.2z"/>
		</g>
		<g>
			<path fill="#FFFFFF" d="M138.8,88.2c2.9,0,5.3-2.4,5.3-5.3V79c0-2.9-2.4-5.3-5.3-5.3c-2.9,0-5.3,2.4-5.3,5.3v3.9
				C133.5,85.8,135.8,88.2,138.8,88.2z"/>
		</g>
		<g>
			<path fill="#FFFFFF" d="M124,116.1c1.7,0,3.3-0.8,4.3-2.3c1.7-2.4,1.1-5.7-1.3-7.3l-14.7-10.2c-2.4-1.7-5.7-1.1-7.3,1.3
				c-1.7,2.4-1.1,5.7,1.3,7.3l14.7,10.2C121.9,115.8,123,116.1,124,116.1z"/>
		</g>
	</g>
</g>
</svg>
