<?xml version="1.0" encoding="utf-8"?>
<!-- Generator: Adobe Illustrator 17.1.0, SVG Export Plug-In . SVG Version: 6.00 Build 0)  -->
<!DOCTYPE svg PUBLIC "-//W3C//DTD SVG 1.1//EN" "http://www.w3.org/Graphics/SVG/1.1/DTD/svg11.dtd">
<svg version="1.1" xmlns="http://www.w3.org/2000/svg" xmlns:xlink="http://www.w3.org/1999/xlink" x="0px" y="0px"
	 viewBox="0 0 172.6 172.5" enable-background="new 0 0 172.6 172.5" xml:space="preserve">
<g id="圖層_2">
</g>
<g id="圖層_1">
	<g>
		<radialGradient id="SVGID_1_" cx="86.3892" cy="86.2553" r="86.2553" gradientUnits="userSpaceOnUse">
			<stop  offset="0" style="stop-color:#DCDDDD"/>
			<stop  offset="0.1026" style="stop-color:#EBEBEB"/>
			<stop  offset="0.2446" style="stop-color:#F6F7F7"/>
			<stop  offset="0.4447" style="stop-color:#FDFDFD"/>
			<stop  offset="1" style="stop-color:#FFFFFF"/>
		</radialGradient>
		<circle fill="url(#SVGID_1_)" cx="86.4" cy="86.3" r="86.3"/>
		<g>
			<path fill="#DCDDDD" d="M85.7,152.1c-36.2,0-65.7-29.5-65.7-65.7s29.5-65.7,65.7-65.7c36.2,0,65.7,29.5,65.7,65.7
				S121.9,152.1,85.7,152.1z M85.7,22.5c-35.2,0-63.9,28.7-63.9,63.9s28.7,63.9,63.9,63.9c35.2,0,63.9-28.7,63.9-63.9
				S121,22.5,85.7,22.5z"/>
		</g>
		<g>
			<g>
				<path fill="#FF4747" d="M0,19.4l0,61.4c0,1.3,0.7,2.4,1.8,3.1c0.5,0.3,1.2,0.5,1.8,0.5c0.6,0,1.2-0.2,1.8-0.5l53.2-30.7
					c1.1-0.6,1.8-1.8,1.8-3.1c0-1.3-0.7-2.4-1.8-3.1L5.3,16.4c-0.5-0.3-1.2-0.5-1.8-0.5c-0.6,0-1.2,0.2-1.8,0.5
					C0.7,17,0,18.2,0,19.4z"/>
			</g>
			<path fill="#FFFFFF" d="M17.8,58.9c-0.3,0-0.5-0.1-0.7-0.3c-0.2-0.2-0.3-0.4-0.3-0.7v-2.1c0-0.3,0.1-0.5,0.3-0.7
				c0.2-0.2,0.4-0.3,0.7-0.3h3.3c0.1,0,0.1,0,0.1-0.1V43.1c0-0.1,0-0.1-0.1-0.1h-2.7c-0.3,0-0.5-0.1-0.7-0.3
				c-0.2-0.2-0.3-0.4-0.3-0.7v-1.2c0-0.3,0.1-0.5,0.3-0.7c0.2-0.2,0.4-0.4,0.7-0.4c1.3-0.3,2.4-0.7,3.4-1.2c0.6-0.3,1.2-0.5,1.8-0.5
				h1.7c0.3,0,0.5,0.1,0.7,0.3c0.2,0.2,0.3,0.4,0.3,0.7v15.7c0,0.1,0,0.1,0.1,0.1h2.7c0.3,0,0.5,0.1,0.7,0.3
				c0.2,0.2,0.3,0.4,0.3,0.7v2.1c0,0.3-0.1,0.5-0.3,0.7c-0.2,0.2-0.4,0.3-0.7,0.3H17.8z"/>
		</g>
		<g>
			<circle fill="#4A4A4A" cx="85.6" cy="85.7" r="11.7"/>
			<path fill="#4A4A4A" d="M92.4,81.9c0,3.6-2.9,6.5-6.5,6.5l0,0c-3.6,0-6.5-2.9-6.5-6.5v-54c0-3.6,2.9-6.5,6.5-6.5l0,0
				c3.6,0,6.5,2.9,6.5,6.5V81.9z"/>
			<path fill="#4A4A4A" d="M113,67.5c2.6-2.6,2.6-6.7,0-9.3l0,0c-2.6-2.6-6.7-2.6-9.3,0L81.5,80.5c-2.6,2.6-2.6,6.7,0,9.3l0,0
				c2.6,2.6,6.7,2.6,9.3,0L113,67.5z"/>
			<circle fill="#69AAF5" cx="85.6" cy="85.7" r="6.1"/>
		</g>
		<g>
			<g>
				<path fill="#FF8585" d="M135.2,35.3C135.2,35.3,135.2,35.3,135.2,35.3c-1.3,0-2.3,1-2.3,2.3l0,6.5c0,1.3,1,2.3,2.3,2.3l0,0
					c1.3,0,2.3-1,2.3-2.3l0-6.5C137.6,36.4,136.5,35.3,135.2,35.3z"/>
			</g>
			<g>
				<path fill="#FF8585" d="M135.2,41.9h-6.5c-1.3,0-2.3,1-2.3,2.3s1,2.3,2.3,2.3h6.5c1.3,0,2.3-1,2.3-2.3S136.5,41.9,135.2,41.9z"
					/>
			</g>
		</g>
		<g>
			<g>
				<path fill="#C273FF" d="M25.4,89.5c-0.6,0-1.2-0.2-1.7-0.7l-4.6-4.6c-0.9-0.9-0.9-2.4,0-3.3c0.9-0.9,2.4-0.9,3.3,0l4.6,4.6
					c0.9,0.9,0.9,2.4,0,3.3C26.6,89.3,26,89.5,25.4,89.5z"/>
			</g>
			<g>
				<path fill="#C273FF" d="M16.2,89.5c-0.6,0-1.2-0.2-1.7-0.7c-0.9-0.9-0.9-2.4,0-3.3l4.6-4.6c0.9-0.9,2.4-0.9,3.3,0
					c0.9,0.9,0.9,2.4,0,3.3l-4.6,4.6C17.4,89.3,16.8,89.5,16.2,89.5z"/>
			</g>
		</g>
		<g>
			<g>
				<path fill="#69AAF5" d="M44.1,131.6h-6.5c-1.3,0-2.3-1-2.3-2.3s1-2.3,2.3-2.3h6.5c1.3,0,2.3,1,2.3,2.3S45.4,131.6,44.1,131.6z"
					/>
			</g>
			<g>
				<path fill="#69AAF5" d="M37.6,138.2c-1.3,0-2.3-1-2.3-2.3v-6.5c0-1.3,1-2.3,2.3-2.3c1.3,0,2.3,1,2.3,2.3v6.5
					C39.9,137.1,38.9,138.2,37.6,138.2z"/>
			</g>
		</g>
		<g>
			<g>
				<path fill="#97D457" d="M82.5,152.8c-0.6,0-1.2-0.2-1.7-0.7c-0.9-0.9-0.9-2.4,0-3.3l4.6-4.6c0.9-0.9,2.4-0.9,3.3,0
					s0.9,2.4,0,3.3l-4.6,4.6C83.7,152.6,83.1,152.8,82.5,152.8z"/>
			</g>
			<g>
				<path fill="#97D457" d="M87.1,157.4c-0.6,0-1.2-0.2-1.7-0.7l-4.6-4.6c-0.9-0.9-0.9-2.4,0-3.3c0.9-0.9,2.4-0.9,3.3,0l4.6,4.6
					c0.9,0.9,0.9,2.4,0,3.3C88.3,157.2,87.7,157.4,87.1,157.4z"/>
			</g>
		</g>
		<g>
			<g>
				<path fill="#FFD622" d="M129.2,136c-1.3,0-2.3-1-2.3-2.3v-6.5c0-1.3,1-2.3,2.3-2.3c1.3,0,2.3,1,2.3,2.3v6.5
					C131.6,135,130.5,136,129.2,136z"/>
			</g>
			<g>
				<path fill="#FFD622" d="M135.8,136h-6.5c-1.3,0-2.3-1-2.3-2.3c0-1.3,1-2.3,2.3-2.3h6.5c1.3,0,2.3,1,2.3,2.3
					C138.1,135,137.1,136,135.8,136z"/>
			</g>
		</g>
		<g>
			<g>
				<path fill="#FFB43A" d="M150.4,91.1c-0.6,0-1.2-0.2-1.7-0.7l-4.6-4.6c-0.9-0.9-0.9-2.4,0-3.3c0.9-0.9,2.4-0.9,3.3,0l4.6,4.6
					c0.9,0.9,0.9,2.4,0,3.3C151.6,90.9,151,91.1,150.4,91.1z"/>
			</g>
			<g>
				<path fill="#FFB43A" d="M150.4,91.1c-0.6,0-1.2-0.2-1.7-0.7c-0.9-0.9-0.9-2.4,0-3.3l4.6-4.6c0.9-0.9,2.4-0.9,3.3,0
					c0.9,0.9,0.9,2.4,0,3.3l-4.6,4.6C151.6,90.9,151,91.1,150.4,91.1z"/>
			</g>
		</g>
	</g>
</g>
</svg>
