<?xml version="1.0" encoding="utf-8"?>
<!-- Generator: Adobe Illustrator 17.1.0, SVG Export Plug-In . SVG Version: 6.00 Build 0)  -->
<!DOCTYPE svg PUBLIC "-//W3C//DTD SVG 1.1//EN" "http://www.w3.org/Graphics/SVG/1.1/DTD/svg11.dtd">
<svg version="1.1" xmlns="http://www.w3.org/2000/svg" xmlns:xlink="http://www.w3.org/1999/xlink" x="0px" y="0px"
	 viewBox="0 0 172.5 172.5" enable-background="new 0 0 172.5 172.5" xml:space="preserve">
<g id="圖層_2">
</g>
<g id="圖層_1">
	<g>
		<circle fill="#FFFFFF" cx="86.3" cy="86.3" r="86.3"/>
		<g>
			<path fill="#4A4A4A" d="M106.1,76.1c-3.1,1.5-5.9,4-7.7,7.2c-2,3.4-2.7,7.2-2.4,10.8c-3.5-0.2-7.1,0.5-10.3,2.4
				c-3.4,2-5.9,4.9-7.5,8.2c-2.9-1.9-6.4-3.1-10.1-3.1c-3.9,0-7.6,1.2-10.6,3.4c-1.5-3.1-4-5.9-7.2-7.7c-3.4-2-7.2-2.7-10.8-2.4
				c0.2-3.5-0.5-7.1-2.4-10.3c-2-3.4-4.9-5.9-8.2-7.5c1.9-2.9,3.1-6.4,3.1-10.1c0-3.9-1.2-7.6-3.4-10.6c3.1-1.5,5.9-4,7.7-7.2
				c2-3.4,2.7-7.2,2.4-10.8c3.5,0.2,7.1-0.5,10.3-2.4c3.4-2,6-4.9,7.5-8.2c2.9,1.9,6.4,3.1,10.1,3.1c3.9,0,7.6-1.2,10.6-3.4
				c1.5,3.1,4,5.9,7.2,7.7c3.4,2,7.2,2.7,10.8,2.4c-0.2,3.5,0.5,7.1,2.4,10.3c2,3.4,4.9,5.9,8.2,7.5c-1.9,2.9-3.1,6.4-3.1,10.1
				C102.7,69.4,104,73.1,106.1,76.1z"/>
		</g>
		<g>
			<path fill="#FFB43A" d="M96.2,73.5c-2.3,1.1-4.4,3-5.7,5.4c-1.5,2.5-2,5.4-1.8,8.1c-2.6-0.2-5.3,0.4-7.7,1.8
				c-2.5,1.5-4.4,3.6-5.6,6.1c-2.2-1.4-4.8-2.3-7.6-2.3c-2.9,0-5.7,0.9-7.9,2.5c-1.1-2.3-3-4.4-5.4-5.7c-2.5-1.5-5.4-2-8.1-1.8
				c0.2-2.6-0.4-5.3-1.8-7.7c-1.5-2.5-3.6-4.4-6.1-5.6c1.4-2.2,2.3-4.8,2.3-7.6c0-2.9-0.9-5.7-2.5-7.9c2.3-1.2,4.4-3,5.7-5.4
				c1.5-2.5,2-5.4,1.8-8.1c2.6,0.2,5.3-0.4,7.7-1.8c2.5-1.5,4.4-3.6,5.6-6.1c2.2,1.4,4.8,2.3,7.6,2.3c2.9,0,5.7-0.9,7.9-2.5
				c1.1,2.3,3,4.4,5.4,5.8c2.5,1.5,5.4,2,8.1,1.8c-0.2,2.6,0.4,5.3,1.8,7.7c1.5,2.5,3.6,4.4,6.1,5.6c-1.4,2.2-2.3,4.8-2.3,7.5
				C93.7,68.6,94.6,71.3,96.2,73.5z"/>
		</g>
		<g>
			<polygon fill="#4A4A4A" points="25.7,116.7 41,84.4 50.4,90.8 			"/>
		</g>
		<g>
			<path fill="#FFFFFF" d="M67.3,81.6c-8.5,0-15.4-6.9-15.4-15.4c0-8.5,6.9-15.4,15.4-15.4c8.5,0,15.4,6.9,15.4,15.4
				C82.7,74.7,75.8,81.6,67.3,81.6z M67.3,56.3c-5.5,0-9.9,4.5-9.9,9.9c0,5.5,4.5,9.9,9.9,9.9c5.5,0,9.9-4.5,9.9-9.9
				C77.2,60.8,72.8,56.3,67.3,56.3z"/>
		</g>
		<g>
			<g>
				<polygon fill="#3E3A39" points="136.4,148.9 109.4,125.5 118.2,118.1 				"/>
			</g>
			<g>
				<path fill="#3E3A39" d="M151.7,108.1c-3.1,1.5-5.9,4-7.7,7.2c-2,3.4-2.7,7.2-2.4,10.8c-3.5-0.2-7.1,0.5-10.3,2.4
					c-3.4,2-5.9,4.9-7.5,8.2c-2.9-1.9-6.4-3.1-10.1-3.1c-3.9,0-7.6,1.2-10.6,3.4c-1.5-3.1-4-5.9-7.2-7.7c-3.4-2-7.2-2.7-10.8-2.4
					c0.2-3.5-0.5-7.1-2.4-10.3c-2-3.4-4.9-5.9-8.2-7.5c1.9-2.9,3.1-6.4,3.1-10.1c0-3.9-1.2-7.6-3.4-10.6c3.1-1.5,5.9-4,7.7-7.2
					c2-3.4,2.7-7.2,2.4-10.8c3.5,0.2,7.1-0.5,10.3-2.4c3.4-2,6-4.9,7.5-8.2c2.9,1.9,6.4,3.1,10.1,3.1c3.9,0,7.6-1.2,10.6-3.4
					c1.5,3.1,4,5.9,7.2,7.7c3.4,2,7.2,2.7,10.8,2.4c-0.2,3.5,0.5,7.1,2.4,10.3c2,3.4,4.9,5.9,8.2,7.5c-1.9,2.9-3.1,6.4-3.1,10.1
					C148.3,101.5,149.6,105.1,151.7,108.1z"/>
			</g>
			<g>
				<path fill="#C273FF" d="M141.8,105.6c-2.3,1.1-4.4,3-5.7,5.4c-1.5,2.5-2,5.4-1.8,8.1c-2.6-0.2-5.3,0.4-7.7,1.8
					c-2.5,1.5-4.4,3.6-5.6,6.1c-2.2-1.4-4.8-2.3-7.6-2.3c-2.9,0-5.6,0.9-7.9,2.5c-1.1-2.3-3-4.4-5.4-5.7c-2.5-1.5-5.4-2-8.1-1.8
					c0.2-2.6-0.4-5.3-1.8-7.7c-1.5-2.5-3.6-4.4-6.1-5.6c1.4-2.2,2.3-4.8,2.3-7.6c0-2.9-0.9-5.6-2.5-7.9c2.3-1.2,4.4-3,5.7-5.4
					c1.5-2.5,2-5.4,1.8-8.1c2.6,0.2,5.3-0.4,7.7-1.8c2.5-1.5,4.4-3.6,5.6-6.1c2.2,1.4,4.8,2.3,7.5,2.3c2.9,0,5.7-0.9,7.9-2.5
					c1.1,2.3,3,4.4,5.4,5.8c2.5,1.5,5.4,2,8.1,1.8c-0.2,2.6,0.4,5.3,1.8,7.7c1.5,2.5,3.6,4.4,6.1,5.6c-1.4,2.2-2.3,4.8-2.3,7.5
					C139.3,100.7,140.2,103.4,141.8,105.6z"/>
			</g>
			<g>
				<g>
					<path fill="#FFFFFF" d="M121.9,110.1c-0.7,0-1.4-0.3-1.9-0.8l-18.1-18.1c-1.1-1.1-1.1-2.8,0-3.9c1.1-1.1,2.8-1.1,3.9,0
						l18.1,18.1c1.1,1.1,1.1,2.8,0,3.9C123.3,109.8,122.6,110.1,121.9,110.1z"/>
				</g>
				<g>
					<path fill="#FFFFFF" d="M103.9,110.1c-0.7,0-1.4-0.3-1.9-0.8c-1.1-1.1-1.1-2.8,0-3.9L120,87.4c1.1-1.1,2.8-1.1,3.9,0
						c1.1,1.1,1.1,2.8,0,3.9l-18.1,18.1C105.3,109.8,104.6,110.1,103.9,110.1z"/>
				</g>
			</g>
		</g>
		<g>
			<path fill="#3E3A39" d="M77.6,134.3c-1.6,0.8-3,2-3.9,3.7c-1,1.7-1.4,3.6-1.2,5.5c-1.8-0.1-3.6,0.3-5.2,1.2c-1.7,1-3,2.5-3.8,4.1
				c-1.5-1-3.2-1.5-5.1-1.5c-2,0-3.8,0.6-5.3,1.7c-0.8-1.6-2-3-3.7-3.9c-1.7-1-3.6-1.4-5.5-1.2c0.1-1.8-0.3-3.6-1.2-5.2
				c-1-1.7-2.5-3-4.1-3.8c1-1.5,1.5-3.2,1.5-5.1c0-2-0.6-3.8-1.7-5.3c1.6-0.8,3-2,3.9-3.7c1-1.7,1.4-3.6,1.2-5.5
				c1.8,0.1,3.6-0.3,5.2-1.2c1.7-1,3-2.5,3.8-4.1c1.5,1,3.2,1.5,5.1,1.5c2,0,3.8-0.6,5.3-1.7c0.8,1.6,2,3,3.7,3.9
				c1.7,1,3.6,1.4,5.5,1.2c-0.1,1.8,0.3,3.6,1.2,5.2c1,1.7,2.5,3,4.1,3.8c-1,1.5-1.5,3.2-1.5,5.1C75.9,130.9,76.5,132.7,77.6,134.3z
				"/>
		</g>
		<g>
			<path fill="#97D457" d="M69.7,132.3c-0.9,0.5-1.8,1.2-2.3,2.2c-0.6,1-0.8,2.2-0.7,3.3c-1-0.1-2.1,0.2-3.1,0.7
				c-1,0.6-1.8,1.5-2.3,2.5c-0.9-0.6-1.9-0.9-3.1-0.9c-1.2,0-2.3,0.4-3.2,1c-0.5-0.9-1.2-1.8-2.2-2.3c-1-0.6-2.2-0.8-3.3-0.7
				c0.1-1-0.2-2.1-0.7-3.1c-0.6-1-1.5-1.8-2.5-2.2c0.6-0.9,0.9-1.9,0.9-3.1c0-1.2-0.4-2.3-1-3.2c0.9-0.5,1.8-1.2,2.3-2.2
				c0.6-1,0.8-2.2,0.7-3.3c1,0.1,2.1-0.2,3.1-0.7c1-0.6,1.8-1.5,2.3-2.5c0.9,0.6,1.9,0.9,3.1,0.9c1.2,0,2.3-0.4,3.2-1
				c0.5,0.9,1.2,1.8,2.2,2.3c1,0.6,2.2,0.8,3.3,0.7c-0.1,1,0.2,2.1,0.7,3.1c0.6,1,1.5,1.8,2.5,2.3c-0.6,0.9-0.9,1.9-0.9,3.1
				C68.7,130.3,69.1,131.4,69.7,132.3z"/>
		</g>
		<g>
			<g>
				<path fill="#3E3A39" d="M132.5,24.9c-0.5,1.4-0.6,3-0.1,4.5c0.4,1.6,1.4,3,2.6,4c-1.1,1-2,2.3-2.4,3.9c-0.4,1.6-0.3,3.3,0.2,4.7
					c-1.5,0.3-2.9,1-4,2.1c-1.2,1.2-1.9,2.7-2.2,4.2c-1.4-0.5-3-0.6-4.5-0.1c-1.6,0.4-3,1.4-4,2.6c-1-1.1-2.3-2-3.9-2.4
					c-1.6-0.4-3.3-0.3-4.7,0.2c-0.3-1.5-1-2.9-2.1-4c-1.2-1.2-2.7-1.9-4.2-2.2c0.5-1.4,0.6-3,0.1-4.5c-0.4-1.6-1.4-3-2.6-4
					c1.1-1,2-2.3,2.4-3.9c0.4-1.6,0.3-3.3-0.2-4.7c1.5-0.3,2.9-1,4-2.1c1.2-1.2,1.9-2.7,2.2-4.2c1.4,0.5,3,0.6,4.5,0.1
					c1.6-0.4,3-1.4,4-2.6c1,1.1,2.3,2,3.9,2.4c1.6,0.4,3.3,0.3,4.7-0.2c0.3,1.5,1,2.9,2.1,4C129.5,23.9,130.9,24.7,132.5,24.9z"/>
			</g>
			<g>
				<path fill="#FFD622" d="M125.9,28.8c-0.3,0.8-0.3,1.7-0.1,2.5c0.2,0.9,0.8,1.7,1.4,2.2c-0.6,0.5-1.1,1.3-1.3,2.1
					c-0.2,0.9-0.2,1.8,0.1,2.6c-0.8,0.2-1.6,0.6-2.2,1.2c-0.7,0.7-1.1,1.5-1.2,2.3c-0.8-0.3-1.7-0.3-2.5-0.1
					c-0.9,0.2-1.7,0.8-2.2,1.4c-0.5-0.6-1.3-1.1-2.1-1.3c-0.9-0.2-1.8-0.2-2.6,0.1c-0.2-0.8-0.6-1.6-1.2-2.2
					c-0.7-0.7-1.5-1.1-2.3-1.2c0.3-0.8,0.3-1.7,0.1-2.5c-0.2-0.9-0.8-1.7-1.4-2.2c0.6-0.5,1.1-1.3,1.3-2.1c0.2-0.9,0.2-1.8-0.1-2.6
					c0.8-0.2,1.6-0.6,2.2-1.2c0.7-0.7,1.1-1.5,1.2-2.3c0.8,0.3,1.7,0.3,2.5,0.1c0.9-0.2,1.7-0.8,2.2-1.4c0.5,0.6,1.3,1.1,2.1,1.3
					c0.9,0.2,1.8,0.2,2.6-0.1c0.2,0.8,0.6,1.6,1.2,2.2C124.2,28.3,125.1,28.7,125.9,28.8z"/>
			</g>
		</g>
		<g>
			<g>
				<path fill="#FF4747" d="M0.1,19.4l0,61.4c0,1.3,0.7,2.4,1.8,3.1c0.5,0.3,1.2,0.5,1.8,0.5c0.6,0,1.2-0.2,1.8-0.5l53.2-30.7
					c1.1-0.6,1.8-1.8,1.8-3.1c0-1.3-0.7-2.4-1.8-3.1L5.4,16.4c-0.5-0.3-1.2-0.5-1.8-0.5c-0.6,0-1.2,0.2-1.8,0.5
					C0.7,17,0.1,18.2,0.1,19.4z"/>
			</g>
			<path fill="#FFFFFF" d="M21.7,59.3c-2.7,0-4.9-0.7-6.5-2.2c-0.2-0.2-0.3-0.5-0.3-0.8c0-0.3,0.1-0.5,0.2-0.7l1.2-1.6
				c0.1-0.2,0.3-0.3,0.6-0.4c0.3,0,0.5,0,0.7,0.2c1.2,0.9,2.4,1.4,3.6,1.4c1,0,1.8-0.2,2.3-0.6c0.6-0.4,0.9-1,0.9-1.8
				c0-0.9-0.3-1.6-0.9-2c-0.6-0.5-1.8-0.7-3.4-0.8c-0.3,0-0.5-0.1-0.7-0.3C19.1,49.5,19,49.3,19,49v-1.6c0-0.3,0.1-0.5,0.3-0.7
				c0.2-0.2,0.4-0.3,0.7-0.3c1.3-0.1,2.3-0.4,2.9-0.8c0.6-0.5,0.8-1.1,0.8-1.9c0-0.7-0.2-1.3-0.6-1.6c-0.4-0.4-1-0.6-1.8-0.6
				c-1,0-2,0.4-3,1.1c-0.2,0.2-0.5,0.2-0.7,0.2c-0.3,0-0.5-0.1-0.6-0.3l-1.3-1.6c-0.2-0.2-0.3-0.4-0.2-0.7c0-0.3,0.2-0.5,0.4-0.6
				c1.8-1.3,3.7-2,5.7-2c2.2,0,3.9,0.5,5.2,1.5c1.3,1,1.9,2.4,1.9,4.3c0,2.1-1.1,3.7-3.3,4.6c0,0-0.1,0.1-0.1,0.1c0,0,0,0.1,0.1,0.1
				c1.2,0.4,2.2,1,2.9,1.8c0.7,0.9,1.1,1.9,1.1,3.2c0,1.3-0.4,2.4-1.1,3.3c-0.7,0.9-1.6,1.6-2.8,2.1C24.4,59,23.1,59.3,21.7,59.3z"
				/>
		</g>
	</g>
</g>
</svg>
