<?xml version="1.0" encoding="UTF-8"?>
<svg width="20px" height="20px" viewBox="0 0 20 20" version="1.1" xmlns="http://www.w3.org/2000/svg" xmlns:xlink="http://www.w3.org/1999/xlink">
    <!-- Generator: Sketch 51.2 (57519) - http://www.bohemiancoding.com/sketch -->
    <title>facebook-square - FontAwesome</title>
    <desc>Created with Sketch.</desc>
    <defs></defs>
    <g id="landing" stroke="none" stroke-width="1" fill="none" fill-rule="evenodd">
        <g id="Guideline" transform="translate(-1010.000000, -534.000000)" fill="#3C3C3B">
            <path d="M1026.25,534 C1028.32031,534 1030,535.679688 1030,537.75 L1030,550.25 C1030,552.320312 1028.32031,554 1026.25,554 L1023.80208,554 L1023.80208,546.252604 L1026.39323,546.252604 L1026.78385,543.231771 L1023.80208,543.231771 L1023.80208,541.304688 C1023.80208,540.432292 1024.03646,539.846354 1025.29948,539.846354 L1026.88802,539.833333 L1026.88802,537.138021 C1026.61458,537.098958 1025.66406,537.020833 1024.57031,537.020833 C1022.26562,537.020833 1020.67708,538.427083 1020.67708,541.005208 L1020.67708,543.231771 L1018.07292,543.231771 L1018.07292,546.252604 L1020.67708,546.252604 L1020.67708,554 L1013.75,554 C1011.67969,554 1010,552.320312 1010,550.25 L1010,537.75 C1010,535.679688 1011.67969,534 1013.75,534 L1026.25,534 Z" id="facebook-square---FontAwesome"></path>
        </g>
    </g>
</svg>