<?xml version="1.0" encoding="UTF-8"?>
<svg width="27px" height="20px" viewBox="0 0 27 20" version="1.1" xmlns="http://www.w3.org/2000/svg" xmlns:xlink="http://www.w3.org/1999/xlink">
    <!-- Generator: Sketch 51.2 (57519) - http://www.bohemiancoding.com/sketch -->
    <title>ion-social-youtube - Ionicons</title>
    <desc>Created with Sketch.</desc>
    <defs></defs>
    <g id="landing" stroke="none" stroke-width="1" fill="none" fill-rule="evenodd">
        <g id="Guideline" transform="translate(-1148.000000, -534.000000)" fill="#3C3C3B">
            <path d="M1174.8418,538.427083 C1174.94727,540.302093 1175,542.159713 1175,544 C1175,545.840287 1174.94727,547.697907 1174.8418,549.572917 C1174.8418,550.753478 1174.46387,551.751732 1173.70801,552.567708 C1172.95214,553.383685 1172.0293,553.791667 1170.93945,553.791667 C1168.23241,553.930556 1165.08596,554 1161.5,554 C1157.91404,554 1154.76759,553.930556 1152.06055,553.791667 C1150.9707,553.791667 1150.04786,553.383685 1149.29199,552.567708 C1148.53613,551.751732 1148.1582,550.753478 1148.1582,549.572917 C1148.05273,547.697907 1148,545.840287 1148,544 C1148,542.784716 1148.07031,540.927096 1148.21094,538.427083 C1148.21094,537.246522 1148.58007,536.248268 1149.31836,535.432292 C1150.05664,534.616315 1150.9707,534.208333 1152.06055,534.208333 C1154.62697,534.069444 1157.61522,534 1161.02539,534 L1161.97461,534 C1165.38478,534 1168.37303,534.069444 1170.93945,534.208333 C1172.0293,534.208333 1172.95214,534.616315 1173.70801,535.432292 C1174.46387,536.248268 1174.8418,537.246522 1174.8418,538.427083 Z M1158.91602,549.104167 L1166.5625,544 L1158.91602,538.84375 L1158.91602,549.104167 Z" id="ion-social-youtube---Ionicons"></path>
        </g>
    </g>
</svg>