<?xml version="1.0" encoding="UTF-8"?>
<svg width="20px" height="20px" viewBox="0 0 20 20" version="1.1" xmlns="http://www.w3.org/2000/svg" xmlns:xlink="http://www.w3.org/1999/xlink">
    <!-- Generator: Sketch 50.2 (55047) - http://www.bohemiancoding.com/sketch -->
    <title>Group 20</title>
    <desc>Created with Sketch.</desc>
    <defs></defs>
    <g id="landing" stroke="none" stroke-width="1" fill="none" fill-rule="evenodd">
        <g id="工作團隊介紹" transform="translate(-1201.000000, -7508.000000)">
            <g id="Group-20" transform="translate(1201.000000, 7508.000000)">
                <rect id="Rectangle-16" fill="#3C3C3B" x="0" y="0" width="20" height="20" rx="3"></rect>
                <path d="M12.4648902,10.0363159 C12.4648902,8.69870268 11.3739291,7.60774156 10.0363159,7.60774156 C8.69870268,7.60774156 7.60774156,8.69870268 7.60774156,10.0363159 C7.60774156,11.3739291 8.69870268,12.4648902 10.0363159,12.4648902 C11.3739291,12.4648902 12.4648902,11.3739291 12.4648902,10.0363159 Z M13.7740436,10.0363159 C13.7740436,12.1043987 12.1043987,13.7740436 10.0363159,13.7740436 C7.96823306,13.7740436 6.29858821,12.1043987 6.29858821,10.0363159 C6.29858821,7.96823306 7.96823306,6.29858821 10.0363159,6.29858821 C12.1043987,6.29858821 13.7740436,7.96823306 13.7740436,10.0363159 Z M14.7985983,6.14680232 C14.7985983,6.63061986 14.409647,7.01957122 13.9258294,7.01957122 C13.4420119,7.01957122 13.0530606,6.63061986 13.0530606,6.14680232 C13.0530606,5.66298478 13.4420119,5.27403342 13.9258294,5.27403342 C14.409647,5.27403342 14.7985983,5.66298478 14.7985983,6.14680232 Z M10.0363159,4.05974626 C8.97381462,4.05974626 6.69702619,3.97436669 5.73887773,4.35383143 C5.40684608,4.48664409 5.160194,4.6479166 4.9040553,4.9040553 C4.6479166,5.160194 4.48664409,5.40684608 4.35383143,5.73887773 C3.97436669,6.69702619 4.05974626,8.97381462 4.05974626,10.0363159 C4.05974626,11.0988172 3.97436669,13.3756056 4.35383143,14.333754 C4.48664409,14.6657857 4.6479166,14.9124378 4.9040553,15.1685765 C5.160194,15.4247152 5.40684608,15.5859877 5.73887773,15.7188003 C6.69702619,16.0982651 8.97381462,16.0128855 10.0363159,16.0128855 C11.0988172,16.0128855 13.3756056,16.0982651 14.333754,15.7188003 C14.6657857,15.5859877 14.9124378,15.4247152 15.1685765,15.1685765 C15.4247152,14.9124378 15.5859877,14.6657857 15.7188003,14.333754 C16.0982651,13.3756056 16.0128855,11.0988172 16.0128855,10.0363159 C16.0128855,8.97381462 16.0982651,6.69702619 15.7188003,5.73887773 C15.5859877,5.40684608 15.4247152,5.160194 15.1685765,4.9040553 C14.9124378,4.6479166 14.6657857,4.48664409 14.333754,4.35383143 C13.3756056,3.97436669 11.0988172,4.05974626 10.0363159,4.05974626 Z M17.3220389,10.0363159 C17.3220389,11.0418974 17.3315255,12.0379924 17.2746058,13.0435739 C17.2176861,14.210428 16.9520607,15.2444694 16.0982651,16.0982651 C15.2444694,16.9520607 14.210428,17.2176861 13.0435739,17.2746058 C12.0379924,17.3315255 11.0418974,17.3220389 10.0363159,17.3220389 C9.03073433,17.3220389 8.03463939,17.3315255 7.02905784,17.2746058 C5.86220377,17.2176861 4.82816235,16.9520607 3.97436669,16.0982651 C3.12057103,15.2444694 2.85494572,14.210428 2.79802601,13.0435739 C2.7411063,12.0379924 2.75059291,11.0418974 2.75059291,10.0363159 C2.75059291,9.03073433 2.7411063,8.03463939 2.79802601,7.02905784 C2.85494572,5.86220377 3.12057103,4.82816235 3.97436669,3.97436669 C4.82816235,3.12057103 5.86220377,2.85494572 7.02905784,2.79802601 C8.03463939,2.7411063 9.03073433,2.75059291 10.0363159,2.75059291 C11.0418974,2.75059291 12.0379924,2.7411063 13.0435739,2.79802601 C14.210428,2.85494572 15.2444694,3.12057103 16.0982651,3.97436669 C16.9520607,4.82816235 17.2176861,5.86220377 17.2746058,7.02905784 C17.3315255,8.03463939 17.3220389,9.03073433 17.3220389,10.0363159 Z" id="instagram---FontAwesome" fill="#F6F6F6"></path>
            </g>
        </g>
    </g>
</svg>