<?xml version="1.0" encoding="UTF-8"?>
<svg width="20px" height="20px" viewBox="0 0 20 20" version="1.1" xmlns="http://www.w3.org/2000/svg" xmlns:xlink="http://www.w3.org/1999/xlink">
    <!-- Generator: Sketch 51.2 (57519) - http://www.bohemiancoding.com/sketch -->
    <title>line</title>
    <desc>Created with Sketch.</desc>
    <defs></defs>
    <g id="landing" stroke="none" stroke-width="1" fill="none" fill-rule="evenodd">
        <g id="Guideline" transform="translate(-1057.000000, -534.000000)" fill-rule="nonzero">
            <g id="line" transform="translate(1057.000000, 534.000000)">
                <g id="g7958" transform="translate(0.059948, 0.033944)" fill="#3C3C3B">
                    <path d="M16.2109296,0.0989812525 L3.66230634,0.0989812525 C1.69367921,0.0989812525 0.0769854186,1.69367921 0.0769854186,3.66230634 L0.0769854186,16.2109296 C0.0769854186,18.1795567 1.67168337,19.7962505 3.64031051,19.7962505 L16.1889337,19.7962505 C18.1575609,19.7962505 19.7742547,18.2015525 19.7742547,16.2329254 L19.7742547,3.68430217 C19.7742547,1.71567504 18.1795567,0.0989812525 16.2109296,0.0989812525" id="path7960"></path>
                </g>
                <g id="g7962" transform="translate(2.722412, 3.296025)" fill="#F4F4F4">
                    <path d="M14.3962733,5.81789806 C14.3962733,2.60650631 11.1848815,0 7.22563143,0 C3.26638133,0 0.0549895847,2.60650631 0.0549895847,5.81789806 C0.0549895847,8.6993523 2.60650631,11.1078961 6.04885432,11.5588107 C6.27981057,11.6138003 6.59875016,11.7127815 6.67573558,11.910744 C6.752721,12.0867107 6.71972725,12.3726566 6.69773142,12.5596211 C6.69773142,12.5596211 6.60974808,13.0655253 6.59875016,13.1755045 C6.56575641,13.3514712 6.45577724,13.8793712 7.21463351,13.5604316 C7.9844877,13.241492 11.3498503,11.1298919 12.845567,9.39222107 C13.901367,8.25943562 14.3962733,7.10465434 14.3962733,5.81789806" id="path7964"></path>
                </g>
                <g id="g7966" transform="translate(7.807475, 7.505984)" fill="#3C3C3B">
                    <path d="M0.68187085,0.0549895847 L0.175966671,0.0549895847 C0.0989812525,0.0549895847 0.0329937508,0.120977086 0.0329937508,0.197962505 L0.0329937508,3.32137092 C0.0329937508,3.39835633 0.0989812525,3.46434384 0.175966671,3.46434384 L0.68187085,3.46434384 C0.758856269,3.46434384 0.824843771,3.39835633 0.824843771,3.32137092 L0.824843771,0.197962505 C0.824843771,0.120977086 0.758856269,0.0549895847 0.68187085,0.0549895847" id="path7968"></path>
                </g>
                <g id="g7970" transform="translate(9.037580, 7.505984)" fill="#3C3C3B">
                    <path d="M2.91444799,0.0549895847 L2.40854381,0.0549895847 C2.33155839,0.0549895847 2.26557089,0.120977086 2.26557089,0.197962505 L2.26557089,2.05661047 L0.835841687,0.120977086 C0.835841687,0.120977086 0.824843771,0.109979169 0.824843771,0.109979169 C0.824843771,0.109979169 0.813845854,0.0989812525 0.813845854,0.0989812525 C0.813845854,0.0989812525 0.813845854,0.0989812525 0.813845854,0.0989812525 C0.813845854,0.0989812525 0.813845854,0.0989812525 0.802847937,0.0879833355 C0.802847937,0.0879833355 0.802847937,0.0879833355 0.802847937,0.0879833355 C0.802847937,0.0879833355 0.802847937,0.0879833355 0.79185002,0.0879833355 C0.79185002,0.0879833355 0.79185002,0.0879833355 0.79185002,0.0879833355 C0.79185002,0.0879833355 0.79185002,0.0879833355 0.780852103,0.0879833355 C0.780852103,0.0879833355 0.780852103,0.0879833355 0.780852103,0.0879833355 C0.780852103,0.0879833355 0.780852103,0.0879833355 0.769854186,0.0879833355 C0.769854186,0.0879833355 0.769854186,0.0879833355 0.769854186,0.0879833355 C0.769854186,0.0879833355 0.769854186,0.0879833355 0.758856269,0.0879833355 C0.758856269,0.0879833355 0.758856269,0.0879833355 0.758856269,0.0879833355 C0.758856269,0.0879833355 0.758856269,0.0879833355 0.747858352,0.0879833355 C0.747858352,0.0879833355 0.747858352,0.0879833355 0.736860435,0.0879833355 C0.736860435,0.0879833355 0.736860435,0.0879833355 0.725862518,0.0879833355 C0.725862518,0.0879833355 0.725862518,0.0879833355 0.714864601,0.0879833355 C0.714864601,0.0879833355 0.714864601,0.0879833355 0.714864601,0.0879833355 L0.208960422,0.0879833355 C0.131975003,0.0879833355 0.0659875016,0.153970837 0.0659875016,0.230956256 L0.0659875016,3.35436467 C0.0659875016,3.43135009 0.131975003,3.49733759 0.208960422,3.49733759 L0.714864601,3.49733759 C0.79185002,3.49733759 0.857837521,3.43135009 0.857837521,3.35436467 L0.857837521,1.4957167 L2.28756672,3.43135009 C2.29856464,3.442348 2.30956256,3.45334592 2.32056047,3.46434384 C2.32056047,3.46434384 2.32056047,3.46434384 2.32056047,3.46434384 C2.32056047,3.46434384 2.33155839,3.46434384 2.33155839,3.46434384 C2.33155839,3.46434384 2.33155839,3.46434384 2.33155839,3.46434384 C2.33155839,3.46434384 2.33155839,3.46434384 2.34255631,3.46434384 C2.34255631,3.46434384 2.34255631,3.46434384 2.35355423,3.46434384 C2.35355423,3.46434384 2.35355423,3.46434384 2.35355423,3.46434384 C2.35355423,3.46434384 2.36455214,3.46434384 2.36455214,3.46434384 C2.36455214,3.46434384 2.36455214,3.46434384 2.36455214,3.46434384 C2.37555006,3.46434384 2.38654798,3.46434384 2.39754589,3.46434384 L2.90345007,3.46434384 C2.98043549,3.46434384 3.04642299,3.39835633 3.04642299,3.32137092 L3.04642299,0.197962505 C3.05742091,0.120977086 2.99143341,0.0549895847 2.91444799,0.0549895847" id="path7972"></path>
                </g>
                <g id="g7974" transform="translate(5.077781, 7.498681)" fill="#3C3C3B">
                    <path d="M2.19958339,2.68349173 L0.835841687,2.68349173 L0.835841687,0.197962505 C0.835841687,0.120977086 0.769854186,0.0549895847 0.692868767,0.0549895847 L0.186964588,0.0549895847 C0.109979169,0.0549895847 0.0439916678,0.120977086 0.0439916678,0.197962505 L0.0439916678,3.32137092 C0.0439916678,3.35436467 0.0549895847,3.39835633 0.0879833355,3.42035217 C0.0879833355,3.42035217 0.0879833355,3.42035217 0.0879833355,3.42035217 C0.0879833355,3.42035217 0.0879833355,3.42035217 0.0879833355,3.42035217 C0.109979169,3.442348 0.14297292,3.46434384 0.186964588,3.46434384 L2.19958339,3.46434384 C2.27656881,3.46434384 2.34255631,3.39835633 2.34255631,3.32137092 L2.34255631,2.81546674 C2.34255631,2.74947924 2.27656881,2.68349173 2.19958339,2.68349173" id="path7976"></path>
                </g>
                <g id="g7978" transform="translate(12.579603, 7.539924)" fill="#3C3C3B">
                    <path d="M2.15559172,0.802847937 C2.23257714,0.802847937 2.29856464,0.736860435 2.29856464,0.659875016 L2.29856464,0.153970837 C2.29856464,0.0769854186 2.23257714,0.0109979169 2.15559172,0.0109979169 L0.14297292,0.0109979169 C0.109979169,0.0109979169 0.0659875016,0.0219958339 0.0439916678,0.0549895847 C0.0439916678,0.0549895847 0.0439916678,0.0549895847 0.0439916678,0.0549895847 C0.0439916678,0.0549895847 0.0439916678,0.0549895847 0.0439916678,0.0549895847 C0.0219958339,0.0769854186 -4.72921357e-14,0.109979169 -4.72921357e-14,0.153970837 L-4.72921357e-14,3.27737925 C-4.72921357e-14,3.310373 0.0109979169,3.35436467 0.0439916678,3.3763605 C0.0439916678,3.3763605 0.0439916678,3.3763605 0.0439916678,3.3763605 C0.0439916678,3.3763605 0.0439916678,3.3763605 0.0439916678,3.3763605 C0.0659875016,3.39835633 0.0989812525,3.42035217 0.14297292,3.42035217 L2.15559172,3.42035217 C2.23257714,3.42035217 2.29856464,3.35436467 2.29856464,3.27737925 L2.29856464,2.77147507 C2.29856464,2.69448965 2.23257714,2.62850215 2.15559172,2.62850215 L0.79185002,2.62850215 L0.79185002,2.10060214 L2.15559172,2.10060214 C2.23257714,2.10060214 2.29856464,2.03461463 2.29856464,1.95762922 L2.29856464,1.45172504 C2.29856464,1.37473962 2.23257714,1.30875212 2.15559172,1.30875212 L0.79185002,1.30875212 L0.79185002,0.780852103 L2.15559172,0.780852103 L2.15559172,0.802847937 Z" id="path7980"></path>
                </g>
            </g>
        </g>
    </g>
</svg>