<?xml version="1.0" encoding="utf-8"?>
<!-- Generator: Adobe Illustrator 17.1.0, SVG Export Plug-In . SVG Version: 6.00 Build 0)  -->
<!DOCTYPE svg PUBLIC "-//W3C//DTD SVG 1.1//EN" "http://www.w3.org/Graphics/SVG/1.1/DTD/svg11.dtd">
<svg version="1.1" xmlns="http://www.w3.org/2000/svg" xmlns:xlink="http://www.w3.org/1999/xlink" x="0px" y="0px"
	 viewBox="0 0 900 900" enable-background="new 0 0 900 900" xml:space="preserve">
<g id="工作區域參考線">
</g>
<g id="Layer_2">
	<g>
		<g>
			<rect x="366" y="134" fill-rule="evenodd" clip-rule="evenodd" fill="#FC4F4F" width="28" height="115"/>
			<rect x="366" y="299" fill-rule="evenodd" clip-rule="evenodd" fill="#FC4F4F" width="28" height="28"/>
			<rect x="394" y="117" fill-rule="evenodd" clip-rule="evenodd" fill="#EFA059" width="28" height="166"/>
			<rect x="422" y="186" fill-rule="evenodd" clip-rule="evenodd" fill="#F4D242" width="28" height="79"/>
			<rect x="450" y="153" fill-rule="evenodd" clip-rule="evenodd" fill="#47DD84" width="27" height="162"/>
			<rect x="477" y="213" fill-rule="evenodd" clip-rule="evenodd" fill="#4BABF9" width="28" height="124"/>
			<rect x="477" y="97" fill-rule="evenodd" clip-rule="evenodd" fill="#4BABF9" width="28" height="27"/>
			<rect x="505" y="168" fill-rule="evenodd" clip-rule="evenodd" fill="#A164F2" width="28" height="108"/>
			<rect x="505" y="321" fill-rule="evenodd" clip-rule="evenodd" fill="#A164F2" width="28" height="29"/>
		</g>
		<g>
			<path fill-rule="evenodd" clip-rule="evenodd" fill="#FFFFFF" d="M284.1,452.1c0,0,24.8,0.5,35.4,7.9l-13.2,53.3
				c0,0,42.2,16.9,56.5,25.3L340.5,574l-59.1-50.7C281.4,523.3,283,475,284.1,452.1z"/>
			<path fill-rule="evenodd" clip-rule="evenodd" fill="#FFFFFF" d="M261,481.7v8.3h64.2c0,0-5.3,68.7-62.3,96.6l1.1,4.2
				c0,0,76.6-3.3,91.2-109.4L261,481.7z"/>
			<rect x="361" y="441" fill-rule="evenodd" clip-rule="evenodd" fill="#FFFFFF" width="27" height="152"/>
			<rect x="434" y="441" fill-rule="evenodd" clip-rule="evenodd" fill="#FFFFFF" width="26" height="152"/>
			<rect x="551" y="434" fill-rule="evenodd" clip-rule="evenodd" fill="#FFFFFF" width="30" height="160"/>
			<rect x="696" y="437" fill-rule="evenodd" clip-rule="evenodd" fill="#FFFFFF" width="24" height="165"/>
			<rect x="375" y="448" fill-rule="evenodd" clip-rule="evenodd" fill="#FFFFFF" width="64" height="9"/>
			<rect x="375" y="578" fill-rule="evenodd" clip-rule="evenodd" fill="#FFFFFF" width="64" height="9"/>
			<rect x="380" y="490" fill-rule="evenodd" clip-rule="evenodd" fill="#FFFFFF" width="59" height="9"/>
			<path fill-rule="evenodd" clip-rule="evenodd" fill="#FFFFFF" d="M401.3,469h19c0,0,3.7,89-35,98.2l-1.7-4.5
				C383.7,562.7,404.5,552,401.3,469z"/>
			<path fill-rule="evenodd" clip-rule="evenodd" fill="#FFFFFF" d="M413.1,512.9c0,0,22.4,22.5,27.4,43.9l-20.2,7
				c0,0-0.9-33.3-10.6-38L413.1,512.9z"/>
			<path fill-rule="evenodd" clip-rule="evenodd" fill="#FFFFFF" d="M71.5,444.2l37.5,14.2c0,0-17.8,38.1-25.9,55.4
				c0,0,55.9,21.6,60.2,26.4c0,0-12.1,26.4-23.2,36.9c0,0-32.2-36.9-67.5-45.4L71.5,444.2z"/>
			<path fill-rule="evenodd" clip-rule="evenodd" fill="#FFFFFF" d="M43,490h63.4c0,0-15.8,75-73.9,87.1l1.6,4.2
				c0,0,77,10.8,103.4-99.3H43V490z"/>
			<path fill-rule="evenodd" clip-rule="evenodd" fill="#FFFFFF" d="M192,411.2l19.8,23.1c0,0-14.8,19.4-49.8,29.9v47
				c0,0,14.7,5.8,37.9-1.1l2.2,5.3c0,0-14.1,11.1-60.1,10.6v-69.7C142,456.3,174.6,440,192,411.2z"/>
			<polygon fill-rule="evenodd" clip-rule="evenodd" fill="#FFFFFF" points="156.7,480 232,480 232,488 154.4,488 			"/>
			<path fill-rule="evenodd" clip-rule="evenodd" fill="#FFFFFF" d="M181.8,447.9l26.4,4.2c-2,14.9-2.2,32.1,4.9,45.7
				c6.2,11.9,20.2,4.2,26.3-3.5l1.9,0.7c0,0,1.8,23.2-21.5,30.1c0,0-27.8,6.7-33.2-26.6C186.6,498.5,181.3,468.3,181.8,447.9z"/>
			<rect x="142" y="531" fill-rule="evenodd" clip-rule="evenodd" fill="#FFFFFF" width="25" height="66"/>
			<rect x="202" y="531" fill-rule="evenodd" clip-rule="evenodd" fill="#FFFFFF" width="25" height="66"/>
			<rect x="154" y="536" fill-rule="evenodd" clip-rule="evenodd" fill="#FFFFFF" width="65" height="9"/>
			<rect x="154" y="559" fill-rule="evenodd" clip-rule="evenodd" fill="#FFFFFF" width="65" height="9"/>
			<rect x="154" y="584" fill-rule="evenodd" clip-rule="evenodd" fill="#FFFFFF" width="65" height="8"/>
			<rect x="504" y="434" fill-rule="evenodd" clip-rule="evenodd" fill="#FFFFFF" width="126" height="13"/>
			
				<rect x="485.9" y="510.6" transform="matrix(0.9994 -3.517863e-02 3.517863e-02 0.9994 -17.8071 20.2532)" fill-rule="evenodd" clip-rule="evenodd" fill="#FFFFFF" width="161.5" height="11.1"/>
			<rect x="679" y="468" fill-rule="evenodd" clip-rule="evenodd" fill="#FFFFFF" width="62" height="8"/>
			<path fill-rule="evenodd" clip-rule="evenodd" fill="#FFFFFF" d="M696.5,473.3c0,0-14.1,52.9-35.7,68.4l1.4,3.2
				c0,0,24.7-4.8,38.5-25.2L696.5,473.3z"/>
			<polygon fill-rule="evenodd" clip-rule="evenodd" fill="#FFFFFF" points="718.8,495.3 742.6,503.3 737.6,525.1 714.6,510.1 			
				"/>
			<rect x="745" y="447" fill-rule="evenodd" clip-rule="evenodd" fill="#FFFFFF" width="95" height="8"/>
			<polygon fill-rule="evenodd" clip-rule="evenodd" fill="#FFFFFF" points="783.1,466 756.5,466 754.3,433 780.9,433 			"/>
			<polygon fill-rule="evenodd" clip-rule="evenodd" fill="#FFFFFF" points="830,466 802.3,466 800.1,433 827.8,433 			"/>
			<rect x="747" y="471" fill-rule="evenodd" clip-rule="evenodd" fill="#FFFFFF" width="19" height="35"/>
			<rect x="775" y="471" fill-rule="evenodd" clip-rule="evenodd" fill="#FFFFFF" width="18" height="35"/>
			<rect x="751" y="476" fill-rule="evenodd" clip-rule="evenodd" fill="#FFFFFF" width="36" height="6"/>
			<rect x="751" y="495" fill-rule="evenodd" clip-rule="evenodd" fill="#FFFFFF" width="36" height="5"/>
			<rect x="798" y="471" fill-rule="evenodd" clip-rule="evenodd" fill="#FFFFFF" width="19" height="35"/>
			<rect x="827" y="471" fill-rule="evenodd" clip-rule="evenodd" fill="#FFFFFF" width="17" height="35"/>
			<rect x="803" y="476" fill-rule="evenodd" clip-rule="evenodd" fill="#FFFFFF" width="35" height="6"/>
			<rect x="803" y="495" fill-rule="evenodd" clip-rule="evenodd" fill="#FFFFFF" width="35" height="5"/>
			<path fill-rule="evenodd" clip-rule="evenodd" fill="#FFFFFF" d="M761.5,508.9l25.1,5.8c0,0-14.3,39.4-56.7,44l-2.5-2.4
				C727.3,556.3,752.2,536.7,761.5,508.9z"/>
			<rect x="748" y="535" fill-rule="evenodd" clip-rule="evenodd" fill="#FFFFFF" width="25" height="65"/>
			<rect x="795" y="525" fill-rule="evenodd" clip-rule="evenodd" fill="#FFFFFF" width="23" height="66"/>
			<rect x="767" y="588" fill-rule="evenodd" clip-rule="evenodd" fill="#FFFFFF" width="80" height="7"/>
			<rect x="763" y="566" fill-rule="evenodd" clip-rule="evenodd" fill="#FFFFFF" width="74" height="7"/>
			<rect x="763" y="545" fill-rule="evenodd" clip-rule="evenodd" fill="#FFFFFF" width="74" height="8"/>
			<rect x="763" y="525" fill-rule="evenodd" clip-rule="evenodd" fill="#FFFFFF" width="74" height="7"/>
			<path fill-rule="evenodd" clip-rule="evenodd" fill="#FFFFFF" d="M796.3,505c0,0,19.1,6.2,22.8,6.8c0,0-1.4,12.2-10.6,17
				l-9.1,0.4C799.4,529.1,800.2,517.6,796.3,505z"/>
			<path fill-rule="evenodd" clip-rule="evenodd" fill="#FFFFFF" d="M497,463.5l7.8-5c0,0,26,1.3,37.3,33.4l-26.9,14.7
				C515.2,506.6,512.6,480.8,497,463.5z"/>
			<path fill-rule="evenodd" clip-rule="evenodd" fill="#FFFFFF" d="M615.9,454.9c0,0,19,6.5,25.8,19.9c0,0-24.4,11.5-40.2,27.6
				l-7.4-5.6C594.2,496.8,599.1,463.1,615.9,454.9z"/>
			<rect x="443" y="636" fill-rule="evenodd" clip-rule="evenodd" fill="#FFFFFF" width="30" height="158"/>
			<rect x="395" y="632" fill-rule="evenodd" clip-rule="evenodd" fill="#FFFFFF" width="126" height="11"/>
			<rect x="378" y="708.8" fill-rule="evenodd" clip-rule="evenodd" fill="#FFFFFF" width="163" height="11.1"/>
			<rect x="177" y="678" fill-rule="evenodd" clip-rule="evenodd" fill="#FFFFFF" width="159" height="11"/>
			<path fill-rule="evenodd" clip-rule="evenodd" fill="#FFFFFF" d="M239.7,631H277c0,0,11.3,136.4-69,151.5c0,0-28.1,4.7-42.9,0.1
				l0.2-2c0,0,73.7-3.5,74.7-90.4L239.7,631z"/>
			<path fill-rule="evenodd" clip-rule="evenodd" fill="#FFFFFF" d="M263.1,689.7c0,0,15.3,71.2,64.4,105.3c0,0,19.1-18,27.3-34.7
				c0,0-52.1-22.9-85.1-79.1L263.1,689.7z"/>
			<rect x="589" y="688" fill-rule="evenodd" clip-rule="evenodd" fill="#FFFFFF" width="112" height="11"/>
			<rect x="591" y="718" fill-rule="evenodd" clip-rule="evenodd" fill="#FFFFFF" width="32" height="76"/>
			<rect x="678" y="721" fill-rule="evenodd" clip-rule="evenodd" fill="#FFFFFF" width="32" height="73"/>
			<rect x="606" y="728" fill-rule="evenodd" clip-rule="evenodd" fill="#FFFFFF" width="89" height="11"/>
			<rect x="611" y="779" fill-rule="evenodd" clip-rule="evenodd" fill="#FFFFFF" width="89" height="10"/>
			<path fill-rule="evenodd" clip-rule="evenodd" fill="#FFFFFF" d="M618.9,615.4c0,0-13.2,33.3-48.3,83.5l13.3,14.5
				c0,0,41.8-29.4,73.5-82.7L618.9,615.4z"/>
			<path fill-rule="evenodd" clip-rule="evenodd" fill="#FFFFFF" d="M684.8,649.1c0,0,17.3,21.1,46.2,37.9l-21.4,25.7
				c0,0-22.5-8-34.9-54.5L684.8,649.1z"/>
			<path fill-rule="evenodd" clip-rule="evenodd" fill="#FFFFFF" d="M388.1,657.8l8.2-4.4c0,0,25.8,3.4,34.5,36.4l-28,12.4
				C402.7,702.2,402.2,676.3,388.1,657.8z"/>
			<path fill-rule="evenodd" clip-rule="evenodd" fill="#FFFFFF" d="M505.7,652.3c0,0,19.5,5,27.3,17.8c0,0-23.4,13.4-37.9,30.7
				l-7.8-5C487.3,695.8,489.6,661.8,505.7,652.3z"/>
		</g>
	</g>
</g>
</svg>
