<?xml version="1.0" encoding="utf-8"?>
<!-- Generator: Adobe Illustrator 17.1.0, SVG Export Plug-In . SVG Version: 6.00 Build 0)  -->
<!DOCTYPE svg PUBLIC "-//W3C//DTD SVG 1.1//EN" "http://www.w3.org/Graphics/SVG/1.1/DTD/svg11.dtd">
<svg version="1.1" xmlns="http://www.w3.org/2000/svg" xmlns:xlink="http://www.w3.org/1999/xlink" x="0px" y="0px"
	 viewBox="0 0 1756 292.9" enable-background="new 0 0 1756 292.9" xml:space="preserve">
<g id="工作區域參考線">
</g>
<g id="Layer_2">
	<g>
		<g>
			<rect x="32.8" y="57" fill-rule="evenodd" clip-rule="evenodd" fill="#FC4F4F" width="28" height="115"/>
			<rect x="32.8" y="222" fill-rule="evenodd" clip-rule="evenodd" fill="#FC4F4F" width="28" height="28"/>
			<rect x="60.8" y="40" fill-rule="evenodd" clip-rule="evenodd" fill="#EFA059" width="28" height="166"/>
			<rect x="88.8" y="109" fill-rule="evenodd" clip-rule="evenodd" fill="#F4D242" width="28" height="79"/>
			<rect x="116.8" y="76" fill-rule="evenodd" clip-rule="evenodd" fill="#47DD84" width="27" height="162"/>
			<rect x="143.8" y="136" fill-rule="evenodd" clip-rule="evenodd" fill="#4BABF9" width="28" height="124"/>
			<rect x="143.8" y="20" fill-rule="evenodd" clip-rule="evenodd" fill="#4BABF9" width="28" height="27"/>
			<rect x="171.8" y="91" fill-rule="evenodd" clip-rule="evenodd" fill="#A164F2" width="28" height="108"/>
			<rect x="171.8" y="244" fill-rule="evenodd" clip-rule="evenodd" fill="#A164F2" width="28" height="29"/>
		</g>
		<g>
			<path fill-rule="evenodd" clip-rule="evenodd" fill="#323C44" d="M567.6,91.6c0,0,24.8,0.5,35.4,7.9l-13.2,53.3
				c0,0,42.2,16.9,56.5,25.3L624,213.5l-59.1-50.7C564.9,162.8,566.5,114.5,567.6,91.6z"/>
			<path fill-rule="evenodd" clip-rule="evenodd" fill="#323C44" d="M544.5,121.1v8.3h64.2c0,0-5.3,68.7-62.3,96.6l1.1,4.2
				c0,0,76.6-3.3,91.2-109.4L544.5,121.1z"/>
			<rect x="644.5" y="80.5" fill-rule="evenodd" clip-rule="evenodd" fill="#323C44" width="27" height="152"/>
			<rect x="717.5" y="80.5" fill-rule="evenodd" clip-rule="evenodd" fill="#323C44" width="26" height="152"/>
			<rect x="834.5" y="73.5" fill-rule="evenodd" clip-rule="evenodd" fill="#323C44" width="30" height="160"/>
			<rect x="979.5" y="76.5" fill-rule="evenodd" clip-rule="evenodd" fill="#323C44" width="24" height="165"/>
			<rect x="658.5" y="87.5" fill-rule="evenodd" clip-rule="evenodd" fill="#323C44" width="64" height="9"/>
			<rect x="658.5" y="217.5" fill-rule="evenodd" clip-rule="evenodd" fill="#323C44" width="64" height="9"/>
			<rect x="663.5" y="129.5" fill-rule="evenodd" clip-rule="evenodd" fill="#323C44" width="59" height="9"/>
			<path fill-rule="evenodd" clip-rule="evenodd" fill="#323C44" d="M684.8,108.5h19c0,0,3.7,89-35,98.2l-1.7-4.5
				C667.2,202.1,688,191.5,684.8,108.5z"/>
			<path fill-rule="evenodd" clip-rule="evenodd" fill="#323C44" d="M696.6,152.4c0,0,22.4,22.5,27.4,43.9l-20.2,7
				c0,0-0.9-33.3-10.6-38L696.6,152.4z"/>
			<path fill-rule="evenodd" clip-rule="evenodd" fill="#323C44" d="M355.1,83.7l37.5,14.2c0,0-17.8,38.1-25.9,55.4
				c0,0,55.9,21.6,60.2,26.4c0,0-12.1,26.4-23.2,36.9c0,0-32.2-36.9-67.5-45.4L355.1,83.7z"/>
			<path fill-rule="evenodd" clip-rule="evenodd" fill="#323C44" d="M326.5,129.5h63.4c0,0-15.8,75-73.9,87.1l1.6,4.2
				c0,0,77,10.8,103.4-99.3h-94.5V129.5z"/>
			<path fill-rule="evenodd" clip-rule="evenodd" fill="#323C44" d="M475.5,50.7l19.8,23.1c0,0-14.8,19.4-49.8,29.9v47
				c0,0,14.7,5.8,37.9-1.1l2.2,5.3c0,0-14.1,11.1-60.1,10.6V95.8C425.5,95.8,458.1,79.4,475.5,50.7z"/>
			<polygon fill-rule="evenodd" clip-rule="evenodd" fill="#323C44" points="440.2,119.5 515.5,119.5 515.5,127.5 437.9,127.5 			
				"/>
			<path fill-rule="evenodd" clip-rule="evenodd" fill="#323C44" d="M465.3,87.3l26.4,4.2c-2,14.9-2.2,32.1,4.9,45.7
				c6.2,11.9,20.2,4.2,26.3-3.5l1.9,0.7c0,0,1.8,23.2-21.5,30.1c0,0-27.8,6.7-33.2-26.6C470.1,138,464.8,107.8,465.3,87.3z"/>
			<rect x="425.5" y="170.5" fill-rule="evenodd" clip-rule="evenodd" fill="#323C44" width="25" height="66"/>
			<rect x="485.5" y="170.5" fill-rule="evenodd" clip-rule="evenodd" fill="#323C44" width="25" height="66"/>
			<rect x="437.5" y="175.5" fill-rule="evenodd" clip-rule="evenodd" fill="#323C44" width="65" height="9"/>
			<rect x="437.5" y="198.5" fill-rule="evenodd" clip-rule="evenodd" fill="#323C44" width="65" height="9"/>
			<rect x="437.5" y="223.5" fill-rule="evenodd" clip-rule="evenodd" fill="#323C44" width="65" height="8"/>
			<rect x="787.5" y="73.5" fill-rule="evenodd" clip-rule="evenodd" fill="#323C44" width="126" height="13"/>
			
				<rect x="769.4" y="150" transform="matrix(0.9994 -3.517862e-02 3.517862e-02 0.9994 -4.9483 30.0033)" fill-rule="evenodd" clip-rule="evenodd" fill="#323C44" width="161.5" height="11.1"/>
			<rect x="962.5" y="107.5" fill-rule="evenodd" clip-rule="evenodd" fill="#323C44" width="62" height="8"/>
			<path fill-rule="evenodd" clip-rule="evenodd" fill="#323C44" d="M980,112.8c0,0-14.1,52.9-35.7,68.4l1.4,3.2
				c0,0,24.7-4.8,38.5-25.2L980,112.8z"/>
			<polygon fill-rule="evenodd" clip-rule="evenodd" fill="#323C44" points="1002.3,134.8 1026.1,142.7 1021.1,164.6 998.1,149.6 
							"/>
			<rect x="1028.5" y="86.5" fill-rule="evenodd" clip-rule="evenodd" fill="#323C44" width="95" height="8"/>
			<polygon fill-rule="evenodd" clip-rule="evenodd" fill="#323C44" points="1066.6,105.5 1040,105.5 1037.8,72.5 1064.4,72.5 			
				"/>
			<polygon fill-rule="evenodd" clip-rule="evenodd" fill="#323C44" points="1113.5,105.5 1085.8,105.5 1083.6,72.5 1111.3,72.5 			
				"/>
			<rect x="1030.5" y="110.5" fill-rule="evenodd" clip-rule="evenodd" fill="#323C44" width="19" height="35"/>
			<rect x="1058.5" y="110.5" fill-rule="evenodd" clip-rule="evenodd" fill="#323C44" width="18" height="35"/>
			<rect x="1034.5" y="115.5" fill-rule="evenodd" clip-rule="evenodd" fill="#323C44" width="36" height="6"/>
			<rect x="1034.5" y="134.5" fill-rule="evenodd" clip-rule="evenodd" fill="#323C44" width="36" height="5"/>
			<rect x="1081.5" y="110.5" fill-rule="evenodd" clip-rule="evenodd" fill="#323C44" width="19" height="35"/>
			<rect x="1110.5" y="110.5" fill-rule="evenodd" clip-rule="evenodd" fill="#323C44" width="17" height="35"/>
			<rect x="1086.5" y="115.5" fill-rule="evenodd" clip-rule="evenodd" fill="#323C44" width="35" height="6"/>
			<rect x="1086.5" y="134.5" fill-rule="evenodd" clip-rule="evenodd" fill="#323C44" width="35" height="5"/>
			<path fill-rule="evenodd" clip-rule="evenodd" fill="#323C44" d="M1045,148.3l25.1,5.8c0,0-14.3,39.4-56.7,44l-2.5-2.4
				C1010.8,195.7,1035.7,176.1,1045,148.3z"/>
			<rect x="1031.5" y="174.5" fill-rule="evenodd" clip-rule="evenodd" fill="#323C44" width="25" height="65"/>
			<rect x="1078.5" y="164.5" fill-rule="evenodd" clip-rule="evenodd" fill="#323C44" width="23" height="66"/>
			<rect x="1050.5" y="227.5" fill-rule="evenodd" clip-rule="evenodd" fill="#323C44" width="80" height="7"/>
			<rect x="1046.5" y="205.5" fill-rule="evenodd" clip-rule="evenodd" fill="#323C44" width="74" height="7"/>
			<rect x="1046.5" y="184.5" fill-rule="evenodd" clip-rule="evenodd" fill="#323C44" width="74" height="8"/>
			<rect x="1046.5" y="164.5" fill-rule="evenodd" clip-rule="evenodd" fill="#323C44" width="74" height="7"/>
			<path fill-rule="evenodd" clip-rule="evenodd" fill="#323C44" d="M1079.9,144.5c0,0,19.1,6.2,22.8,6.8c0,0-1.4,12.2-10.6,17
				l-9.1,0.4C1082.9,168.6,1083.7,157,1079.9,144.5z"/>
			<path fill-rule="evenodd" clip-rule="evenodd" fill="#323C44" d="M780.5,103l7.8-5c0,0,26,1.3,37.3,33.4l-26.9,14.7
				C798.7,146.1,796.1,120.3,780.5,103z"/>
			<path fill-rule="evenodd" clip-rule="evenodd" fill="#323C44" d="M899.4,94.4c0,0,19,6.5,25.8,19.9c0,0-24.4,11.5-40.2,27.6
				l-7.4-5.6C877.7,136.3,882.6,102.5,899.4,94.4z"/>
			<rect x="1435.2" y="81" fill-rule="evenodd" clip-rule="evenodd" fill="#323C44" width="30" height="158"/>
			<rect x="1387.2" y="77" fill-rule="evenodd" clip-rule="evenodd" fill="#323C44" width="126" height="11"/>
			<rect x="1370.2" y="153.8" fill-rule="evenodd" clip-rule="evenodd" fill="#323C44" width="163" height="11.1"/>
			<rect x="1169.2" y="123" fill-rule="evenodd" clip-rule="evenodd" fill="#323C44" width="159" height="11"/>
			<path fill-rule="evenodd" clip-rule="evenodd" fill="#323C44" d="M1232,76h37.3c0,0,11.3,136.4-69,151.5c0,0-28.1,4.7-42.9,0.1
				l0.2-2c0,0,73.7-3.5,74.7-90.4L1232,76z"/>
			<path fill-rule="evenodd" clip-rule="evenodd" fill="#323C44" d="M1255.3,134.7c0,0,15.3,71.2,64.4,105.3c0,0,19.1-18,27.3-34.7
				c0,0-52.1-22.9-85.1-79.1L1255.3,134.7z"/>
			<rect x="1581.2" y="133" fill-rule="evenodd" clip-rule="evenodd" fill="#323C44" width="112" height="11"/>
			<rect x="1583.2" y="163" fill-rule="evenodd" clip-rule="evenodd" fill="#323C44" width="32" height="76"/>
			<rect x="1670.2" y="166" fill-rule="evenodd" clip-rule="evenodd" fill="#323C44" width="32" height="73"/>
			<rect x="1598.2" y="173" fill-rule="evenodd" clip-rule="evenodd" fill="#323C44" width="89" height="11"/>
			<rect x="1603.2" y="224" fill-rule="evenodd" clip-rule="evenodd" fill="#323C44" width="89" height="10"/>
			<path fill-rule="evenodd" clip-rule="evenodd" fill="#323C44" d="M1611.1,60.4c0,0-13.2,33.3-48.3,83.5l13.3,14.5
				c0,0,41.8-29.4,73.5-82.7L1611.1,60.4z"/>
			<path fill-rule="evenodd" clip-rule="evenodd" fill="#323C44" d="M1677,94c0,0,17.3,21.1,46.2,37.9l-21.4,25.7
				c0,0-22.5-8-34.9-54.5L1677,94z"/>
			<path fill-rule="evenodd" clip-rule="evenodd" fill="#323C44" d="M1380.3,102.7l8.2-4.4c0,0,25.8,3.4,34.5,36.4l-28,12.4
				C1395,147.2,1394.5,121.2,1380.3,102.7z"/>
			<path fill-rule="evenodd" clip-rule="evenodd" fill="#323C44" d="M1498,97.3c0,0,19.5,5,27.3,17.8c0,0-23.4,13.4-37.9,30.7
				l-7.8-5C1479.6,140.7,1481.8,106.7,1498,97.3z"/>
		</g>
	</g>
</g>
</svg>
